<?xml version="1.0" encoding="utf-8"?>
<!-- Generator: Adobe Illustrator 22.0.1, SVG Export Plug-In . SVG Version: 6.00 Build 0)  -->
<svg version="1.1" id="Layer_1" xmlns="http://www.w3.org/2000/svg" xmlns:xlink="http://www.w3.org/1999/xlink" x="0px" y="0px"
	 viewBox="0 0 780 450" style="enable-background:new 0 0 780 450;" xml:space="preserve">
<style type="text/css">
	.st0{fill:#FFFFFF;}
	.st1{fill:#54A2A8;}
	.st2{fill:#355D71;}
	.st3{fill:#434444;}
	.st4{fill:#757576;}
	.st5{font-family:'Copperplate-Bold';}
	.st6{font-size:22px;}
	.st7{fill:#DA6627;}
</style>
<title>busycorp</title>
<rect class="st0" width="780" height="450"/>
<rect x="30" y="30" class="st1" width="660" height="400"/>
<rect x="690" y="30" class="st2" width="60" height="400"/>
<rect x="20" y="20" class="st2" width="670" height="10"/>
<rect x="690" y="20" class="st3" width="70" height="10"/>
<rect x="530" y="320" class="st4" width="140" height="60"/>
<rect x="530" y="240" class="st4" width="140" height="60"/>
<rect x="530" y="160" class="st4" width="140" height="60"/>
<rect x="530" y="80" class="st4" width="140" height="60"/>
<rect x="370" y="80" class="st4" width="140" height="60"/>
<rect x="370" y="160" class="st4" width="140" height="60"/>
<rect x="370" y="240" class="st4" width="140" height="60"/>
<rect x="210" y="320" class="st4" width="140" height="60"/>
<rect x="210" y="240" class="st4" width="140" height="60"/>
<rect x="210" y="160" class="st4" width="140" height="60"/>
<rect x="210" y="80" class="st4" width="140" height="60"/>
<rect x="50" y="80" class="st4" width="140" height="60"/>
<rect x="50" y="320" class="st4" width="140" height="60"/>
<rect x="50" y="240" class="st4" width="140" height="60"/>
<rect x="50" y="160" class="st4" width="140" height="60"/>
<rect x="199" y="50" class="st2" width="10" height="380"/>
<rect x="359" y="50" class="st2" width="10" height="380"/>
<rect x="519" y="50" class="st2" width="10" height="380"/>
<rect x="700" y="160" class="st4" width="40" height="60"/>
<rect x="700" y="240" class="st4" width="40" height="60"/>
<rect x="700" y="80" class="st4" width="40" height="60"/>
<rect x="700" y="320" class="st4" width="40" height="60"/>
<rect x="370" y="320" class="st4" width="140" height="60"/>
<polygon class="st0" points="707.6,358.8 713.6,358.8 713.6,364.9 719.7,364.9 719.7,370.9 724.2,370.9 724.2,377 736.3,377 
	736.3,380 721.2,380 721.2,373.9 716.7,373.9 716.7,367.9 710.6,367.9 710.6,361.8 704.5,361.8 704.5,355.8 700,355.8 700,352.8 
	707.6,352.8 "/>
<polygon class="st0" points="732.4,118.8 726.4,118.8 726.4,124.9 720.3,124.9 720.3,130.9 715.8,130.9 715.8,137 703.7,137 
	703.7,140 718.8,140 718.8,133.9 723.3,133.9 723.3,127.9 729.4,127.9 729.4,121.8 735.5,121.8 735.5,115.8 740,115.8 740,112.8 
	732.4,112.8 "/>
<polygon class="st0" points="707.6,198.8 713.6,198.8 713.6,204.9 719.7,204.9 719.7,210.9 724.2,210.9 724.2,217 736.3,217 
	736.3,220 721.2,220 721.2,213.9 716.7,213.9 716.7,207.9 710.6,207.9 710.6,201.8 704.5,201.8 704.5,195.8 700,195.8 700,192.8 
	707.6,192.8 "/>
<circle class="st0" cx="708.2" cy="271.2" r="3"/>
<path class="st0" d="M705.2,295.5h3v-9.1h1.5v9.1h3V281l3.5,3.5l2.1-2.1l-6.5-6.5h-5.2c-1.7,0-3,1.3-3,3v7.6h1.5L705.2,295.5z"/>
<polygon class="st0" points="732.4,278.8 726.4,278.8 726.4,284.9 720.3,284.9 720.3,290.9 715.8,290.9 715.8,297 703.7,297 
	703.7,300 718.8,300 718.8,293.9 723.3,293.9 723.3,287.9 729.4,287.9 729.4,281.8 735.5,281.8 735.5,275.8 740,275.8 740,272.8 
	732.4,272.8 "/>
<path class="st0" d="M446.3,129.8v0.6H444v-0.6h-6v1.8c0,0.7,0.5,1.2,1.2,1.2l0,0H451c0.7,0,1.2-0.5,1.2-1.2l0,0v-1.8H446.3z
	 M439.2,131.6V131h4.1v0.6L439.2,131.6z M451.1,131.6h-4.1V131h4.1V131.6z"/>
<path class="st0" d="M439.8,122.1h10.7v7.1h1.2v-7.1c0-0.7-0.5-1.2-1.2-1.2l0,0h-10.7c-0.7,0-1.2,0.5-1.2,1.2c0,0,0,0,0,0v7.1h1.2
	V122.1z"/>
<rect x="425.7" y="134.3" class="st0" width="28.6" height="1.9"/>
<rect x="425.7" y="136.2" class="st0" width="1.9" height="3.8"/>
<rect x="452.4" y="136.2" class="st0" width="1.9" height="3.8"/>
<path class="st0" d="M406.3,129.8v0.6H404v-0.6h-6v1.8c0,0.7,0.5,1.2,1.2,1.2l0,0H411c0.7,0,1.2-0.5,1.2-1.2l0,0v-1.8H406.3z
	 M399.2,131.6V131h4.1v0.6L399.2,131.6z M411.1,131.6h-4.1V131h4.1V131.6z"/>
<path class="st0" d="M399.8,122.1h10.7v7.1h1.2v-7.1c0-0.7-0.5-1.2-1.2-1.2l0,0h-10.7c-0.7,0-1.2,0.5-1.2,1.2c0,0,0,0,0,0v7.1h1.2
	V122.1z"/>
<rect x="385.7" y="134.3" class="st0" width="28.6" height="1.9"/>
<rect x="385.7" y="136.2" class="st0" width="1.9" height="3.8"/>
<rect x="412.4" y="136.2" class="st0" width="1.9" height="3.8"/>
<path class="st0" d="M400,136.3c0-2-1.7-3.7-3.7-3.7l0,0h-3.7c-2,0-3.7,1.7-3.7,3.7l0,0v3.7H400V136.3z"/>
<circle class="st0" cx="394.5" cy="127.1" r="3.7"/>
<path class="st0" d="M467.7,129.8v1.8c0,0.7,0.5,1.2,1.2,1.2l0,0h11.9c0.7,0,1.2-0.5,1.2-1.2l0,0v-1.8h-6v0.6h-2.4v-0.6H467.7z
	 M476.6,131.6V131h4.1v0.6L476.6,131.6z M468.9,131h4.1v0.6h-4.1V131z"/>
<path class="st0" d="M480.2,122.1h-10.7v7.1h-1.2v-7.1c0-0.7,0.5-1.2,1.2-1.2l0,0h10.7c0.7,0,1.2,0.5,1.2,1.2c0,0,0,0,0,0v7.1h-1.2
	V122.1z"/>
<rect x="465.7" y="134.3" class="st0" width="28.6" height="1.9"/>
<rect x="492.4" y="136.2" class="st0" width="1.9" height="3.8"/>
<rect x="465.7" y="136.2" class="st0" width="1.9" height="3.8"/>
<path class="st0" d="M587.7,289.8v1.8c0,0.7,0.5,1.2,1.2,1.2l0,0h11.8c0.7,0,1.2-0.5,1.2-1.2l0,0v-1.8h-6v0.6h-2.4v-0.6H587.7z
	 M596.6,291.6V291h4.2v0.6L596.6,291.6z M588.9,291h4.2v0.6h-4.2V291z"/>
<path class="st0" d="M600.2,282.1h-10.7v7.1h-1.2v-7.1c0-0.7,0.5-1.2,1.2-1.2l0,0h10.7c0.7,0,1.2,0.5,1.2,1.2l0,0v7.1h-1.2V282.1z"
	/>
<rect x="585.7" y="294.3" class="st0" width="28.6" height="1.9"/>
<rect x="612.4" y="296.2" class="st0" width="1.9" height="3.8"/>
<rect x="585.7" y="296.2" class="st0" width="1.9" height="3.8"/>
<path class="st0" d="M627.7,289.8v1.8c0,0.7,0.5,1.2,1.2,1.2l0,0h11.8c0.7,0,1.2-0.5,1.2-1.2l0,0v-1.8h-6v0.6h-2.4v-0.6H627.7z
	 M636.6,291.6V291h4.2v0.6L636.6,291.6z M628.9,291h4.2v0.6h-4.2V291z"/>
<path class="st0" d="M640.2,282.1h-10.7v7.1h-1.2v-7.1c0-0.7,0.5-1.2,1.2-1.2l0,0h10.7c0.7,0,1.2,0.5,1.2,1.2l0,0v7.1h-1.2V282.1z"
	/>
<rect x="625.7" y="294.3" class="st0" width="28.6" height="1.9"/>
<rect x="652.4" y="296.2" class="st0" width="1.9" height="3.8"/>
<rect x="625.7" y="296.2" class="st0" width="1.9" height="3.8"/>
<path class="st0" d="M566.3,289.8v0.6H564v-0.6h-6v1.8c0,0.7,0.5,1.2,1.2,1.2l0,0H571c0.7,0,1.2-0.5,1.2-1.2l0,0v-1.8H566.3z
	 M559.2,291.6V291h4.2v0.6L559.2,291.6z M571.1,291.6h-4.2V291h4.2V291.6z"/>
<path class="st0" d="M559.8,282.1h10.7v7.1h1.2v-7.1c0-0.7-0.5-1.2-1.2-1.2l0,0h-10.7c-0.7,0-1.2,0.5-1.2,1.2l0,0v7.1h1.2V282.1z"/>
<rect x="545.7" y="294.3" class="st0" width="28.6" height="1.9"/>
<rect x="545.7" y="296.2" class="st0" width="1.9" height="3.8"/>
<rect x="572.4" y="296.2" class="st0" width="1.9" height="3.8"/>
<path class="st0" d="M560,296.3c0-2-1.7-3.7-3.7-3.7l0,0h-3.7c-2,0-3.7,1.7-3.7,3.7l0,0v3.7H560V296.3z"/>
<circle class="st0" cx="554.5" cy="287.1" r="3.7"/>
<path class="st0" d="M286.3,209.8v0.6H284v-0.6h-6v1.8c0,0.7,0.5,1.2,1.2,1.2l0,0H291c0.7,0,1.2-0.5,1.2-1.2l0,0v-1.8H286.3z
	 M279.2,211.6V211h4.1v0.6L279.2,211.6z M291.1,211.6h-4.1V211h4.1V211.6z"/>
<path class="st0" d="M279.8,202.1h10.7v7.1h1.2v-7.1c0-0.7-0.5-1.2-1.2-1.2l0,0h-10.7c-0.7,0-1.2,0.5-1.2,1.2l0,0v7.1h1.2V202.1z"/>
<rect x="265.7" y="214.3" class="st0" width="28.6" height="1.9"/>
<rect x="265.7" y="216.2" class="st0" width="1.9" height="3.8"/>
<rect x="292.4" y="216.2" class="st0" width="1.9" height="3.8"/>
<path class="st0" d="M280,216.3c0-2-1.7-3.7-3.7-3.7l0,0h-3.7c-2,0-3.7,1.7-3.7,3.7l0,0v3.7H280V216.3z"/>
<circle class="st0" cx="274.5" cy="207.1" r="3.7"/>
<path class="st0" d="M246.3,209.8v0.6H244v-0.6h-6v1.8c0,0.7,0.5,1.2,1.2,1.2l0,0H251c0.7,0,1.2-0.5,1.2-1.2l0,0v-1.8H246.3z
	 M239.2,211.6V211h4.1v0.6L239.2,211.6z M251.1,211.6h-4.1V211h4.1V211.6z"/>
<path class="st0" d="M239.8,202.1h10.7v7.1h1.2v-7.1c0-0.7-0.5-1.2-1.2-1.2l0,0h-10.7c-0.7,0-1.2,0.5-1.2,1.2l0,0v7.1h1.2V202.1z"/>
<rect x="225.7" y="214.3" class="st0" width="28.6" height="1.9"/>
<rect x="225.7" y="216.2" class="st0" width="1.9" height="3.8"/>
<rect x="252.4" y="216.2" class="st0" width="1.9" height="3.8"/>
<path class="st0" d="M240,216.3c0-2-1.7-3.7-3.7-3.7l0,0h-3.7c-2,0-3.7,1.7-3.7,3.7l0,0v3.7H240V216.3z"/>
<circle class="st0" cx="234.5" cy="207.1" r="3.7"/>
<path class="st0" d="M307.7,209.8v1.8c0,0.7,0.5,1.2,1.2,1.2l0,0h11.9c0.7,0,1.2-0.5,1.2-1.2l0,0v-1.8h-6v0.6h-2.4v-0.6H307.7z
	 M316.6,211.6V211h4.1v0.6L316.6,211.6z M308.9,211h4.1v0.6h-4.1V211z"/>
<path class="st0" d="M320.2,202.1h-10.7v7.1h-1.2v-7.1c0-0.7,0.5-1.2,1.2-1.2l0,0h10.7c0.7,0,1.2,0.5,1.2,1.2l0,0v7.1h-1.2V202.1z"
	/>
<rect x="305.7" y="214.3" class="st0" width="28.6" height="1.9"/>
<rect x="332.4" y="216.2" class="st0" width="1.9" height="3.8"/>
<rect x="305.7" y="216.2" class="st0" width="1.9" height="3.8"/>
<path class="st0" d="M320,216.3c0-2,1.7-3.7,3.7-3.7l0,0h3.7c2,0,3.7,1.7,3.7,3.7l0,0v3.7H320V216.3z"/>
<circle class="st0" cx="325.5" cy="207.1" r="3.7"/>
<path class="st0" d="M267.7,369.8v1.8c0,0.7,0.5,1.2,1.2,1.2l0,0h11.9c0.7,0,1.2-0.5,1.2-1.2l0,0v-1.8h-6v0.6h-2.4v-0.6H267.7z
	 M276.6,371.6V371h4.1v0.6L276.6,371.6z M268.9,371h4.1v0.6h-4.1V371z"/>
<path class="st0" d="M280.2,362.1h-10.7v7.1h-1.2v-7.1c0-0.7,0.5-1.2,1.2-1.2l0,0h10.7c0.7,0,1.2,0.5,1.2,1.2l0,0v7.1h-1.2V362.1z"
	/>
<rect x="265.7" y="374.3" class="st0" width="28.6" height="1.9"/>
<rect x="292.4" y="376.2" class="st0" width="1.9" height="3.8"/>
<rect x="265.7" y="376.2" class="st0" width="1.9" height="3.8"/>
<path class="st0" d="M307.7,369.8v1.8c0,0.7,0.5,1.2,1.2,1.2l0,0h11.9c0.7,0,1.2-0.5,1.2-1.2l0,0v-1.8h-6v0.6h-2.4v-0.6H307.7z
	 M316.6,371.6V371h4.1v0.6L316.6,371.6z M308.9,371h4.1v0.6h-4.1V371z"/>
<path class="st0" d="M320.2,362.1h-10.7v7.1h-1.2v-7.1c0-0.7,0.5-1.2,1.2-1.2l0,0h10.7c0.7,0,1.2,0.5,1.2,1.2l0,0v7.1h-1.2V362.1z"
	/>
<rect x="305.7" y="374.3" class="st0" width="28.6" height="1.9"/>
<rect x="332.4" y="376.2" class="st0" width="1.9" height="3.8"/>
<rect x="305.7" y="376.2" class="st0" width="1.9" height="3.8"/>
<path class="st0" d="M320,376.3c0-2,1.7-3.7,3.7-3.7l0,0h3.7c2,0,3.7,1.7,3.7,3.7l0,0v3.7H320V376.3z"/>
<circle class="st0" cx="325.5" cy="367.1" r="3.7"/>
<path class="st0" d="M246.3,369.8v0.6H244v-0.6h-6v1.8c0,0.7,0.5,1.2,1.2,1.2l0,0H251c0.7,0,1.2-0.5,1.2-1.2l0,0v-1.8H246.3z
	 M239.2,371.6V371h4.1v0.6L239.2,371.6z M251.1,371.6h-4.1V371h4.1V371.6z"/>
<path class="st0" d="M239.8,362.1h10.7v7.1h1.2v-7.1c0-0.7-0.5-1.2-1.2-1.2l0,0h-10.7c-0.7,0-1.2,0.5-1.2,1.2l0,0v7.1h1.2V362.1z"/>
<rect x="225.7" y="374.3" class="st0" width="28.6" height="1.9"/>
<rect x="225.7" y="376.2" class="st0" width="1.9" height="3.8"/>
<rect x="252.4" y="376.2" class="st0" width="1.9" height="3.8"/>
<path class="st0" d="M240,376.3c0-2-1.7-3.7-3.7-3.7l0,0h-3.7c-2,0-3.7,1.7-3.7,3.7l0,0v3.7H240V376.3z"/>
<circle class="st0" cx="234.5" cy="367.1" r="3.7"/>
<path class="st0" d="M126.3,209.8v0.6H124v-0.6h-6v1.8c0,0.7,0.5,1.2,1.2,1.2c0,0,0,0,0,0H131c0.7,0,1.2-0.5,1.2-1.2l0,0v-1.8H126.3
	z M119.2,211.6V211h4.2v0.6L119.2,211.6z M131.1,211.6h-4.2V211h4.2V211.6z"/>
<path class="st0" d="M119.8,202.1h10.7v7.1h1.2v-7.1c0-0.7-0.5-1.2-1.2-1.2l0,0h-10.7c-0.7,0-1.2,0.5-1.2,1.2l0,0v7.1h1.2V202.1z"/>
<rect x="105.7" y="214.3" class="st0" width="28.6" height="1.9"/>
<rect x="105.7" y="216.2" class="st0" width="1.9" height="3.8"/>
<rect x="132.4" y="216.2" class="st0" width="1.9" height="3.8"/>
<path class="st0" d="M120,216.3c0-2-1.7-3.7-3.7-3.7c0,0,0,0,0,0h-3.7c-2,0-3.7,1.7-3.7,3.7l0,0v3.7H120V216.3z"/>
<circle class="st0" cx="114.5" cy="207.1" r="3.7"/>
<path class="st0" d="M86.3,209.8v0.6H84v-0.6h-6v1.8c0,0.7,0.5,1.2,1.2,1.2c0,0,0,0,0,0h11.9c0.7,0,1.2-0.5,1.2-1.2l0,0v-1.8H86.3z
	 M79.2,211.6V211h4.2v0.6L79.2,211.6z M91.1,211.6h-4.2V211h4.2V211.6z"/>
<path class="st0" d="M79.8,202.1h10.7v7.1h1.2v-7.1c0-0.7-0.5-1.2-1.2-1.2c0,0,0,0,0,0H79.8c-0.7,0-1.2,0.5-1.2,1.2l0,0v7.1h1.2
	V202.1z"/>
<rect x="65.7" y="214.3" class="st0" width="28.6" height="1.9"/>
<rect x="65.7" y="216.2" class="st0" width="1.9" height="3.8"/>
<rect x="92.4" y="216.2" class="st0" width="1.9" height="3.8"/>
<path class="st0" d="M80,216.3c0-2-1.7-3.7-3.7-3.7c0,0,0,0,0,0h-3.7c-2,0-3.7,1.7-3.7,3.7l0,0v3.7H80V216.3z"/>
<circle class="st0" cx="74.5" cy="207.1" r="3.7"/>
<path class="st0" d="M147.7,209.8v1.8c0,0.7,0.5,1.2,1.2,1.2l0,0h11.9c0.7,0,1.2-0.5,1.2-1.2l0,0v-1.8h-6v0.6h-2.4v-0.6H147.7z
	 M156.6,211.6V211h4.1v0.6L156.6,211.6z M148.9,211h4.1v0.6h-4.1V211z"/>
<path class="st0" d="M160.2,202.1h-10.7v7.1h-1.2v-7.1c0-0.7,0.5-1.2,1.2-1.2l0,0h10.7c0.7,0,1.2,0.5,1.2,1.2l0,0v7.1h-1.2V202.1z"
	/>
<rect x="145.7" y="214.3" class="st0" width="28.6" height="1.9"/>
<rect x="172.4" y="216.2" class="st0" width="1.9" height="3.8"/>
<rect x="145.7" y="216.2" class="st0" width="1.9" height="3.8"/>
<path class="st0" d="M160,216.3c0-2,1.7-3.7,3.7-3.7l0,0h3.7c2,0,3.7,1.7,3.7,3.7l0,0v3.7H160V216.3z"/>
<circle class="st0" cx="165.5" cy="207.1" r="3.7"/>
<path class="st0" d="M566.3,209.8v0.6H564v-0.6h-6v1.8c0,0.7,0.5,1.2,1.2,1.2l0,0H571c0.7,0,1.2-0.5,1.2-1.2l0,0v-1.8H566.3z
	 M559.2,211.6V211h4.2v0.6L559.2,211.6z M571.1,211.6h-4.2V211h4.2V211.6z"/>
<path class="st0" d="M559.8,202.1h10.7v7.1h1.2v-7.1c0-0.7-0.5-1.2-1.2-1.2l0,0h-10.7c-0.7,0-1.2,0.5-1.2,1.2l0,0v7.1h1.2V202.1z"/>
<rect x="545.7" y="214.3" class="st0" width="28.6" height="1.9"/>
<rect x="545.7" y="216.2" class="st0" width="1.9" height="3.8"/>
<rect x="572.4" y="216.2" class="st0" width="1.9" height="3.8"/>
<path class="st0" d="M560,216.3c0-2-1.7-3.7-3.7-3.7l0,0h-3.7c-2,0-3.7,1.7-3.7,3.7l0,0v3.7H560V216.3z"/>
<circle class="st0" cx="554.5" cy="207.1" r="3.7"/>
<path class="st0" d="M627.7,209.8v1.8c0,0.7,0.5,1.2,1.2,1.2l0,0h11.8c0.7,0,1.2-0.5,1.2-1.2l0,0v-1.8h-6v0.6h-2.4v-0.6H627.7z
	 M636.6,211.6V211h4.2v0.6L636.6,211.6z M628.9,211h4.2v0.6h-4.2V211z"/>
<path class="st0" d="M640.2,202.1h-10.7v7.1h-1.2v-7.1c0-0.7,0.5-1.2,1.2-1.2l0,0h10.7c0.7,0,1.2,0.5,1.2,1.2l0,0v7.1h-1.2V202.1z"
	/>
<rect x="625.7" y="214.3" class="st0" width="28.6" height="1.9"/>
<rect x="652.4" y="216.2" class="st0" width="1.9" height="3.8"/>
<rect x="625.7" y="216.2" class="st0" width="1.9" height="3.8"/>
<path class="st0" d="M640,216.3c0-2,1.7-3.7,3.7-3.7l0,0h3.7c2,0,3.7,1.7,3.7,3.7l0,0v3.7H640V216.3z"/>
<circle class="st0" cx="645.5" cy="207.1" r="3.7"/>
<path class="st0" d="M107.7,129.8v1.8c0,0.7,0.5,1.2,1.2,1.2c0,0,0,0,0,0h11.8c0.7,0,1.2-0.5,1.2-1.2l0,0v-1.8h-6v0.6h-2.4v-0.6
	H107.7z M116.6,131.6V131h4.2v0.6L116.6,131.6z M108.9,131h4.2v0.6h-4.2V131z"/>
<path class="st0" d="M120.2,122.1h-10.7v7.1h-1.2v-7.1c0-0.7,0.5-1.2,1.2-1.2c0,0,0,0,0,0h10.7c0.7,0,1.2,0.5,1.2,1.2c0,0,0,0,0,0
	v7.1h-1.2L120.2,122.1z"/>
<rect x="105.7" y="134.3" class="st0" width="28.6" height="1.9"/>
<rect x="132.4" y="136.2" class="st0" width="1.9" height="3.8"/>
<rect x="105.7" y="136.2" class="st0" width="1.9" height="3.8"/>
<path class="st0" d="M120,136.3c0-2,1.7-3.7,3.7-3.7c0,0,0,0,0,0h3.7c2,0,3.7,1.7,3.7,3.7l0,0v3.7H120V136.3z"/>
<circle class="st0" cx="125.5" cy="127.1" r="3.7"/>
<path class="st0" d="M147.7,129.8v1.8c0,0.7,0.5,1.2,1.2,1.2l0,0h11.9c0.7,0,1.2-0.5,1.2-1.2l0,0v-1.8h-6v0.6h-2.4v-0.6H147.7z
	 M156.6,131.6V131h4.1v0.6L156.6,131.6z M148.9,131h4.1v0.6h-4.1V131z"/>
<path class="st0" d="M160.2,122.1h-10.7v7.1h-1.2v-7.1c0-0.7,0.5-1.2,1.2-1.2l0,0h10.7c0.7,0,1.2,0.5,1.2,1.2c0,0,0,0,0,0v7.1h-1.2
	V122.1z"/>
<rect x="145.7" y="134.3" class="st0" width="28.6" height="1.9"/>
<rect x="172.4" y="136.2" class="st0" width="1.9" height="3.8"/>
<rect x="145.7" y="136.2" class="st0" width="1.9" height="3.8"/>
<path class="st0" d="M160,136.3c0-2,1.7-3.7,3.7-3.7l0,0h3.7c2,0,3.7,1.7,3.7,3.7l0,0v3.7H160V136.3z"/>
<circle class="st0" cx="165.5" cy="127.1" r="3.7"/>
<path class="st0" d="M86.3,129.8v0.6H84v-0.6h-6v1.8c0,0.7,0.5,1.2,1.2,1.2c0,0,0,0,0,0h11.9c0.7,0,1.2-0.5,1.2-1.2l0,0v-1.8H86.3z
	 M79.2,131.6V131h4.2v0.6L79.2,131.6z M91.1,131.6h-4.2V131h4.2V131.6z"/>
<path class="st0" d="M79.8,122.1h10.7v7.1h1.2v-7.1c0-0.7-0.5-1.2-1.2-1.2c0,0,0,0,0,0H79.8c-0.7,0-1.2,0.5-1.2,1.2c0,0,0,0,0,0v7.1
	h1.2V122.1z"/>
<rect x="65.7" y="134.3" class="st0" width="28.6" height="1.9"/>
<rect x="65.7" y="136.2" class="st0" width="1.9" height="3.8"/>
<rect x="92.4" y="136.2" class="st0" width="1.9" height="3.8"/>
<path class="st0" d="M80,136.3c0-2-1.7-3.7-3.7-3.7c0,0,0,0,0,0h-3.7c-2,0-3.7,1.7-3.7,3.7l0,0v3.7H80V136.3z"/>
<circle class="st0" cx="74.5" cy="127.1" r="3.7"/>
<path class="st0" d="M587.7,129.8v1.8c0,0.7,0.5,1.2,1.2,1.2l0,0h11.8c0.7,0,1.2-0.5,1.2-1.2l0,0v-1.8h-6v0.6h-2.4v-0.6H587.7z
	 M596.6,131.6V131h4.2v0.6L596.6,131.6z M588.9,131h4.2v0.6h-4.2V131z"/>
<path class="st0" d="M600.2,122.1h-10.7v7.1h-1.2v-7.1c0-0.7,0.5-1.2,1.2-1.2l0,0h10.7c0.7,0,1.2,0.5,1.2,1.2c0,0,0,0,0,0v7.1h-1.2
	V122.1z"/>
<rect x="585.7" y="134.3" class="st0" width="28.6" height="1.9"/>
<rect x="612.4" y="136.2" class="st0" width="1.9" height="3.8"/>
<rect x="585.7" y="136.2" class="st0" width="1.9" height="3.8"/>
<path class="st0" d="M600,136.3c0-2,1.7-3.7,3.7-3.7l0,0h3.7c2,0,3.7,1.7,3.7,3.7l0,0v3.7H600V136.3z"/>
<circle class="st0" cx="605.5" cy="127.1" r="3.7"/>
<path class="st0" d="M627.7,129.8v1.8c0,0.7,0.5,1.2,1.2,1.2l0,0h11.8c0.7,0,1.2-0.5,1.2-1.2l0,0v-1.8h-6v0.6h-2.4v-0.6H627.7z
	 M636.6,131.6V131h4.2v0.6L636.6,131.6z M628.9,131h4.2v0.6h-4.2V131z"/>
<path class="st0" d="M640.2,122.1h-10.7v7.1h-1.2v-7.1c0-0.7,0.5-1.2,1.2-1.2l0,0h10.7c0.7,0,1.2,0.5,1.2,1.2c0,0,0,0,0,0v7.1h-1.2
	V122.1z"/>
<rect x="625.7" y="134.3" class="st0" width="28.6" height="1.9"/>
<rect x="652.4" y="136.2" class="st0" width="1.9" height="3.8"/>
<rect x="625.7" y="136.2" class="st0" width="1.9" height="3.8"/>
<path class="st0" d="M640,136.3c0-2,1.7-3.7,3.7-3.7l0,0h3.7c2,0,3.7,1.7,3.7,3.7l0,0v3.7H640V136.3z"/>
<circle class="st0" cx="645.5" cy="127.1" r="3.7"/>
<path class="st0" d="M566.3,129.8v0.6H564v-0.6h-6v1.8c0,0.7,0.5,1.2,1.2,1.2l0,0H571c0.7,0,1.2-0.5,1.2-1.2l0,0v-1.8H566.3z
	 M559.2,131.6V131h4.2v0.6L559.2,131.6z M571.1,131.6h-4.2V131h4.2V131.6z"/>
<path class="st0" d="M559.8,122.1h10.7v7.1h1.2v-7.1c0-0.7-0.5-1.2-1.2-1.2l0,0h-10.7c-0.7,0-1.2,0.5-1.2,1.2c0,0,0,0,0,0v7.1h1.2
	V122.1z"/>
<rect x="545.7" y="134.3" class="st0" width="28.6" height="1.9"/>
<rect x="545.7" y="136.2" class="st0" width="1.9" height="3.8"/>
<rect x="572.4" y="136.2" class="st0" width="1.9" height="3.8"/>
<path class="st0" d="M446.3,209.8v0.6H444v-0.6h-6v1.8c0,0.7,0.5,1.2,1.2,1.2l0,0H451c0.7,0,1.2-0.5,1.2-1.2l0,0v-1.8H446.3z
	 M439.2,211.6V211h4.1v0.6L439.2,211.6z M451.1,211.6h-4.1V211h4.1V211.6z"/>
<path class="st0" d="M439.8,202.1h10.7v7.1h1.2v-7.1c0-0.7-0.5-1.2-1.2-1.2l0,0h-10.7c-0.7,0-1.2,0.5-1.2,1.2l0,0v7.1h1.2V202.1z"/>
<rect x="425.7" y="214.3" class="st0" width="28.6" height="1.9"/>
<rect x="425.7" y="216.2" class="st0" width="1.9" height="3.8"/>
<rect x="452.4" y="216.2" class="st0" width="1.9" height="3.8"/>
<path class="st0" d="M440,216.3c0-2-1.7-3.7-3.7-3.7l0,0h-3.7c-2,0-3.7,1.7-3.7,3.7l0,0v3.7H440V216.3z"/>
<circle class="st0" cx="434.5" cy="207.1" r="3.7"/>
<path class="st0" d="M406.3,209.8v0.6H404v-0.6h-6v1.8c0,0.7,0.5,1.2,1.2,1.2l0,0H411c0.7,0,1.2-0.5,1.2-1.2l0,0v-1.8H406.3z
	 M399.2,211.6V211h4.1v0.6L399.2,211.6z M411.1,211.6h-4.1V211h4.1V211.6z"/>
<path class="st0" d="M399.8,202.1h10.7v7.1h1.2v-7.1c0-0.7-0.5-1.2-1.2-1.2l0,0h-10.7c-0.7,0-1.2,0.5-1.2,1.2l0,0v7.1h1.2V202.1z"/>
<rect x="385.7" y="214.3" class="st0" width="28.6" height="1.9"/>
<rect x="385.7" y="216.2" class="st0" width="1.9" height="3.8"/>
<rect x="412.4" y="216.2" class="st0" width="1.9" height="3.8"/>
<path class="st0" d="M400,216.3c0-2-1.7-3.7-3.7-3.7l0,0h-3.7c-2,0-3.7,1.7-3.7,3.7l0,0v3.7H400V216.3z"/>
<circle class="st0" cx="394.5" cy="207.1" r="3.7"/>
<path class="st0" d="M467.7,209.8v1.8c0,0.7,0.5,1.2,1.2,1.2l0,0h11.9c0.7,0,1.2-0.5,1.2-1.2l0,0v-1.8h-6v0.6h-2.4v-0.6H467.7z
	 M476.6,211.6V211h4.1v0.6L476.6,211.6z M468.9,211h4.1v0.6h-4.1V211z"/>
<path class="st0" d="M480.2,202.1h-10.7v7.1h-1.2v-7.1c0-0.7,0.5-1.2,1.2-1.2l0,0h10.7c0.7,0,1.2,0.5,1.2,1.2l0,0v7.1h-1.2V202.1z"
	/>
<rect x="465.7" y="214.3" class="st0" width="28.6" height="1.9"/>
<rect x="492.4" y="216.2" class="st0" width="1.9" height="3.8"/>
<rect x="465.7" y="216.2" class="st0" width="1.9" height="3.8"/>
<path class="st0" d="M480,216.3c0-2,1.7-3.7,3.7-3.7l0,0h3.7c2,0,3.7,1.7,3.7,3.7l0,0v3.7H480V216.3z"/>
<circle class="st0" cx="485.5" cy="207.1" r="3.7"/>
<path class="st0" d="M267.7,289.8v1.8c0,0.7,0.5,1.2,1.2,1.2l0,0h11.9c0.7,0,1.2-0.5,1.2-1.2l0,0v-1.8h-6v0.6h-2.4v-0.6H267.7z
	 M276.6,291.6V291h4.1v0.6L276.6,291.6z M268.9,291h4.1v0.6h-4.1V291z"/>
<path class="st0" d="M280.2,282.1h-10.7v7.1h-1.2v-7.1c0-0.7,0.5-1.2,1.2-1.2l0,0h10.7c0.7,0,1.2,0.5,1.2,1.2l0,0v7.1h-1.2V282.1z"
	/>
<rect x="265.7" y="294.3" class="st0" width="28.6" height="1.9"/>
<rect x="292.4" y="296.2" class="st0" width="1.9" height="3.8"/>
<rect x="265.7" y="296.2" class="st0" width="1.9" height="3.8"/>
<path class="st0" d="M280,296.3c0-2,1.7-3.7,3.7-3.7l0,0h3.7c2,0,3.7,1.7,3.7,3.7l0,0v3.7H280V296.3z"/>
<circle class="st0" cx="285.5" cy="287.1" r="3.7"/>
<path class="st0" d="M307.7,289.8v1.8c0,0.7,0.5,1.2,1.2,1.2l0,0h11.9c0.7,0,1.2-0.5,1.2-1.2l0,0v-1.8h-6v0.6h-2.4v-0.6H307.7z
	 M316.6,291.6V291h4.1v0.6L316.6,291.6z M308.9,291h4.1v0.6h-4.1V291z"/>
<path class="st0" d="M320.2,282.1h-10.7v7.1h-1.2v-7.1c0-0.7,0.5-1.2,1.2-1.2l0,0h10.7c0.7,0,1.2,0.5,1.2,1.2l0,0v7.1h-1.2V282.1z"
	/>
<rect x="305.7" y="294.3" class="st0" width="28.6" height="1.9"/>
<rect x="332.4" y="296.2" class="st0" width="1.9" height="3.8"/>
<rect x="305.7" y="296.2" class="st0" width="1.9" height="3.8"/>
<path class="st0" d="M320,296.3c0-2,1.7-3.7,3.7-3.7l0,0h3.7c2,0,3.7,1.7,3.7,3.7l0,0v3.7H320V296.3z"/>
<circle class="st0" cx="325.5" cy="287.1" r="3.7"/>
<path class="st0" d="M246.3,289.8v0.6H244v-0.6h-6v1.8c0,0.7,0.5,1.2,1.2,1.2l0,0H251c0.7,0,1.2-0.5,1.2-1.2l0,0v-1.8H246.3z
	 M239.2,291.6V291h4.1v0.6L239.2,291.6z M251.1,291.6h-4.1V291h4.1V291.6z"/>
<path class="st0" d="M239.8,282.1h10.7v7.1h1.2v-7.1c0-0.7-0.5-1.2-1.2-1.2l0,0h-10.7c-0.7,0-1.2,0.5-1.2,1.2l0,0v7.1h1.2V282.1z"/>
<rect x="225.7" y="294.3" class="st0" width="28.6" height="1.9"/>
<rect x="225.7" y="296.2" class="st0" width="1.9" height="3.8"/>
<rect x="252.4" y="296.2" class="st0" width="1.9" height="3.8"/>
<path class="st0" d="M126.3,369.8v0.6H124v-0.6h-6v1.8c0,0.7,0.5,1.2,1.2,1.2c0,0,0,0,0,0H131c0.7,0,1.2-0.5,1.2-1.2l0,0v-1.8H126.3
	z M119.2,371.6V371h4.2v0.6L119.2,371.6z M131.1,371.6h-4.2V371h4.2V371.6z"/>
<path class="st0" d="M119.8,362.1h10.7v7.1h1.2v-7.1c0-0.7-0.5-1.2-1.2-1.2l0,0h-10.7c-0.7,0-1.2,0.5-1.2,1.2l0,0v7.1h1.2V362.1z"/>
<rect x="105.7" y="374.3" class="st0" width="28.6" height="1.9"/>
<rect x="105.7" y="376.2" class="st0" width="1.9" height="3.8"/>
<rect x="132.4" y="376.2" class="st0" width="1.9" height="3.8"/>
<path class="st0" d="M120,376.3c0-2-1.7-3.7-3.7-3.7c0,0,0,0,0,0h-3.7c-2,0-3.7,1.7-3.7,3.7l0,0v3.7H120V376.3z"/>
<circle class="st0" cx="114.5" cy="367.1" r="3.7"/>
<path class="st0" d="M86.3,369.8v0.6H84v-0.6h-6v1.8c0,0.7,0.5,1.2,1.2,1.2c0,0,0,0,0,0h11.9c0.7,0,1.2-0.5,1.2-1.2l0,0v-1.8H86.3z
	 M79.2,371.6V371h4.2v0.6L79.2,371.6z M91.1,371.6h-4.2V371h4.2V371.6z"/>
<path class="st0" d="M79.8,362.1h10.7v7.1h1.2v-7.1c0-0.7-0.5-1.2-1.2-1.2c0,0,0,0,0,0H79.8c-0.7,0-1.2,0.5-1.2,1.2l0,0v7.1h1.2
	V362.1z"/>
<rect x="65.7" y="374.3" class="st0" width="28.6" height="1.9"/>
<rect x="65.7" y="376.2" class="st0" width="1.9" height="3.8"/>
<rect x="92.4" y="376.2" class="st0" width="1.9" height="3.8"/>
<path class="st0" d="M80,376.3c0-2-1.7-3.7-3.7-3.7c0,0,0,0,0,0h-3.7c-2,0-3.7,1.7-3.7,3.7l0,0v3.7H80V376.3z"/>
<circle class="st0" cx="74.5" cy="367.1" r="3.7"/>
<path class="st0" d="M147.7,369.8v1.8c0,0.7,0.5,1.2,1.2,1.2l0,0h11.9c0.7,0,1.2-0.5,1.2-1.2l0,0v-1.8h-6v0.6h-2.4v-0.6H147.7z
	 M156.6,371.6V371h4.1v0.6L156.6,371.6z M148.9,371h4.1v0.6h-4.1V371z"/>
<path class="st0" d="M160.2,362.1h-10.7v7.1h-1.2v-7.1c0-0.7,0.5-1.2,1.2-1.2l0,0h10.7c0.7,0,1.2,0.5,1.2,1.2l0,0v7.1h-1.2V362.1z"
	/>
<rect x="145.7" y="374.3" class="st0" width="28.6" height="1.9"/>
<rect x="172.4" y="376.2" class="st0" width="1.9" height="3.8"/>
<rect x="145.7" y="376.2" class="st0" width="1.9" height="3.8"/>
<path class="st0" d="M160,376.3c0-2,1.7-3.7,3.7-3.7l0,0h3.7c2,0,3.7,1.7,3.7,3.7l0,0v3.7H160V376.3z"/>
<circle class="st0" cx="165.5" cy="367.1" r="3.7"/>
<path class="st0" d="M606.3,369.8v0.6H604v-0.6h-6v1.8c0,0.7,0.5,1.2,1.2,1.2l0,0H611c0.7,0,1.2-0.5,1.2-1.2l0,0v-1.8H606.3z
	 M599.2,371.6V371h4.2v0.6L599.2,371.6z M611.1,371.6h-4.2V371h4.2V371.6z"/>
<path class="st0" d="M599.8,362.1h10.7v7.1h1.2v-7.1c0-0.7-0.5-1.2-1.2-1.2l0,0h-10.7c-0.7,0-1.2,0.5-1.2,1.2l0,0v7.1h1.2V362.1z"/>
<rect x="585.7" y="374.3" class="st0" width="28.6" height="1.9"/>
<rect x="585.7" y="376.2" class="st0" width="1.9" height="3.8"/>
<rect x="612.4" y="376.2" class="st0" width="1.9" height="3.8"/>
<path class="st0" d="M600,376.3c0-2-1.7-3.7-3.7-3.7l0,0h-3.7c-2,0-3.7,1.7-3.7,3.7l0,0v3.7H600V376.3z"/>
<circle class="st0" cx="594.5" cy="367.1" r="3.7"/>
<path class="st0" d="M566.3,369.8v0.6H564v-0.6h-6v1.8c0,0.7,0.5,1.2,1.2,1.2l0,0H571c0.7,0,1.2-0.5,1.2-1.2l0,0v-1.8H566.3z
	 M559.2,371.6V371h4.2v0.6L559.2,371.6z M571.1,371.6h-4.2V371h4.2V371.6z"/>
<path class="st0" d="M559.8,362.1h10.7v7.1h1.2v-7.1c0-0.7-0.5-1.2-1.2-1.2l0,0h-10.7c-0.7,0-1.2,0.5-1.2,1.2l0,0v7.1h1.2V362.1z"/>
<rect x="545.7" y="374.3" class="st0" width="28.6" height="1.9"/>
<rect x="545.7" y="376.2" class="st0" width="1.9" height="3.8"/>
<rect x="572.4" y="376.2" class="st0" width="1.9" height="3.8"/>
<path class="st0" d="M560,376.3c0-2-1.7-3.7-3.7-3.7l0,0h-3.7c-2,0-3.7,1.7-3.7,3.7l0,0v3.7H560V376.3z"/>
<circle class="st0" cx="554.5" cy="367.1" r="3.7"/>
<path class="st0" d="M627.7,369.8v1.8c0,0.7,0.5,1.2,1.2,1.2l0,0h11.8c0.7,0,1.2-0.5,1.2-1.2l0,0v-1.8h-6v0.6h-2.4v-0.6H627.7z
	 M636.6,371.6V371h4.2v0.6L636.6,371.6z M628.9,371h4.2v0.6h-4.2V371z"/>
<path class="st0" d="M640.2,362.1h-10.7v7.1h-1.2v-7.1c0-0.7,0.5-1.2,1.2-1.2l0,0h10.7c0.7,0,1.2,0.5,1.2,1.2l0,0v7.1h-1.2V362.1z"
	/>
<rect x="625.7" y="374.3" class="st0" width="28.6" height="1.9"/>
<rect x="652.4" y="376.2" class="st0" width="1.9" height="3.8"/>
<rect x="625.7" y="376.2" class="st0" width="1.9" height="3.8"/>
<path class="st0" d="M640,376.3c0-2,1.7-3.7,3.7-3.7l0,0h3.7c2,0,3.7,1.7,3.7,3.7l0,0v3.7H640V376.3z"/>
<circle class="st0" cx="645.5" cy="367.1" r="3.7"/>
<path class="st0" d="M126.3,289.8v0.6H124v-0.6h-6v1.8c0,0.7,0.5,1.2,1.2,1.2c0,0,0,0,0,0H131c0.7,0,1.2-0.5,1.2-1.2l0,0v-1.8H126.3
	z M119.2,291.6V291h4.2v0.6L119.2,291.6z M131.1,291.6h-4.2V291h4.2V291.6z"/>
<path class="st0" d="M119.8,282.1h10.7v7.1h1.2v-7.1c0-0.7-0.5-1.2-1.2-1.2l0,0h-10.7c-0.7,0-1.2,0.5-1.2,1.2l0,0v7.1h1.2V282.1z"/>
<rect x="105.7" y="294.3" class="st0" width="28.6" height="1.9"/>
<rect x="105.7" y="296.2" class="st0" width="1.9" height="3.8"/>
<rect x="132.4" y="296.2" class="st0" width="1.9" height="3.8"/>
<path class="st0" d="M86.3,289.8v0.6H84v-0.6h-6v1.8c0,0.7,0.5,1.2,1.2,1.2c0,0,0,0,0,0h11.9c0.7,0,1.2-0.5,1.2-1.2l0,0v-1.8H86.3z
	 M79.2,291.6V291h4.2v0.6L79.2,291.6z M91.1,291.6h-4.2V291h4.2V291.6z"/>
<path class="st0" d="M79.8,282.1h10.7v7.1h1.2v-7.1c0-0.7-0.5-1.2-1.2-1.2c0,0,0,0,0,0H79.8c-0.7,0-1.2,0.5-1.2,1.2l0,0v7.1h1.2
	V282.1z"/>
<rect x="65.7" y="294.3" class="st0" width="28.6" height="1.9"/>
<rect x="65.7" y="296.2" class="st0" width="1.9" height="3.8"/>
<rect x="92.4" y="296.2" class="st0" width="1.9" height="3.8"/>
<path class="st0" d="M147.7,289.8v1.8c0,0.7,0.5,1.2,1.2,1.2l0,0h11.9c0.7,0,1.2-0.5,1.2-1.2l0,0v-1.8h-6v0.6h-2.4v-0.6H147.7z
	 M156.6,291.6V291h4.1v0.6L156.6,291.6z M148.9,291h4.1v0.6h-4.1V291z"/>
<path class="st0" d="M160.2,282.1h-10.7v7.1h-1.2v-7.1c0-0.7,0.5-1.2,1.2-1.2l0,0h10.7c0.7,0,1.2,0.5,1.2,1.2l0,0v7.1h-1.2V282.1z"
	/>
<rect x="145.7" y="294.3" class="st0" width="28.6" height="1.9"/>
<rect x="172.4" y="296.2" class="st0" width="1.9" height="3.8"/>
<rect x="145.7" y="296.2" class="st0" width="1.9" height="3.8"/>
<path class="st0" d="M446.3,369.8v0.6H444v-0.6h-6v1.8c0,0.7,0.5,1.2,1.2,1.2l0,0H451c0.7,0,1.2-0.5,1.2-1.2l0,0v-1.8H446.3z
	 M439.2,371.6V371h4.1v0.6L439.2,371.6z M451.1,371.6h-4.1V371h4.1V371.6z"/>
<path class="st0" d="M439.8,362.1h10.7v7.1h1.2v-7.1c0-0.7-0.5-1.2-1.2-1.2l0,0h-10.7c-0.7,0-1.2,0.5-1.2,1.2l0,0v7.1h1.2V362.1z"/>
<rect x="425.7" y="374.3" class="st0" width="28.6" height="1.9"/>
<rect x="425.7" y="376.2" class="st0" width="1.9" height="3.8"/>
<rect x="452.4" y="376.2" class="st0" width="1.9" height="3.8"/>
<path class="st0" d="M440,376.3c0-2-1.7-3.7-3.7-3.7l0,0h-3.7c-2,0-3.7,1.7-3.7,3.7l0,0v3.7H440V376.3z"/>
<circle class="st0" cx="434.5" cy="367.1" r="3.7"/>
<path class="st0" d="M467.7,369.8v1.8c0,0.7,0.5,1.2,1.2,1.2l0,0h11.9c0.7,0,1.2-0.5,1.2-1.2l0,0v-1.8h-6v0.6h-2.4v-0.6H467.7z
	 M476.6,371.6V371h4.1v0.6L476.6,371.6z M468.9,371h4.1v0.6h-4.1V371z"/>
<path class="st0" d="M480.2,362.1h-10.7v7.1h-1.2v-7.1c0-0.7,0.5-1.2,1.2-1.2l0,0h10.7c0.7,0,1.2,0.5,1.2,1.2l0,0v7.1h-1.2V362.1z"
	/>
<rect x="465.7" y="374.3" class="st0" width="28.6" height="1.9"/>
<rect x="492.4" y="376.2" class="st0" width="1.9" height="3.8"/>
<rect x="465.7" y="376.2" class="st0" width="1.9" height="3.8"/>
<path class="st0" d="M480,376.3c0-2,1.7-3.7,3.7-3.7l0,0h3.7c2,0,3.7,1.7,3.7,3.7l0,0v3.7H480V376.3z"/>
<circle class="st0" cx="485.5" cy="367.1" r="3.7"/>
<path class="st0" d="M442.6,296.1v3.9h11.6v-3.9c0-2.1-1.7-3.9-3.9-3.9h-3.9C444.3,292.3,442.6,294,442.6,296.1z"/>
<circle class="st0" cx="448.4" cy="286.5" r="3.9"/>
<circle class="st0" cx="420.6" cy="270.3" r="3.9"/>
<path class="st0" d="M426.5,280c0-2.1-1.7-3.9-3.9-3.9h-5l-7.2-7.1l-2.7,2.7l7.2,7.2v22.4h3.9v-11.6h1.9v11.6h3.9v-11.6h1.9
	L426.5,280z"/>
<polygon class="st0" points="411,285.8 383.9,285.8 383.9,266.5 412.9,266.5 412.9,262.6 380.1,262.6 380.1,289.7 411,289.7 "/>
<path class="st0" d="M429.6,296.1v3.9h11.6v-3.9c0-2.1-1.7-3.9-3.9-3.9h-3.9C431.3,292.3,429.6,294,429.6,296.1z"/>
<circle class="st0" cx="435.4" cy="286.5" r="3.9"/>
<path class="st0" d="M455.6,296.1v3.9h11.6v-3.9c0-2.1-1.7-3.9-3.9-3.9h-3.9C457.3,292.3,455.6,294,455.6,296.1z"/>
<circle class="st0" cx="461.4" cy="286.5" r="3.9"/>
<path class="st0" d="M494.6,296.1v3.9h11.6v-3.9c0-2.1-1.7-3.9-3.9-3.9h-3.9C496.3,292.3,494.6,294,494.6,296.1z"/>
<circle class="st0" cx="500.4" cy="286.5" r="3.9"/>
<path class="st0" d="M481.6,296.1v3.9h11.6v-3.9c0-2.1-1.7-3.9-3.9-3.9h-3.9C483.3,292.3,481.6,294,481.6,296.1z"/>
<circle class="st0" cx="487.4" cy="286.5" r="3.9"/>
<path class="st0" d="M473.2,270.8h-8.5c-0.8,0-1.5,0.7-1.5,1.5v5c0,0.8,0.7,1.5,1.5,1.5h0.5v2.6l2.9-2.6h5.1c0.8,0,1.5-0.7,1.5-1.5
	v-5C474.7,271.5,474,270.8,473.2,270.8z M473.7,277.3c0,0.3-0.2,0.5-0.5,0.5h-5.4l-1.6,1.4v-1.4h-1.5c-0.3,0-0.5-0.2-0.5-0.5v-5
	c0-0.3,0.2-0.5,0.5-0.5h8.5c0.3,0,0.5,0.2,0.5,0.5V277.3z"/>
<path class="st0" d="M433.2,254.3h-8.5c-0.8,0-1.5,0.7-1.5,1.5v5c0,0.8,0.7,1.5,1.5,1.5h0.5v2.6l2.9-2.6h5.1c0.8,0,1.5-0.7,1.5-1.5
	v-5C434.7,255,434,254.3,433.2,254.3z M433.7,260.8c0,0.3-0.2,0.5-0.5,0.5h-5.4l-1.6,1.4v-1.4h-1.5c-0.3,0-0.5-0.2-0.5-0.5v-5
	c0-0.3,0.2-0.5,0.5-0.5h8.5c0.3,0,0.5,0.2,0.5,0.5V260.8z"/>
<circle class="st0" cx="299.4" cy="108.4" r="3.9"/>
<path class="st0" d="M293.6,118.1c0-2.1,1.7-3.9,3.9-3.9h5l7.2-7.2l2.7,2.7l-7.2,7.2v22.4h-3.9v-11.6h-1.9v11.6h-3.9v-11.6h-1.9
	L293.6,118.1z"/>
<polygon class="st0" points="309.1,123.9 336.1,123.9 336.1,104.5 307.1,104.5 307.1,100.7 340,100.7 340,127.7 309.1,127.7 "/>
<path class="st0" d="M274.2,136.1v3.9h11.6v-3.9c0-2.1-1.7-3.9-3.9-3.9h-3.9C275.9,132.3,274.2,134,274.2,136.1z"/>
<circle class="st0" cx="280" cy="126.5" r="3.9"/>
<path class="st0" d="M248.2,136.1v3.9h11.6v-3.9c0-2.1-1.7-3.9-3.9-3.9h-3.9C249.9,132.3,248.2,134,248.2,136.1z"/>
<circle class="st0" cx="254" cy="126.5" r="3.9"/>
<path class="st0" d="M235.2,136.1v3.9h11.6v-3.9c0-2.1-1.7-3.9-3.9-3.9h-3.9C236.9,132.3,235.2,134,235.2,136.1z"/>
<circle class="st0" cx="241" cy="126.5" r="3.9"/>
<path class="st0" d="M270.2,112.3h-8.5c-0.8,0-1.5,0.7-1.5,1.5v5c0,0.8,0.7,1.5,1.5,1.5h0.5v2.6l2.9-2.6h5.1c0.8,0,1.5-0.7,1.5-1.5
	v-5C271.7,113,271,112.3,270.2,112.3z M270.7,118.8c0,0.3-0.2,0.5-0.5,0.5h-5.4l-1.6,1.4v-1.4h-1.5c-0.3,0-0.5-0.2-0.5-0.5v-5
	c0-0.3,0.2-0.5,0.5-0.5h8.5c0.3,0,0.5,0.2,0.5,0.5V118.8z"/>
<text transform="matrix(1 0 0 1 50 62.68)" class="st0 st5 st6">BUSYCORP</text>
<path class="st0" d="M341.1,350h-8.5c-0.8,0-1.5,0.7-1.5,1.5v5c0,0.8,0.7,1.5,1.5,1.5h0.5v2.6l2.9-2.6h5.1c0.8,0,1.5-0.7,1.5-1.5v-5
	C342.6,350.7,341.9,350,341.1,350z M341.6,356.5c0,0.3-0.2,0.5-0.5,0.5h-5.4l-1.6,1.4V357h-1.5c-0.3,0-0.5-0.2-0.5-0.5v-5
	c0-0.3,0.2-0.5,0.5-0.5h8.5c0.3,0,0.5,0.2,0.5,0.5V356.5z"/>
<path class="st0" d="M540,272.5v5c0,0.8,0.7,1.5,1.5,1.5h5.1l2.9,2.6V279h0.5c0.8,0,1.5-0.7,1.5-1.5v-5c0-0.8-0.7-1.5-1.5-1.5h-8.5
	C540.7,271,540,271.6,540,272.5z M541,272.5c0-0.3,0.2-0.5,0.5-0.5h8.5c0.3,0,0.5,0.2,0.5,0.5v5c0,0.3-0.2,0.5-0.5,0.5h-1.5v1.4
	l-1.6-1.4h-5.4c-0.3,0-0.5-0.2-0.5-0.5V272.5z"/>
<circle class="st0" cx="658.4" cy="399.9" r="3.8"/>
<path class="st0" d="M654.7,430h3.8v-11.3h1.9V430h3.8v-20.7h3.8v-3.8h-11.3c-2.1,0-3.8,1.7-3.8,3.8l0,0v9.4h1.9L654.7,430z"/>
<circle class="st0" cx="692.3" cy="399.9" r="3.8"/>
<path class="st0" d="M694.2,405.5h-11.3v3.8h3.8V430h3.8v-11.3h1.9V430h3.8v-11.3h1.9v-9.4C698,407.2,696.3,405.5,694.2,405.5
	L694.2,405.5z"/>
<circle class="st0" cx="675.4" cy="399.9" r="3.8"/>
<path class="st0" d="M669.7,409.3v7.5h1.9V430h7.5v-13.2h1.9v-7.5c0-2.1-1.7-3.8-3.8-3.8l0,0h-3.7
	C671.4,405.5,669.7,407.2,669.7,409.3L669.7,409.3z"/>
<rect x="684.5" y="401.2" class="st0" width="3" height="1"/>
<rect x="683.5" y="401.2" class="st7" width="1" height="1"/>
<rect x="668" y="398.6" class="st0" width="3" height="1"/>
<rect x="667" y="398.6" class="st7" width="1" height="1"/>
<rect x="663.3" y="401" transform="matrix(0.9104 -0.4137 0.4137 0.9104 -107.0497 310.6902)" class="st0" width="1" height="3"/>
<rect x="664.1" y="403.8" transform="matrix(0.9104 -0.4137 0.4137 0.9104 -107.7295 311.1941)" class="st7" width="1" height="1"/>
</svg>
