<svg id="Layer_1" data-name="Layer 1" xmlns="http://www.w3.org/2000/svg" viewBox="0 0 21.27 18.2"><defs><style>.cls-1{fill:#424242;}</style></defs><title>hamburger</title><path class="cls-1" d="M21.27,11.6A1.75,1.75,0,0,0,19.43,10H1.84A1.73,1.73,0,0,0,0,11.6a1.73,1.73,0,0,0,1.84,1.6H19.43a1.75,1.75,0,0,0,1.84-1.6"/><path class="cls-1" d="M21.27,16.6A1.75,1.75,0,0,0,19.43,15H1.84A1.73,1.73,0,0,0,0,16.6a1.73,1.73,0,0,0,1.84,1.6H19.43a1.75,1.75,0,0,0,1.84-1.6"/><path class="cls-1" d="M21.27,1.6A1.75,1.75,0,0,0,19.43,0H1.84A1.73,1.73,0,0,0,0,1.6,1.73,1.73,0,0,0,1.84,3.2H19.43a1.75,1.75,0,0,0,1.84-1.6"/><path class="cls-1" d="M21.27,6.6A1.75,1.75,0,0,0,19.43,5H1.84A1.73,1.73,0,0,0,0,6.6,1.73,1.73,0,0,0,1.84,8.2H19.43a1.75,1.75,0,0,0,1.84-1.6"/></svg>