<svg id="Layer_1" data-name="Layer 1" xmlns="http://www.w3.org/2000/svg" viewBox="0 0 1151.19 240.55"><defs><style>.cls-1{fill:#fcee18;}.cls-2{fill:#db6528;}.cls-3{fill:none;}.cls-4{fill:#434343;}</style></defs><title>master_under_construction</title><path class="cls-1" d="M1090.7,132.09h-27l-24.59,83.61H1028v9.84h98.36V215.7h-11.08Zm5.66,54.1H1058l4.34-14.75H1092Zm-13-44.26,4.34,14.75h-21l4.34-14.75Zm-34,73.77,4.34-14.75h47L1105,215.7Z"/><path class="cls-2" d="M113.47,129a12.32,12.32,0,1,0-16.42,11.56v.76H31.38v-.75a12.32,12.32,0,1,0-8.21,0v.76H15v36.95h8.21v36.95h8.21V178.29H97.05v36.95h8.21V178.29h8.21V141.34h-8.21v-.75A12.3,12.3,0,0,0,113.47,129Zm-12.32-4.11A4.11,4.11,0,1,1,97.05,129,4.11,4.11,0,0,1,101.16,124.92ZM78.23,149.55H95.35L74.82,170.08H57.7ZM46.09,170.08H29L49.5,149.55H66.62ZM27.27,124.92A4.11,4.11,0,1,1,23.17,129,4.11,4.11,0,0,1,27.27,124.92Zm10.62,24.63L23.17,164.27V149.55Zm48.55,20.53,18.83-18.83v18.83Z"/><rect class="cls-3" x="-0.59" y="8.52" width="1151.19" height="240.55"/><path class="cls-4" d="M154.09,64.76V40.66A6.71,6.71,0,0,1,155.48,36a4.66,4.66,0,0,1,3.64-1.54A4.78,4.78,0,0,1,162.86,36a6.71,6.71,0,0,1,1.38,4.61V65.31a22.47,22.47,0,0,0,.94,7,8.11,8.11,0,0,0,3.33,4.38,12.24,12.24,0,0,0,6.7,1.56q5.95,0,8.41-3.16t2.46-9.59V40.66A6.76,6.76,0,0,1,187.45,36a4.68,4.68,0,0,1,3.66-1.52A4.84,4.84,0,0,1,194.82,36a6.59,6.59,0,0,1,1.42,4.63v24.1a35.67,35.67,0,0,1-1.15,9.81,15.15,15.15,0,0,1-4.32,6.9,16.81,16.81,0,0,1-6.36,3.69,27.84,27.84,0,0,1-8.48,1.16A35,35,0,0,1,166,85.08a15.91,15.91,0,0,1-6.8-3.86,15.56,15.56,0,0,1-3.86-6.7A34.07,34.07,0,0,1,154.09,64.76Z"/><path class="cls-4" d="M220.44,40.59,240,70.13V40.32A6.54,6.54,0,0,1,241.2,36a4.21,4.21,0,0,1,3.37-1.45A4.34,4.34,0,0,1,248,36a6.48,6.48,0,0,1,1.27,4.36V79.73q0,6.6-5.47,6.6a7.24,7.24,0,0,1-2.46-.39,6.22,6.22,0,0,1-2.05-1.25,12.1,12.1,0,0,1-1.78-2q-.82-1.14-1.64-2.34l-19-29.19V80.52a6.26,6.26,0,0,1-1.33,4.34,4.41,4.41,0,0,1-3.42,1.47,4.36,4.36,0,0,1-3.45-1.49,6.39,6.39,0,0,1-1.3-4.32V41.86a11,11,0,0,1,.55-3.86A5.51,5.51,0,0,1,210,35.48a5.86,5.86,0,0,1,3.25-1,5.32,5.32,0,0,1,4.05,1.64,12.35,12.35,0,0,1,1.5,1.95Z"/><path class="cls-4" d="M266.68,35.37h13.23a35.68,35.68,0,0,1,8.85,1,16.28,16.28,0,0,1,6.7,3.59q7.83,6.7,7.83,20.37a39.94,39.94,0,0,1-.79,8.24,24.29,24.29,0,0,1-2.43,6.72,20.87,20.87,0,0,1-4.21,5.35,17.38,17.38,0,0,1-4.41,2.91A20,20,0,0,1,286.32,85a39.14,39.14,0,0,1-6.2.44H266.88a8.28,8.28,0,0,1-4.17-.84,3.9,3.9,0,0,1-1.83-2.36,15,15,0,0,1-.43-3.95V41.59q0-3.28,1.47-4.75T266.68,35.37Zm3.93,8v34h7.69q2.53,0,4-.14a12.37,12.37,0,0,0,3-.68A8.09,8.09,0,0,0,287.91,75Q293,70.74,293,60.21q0-7.42-2.24-11.11a10,10,0,0,0-5.52-4.7,27.25,27.25,0,0,0-7.93-1Z"/><path class="cls-4" d="M345.22,43.19H322.36V55.5h21.05a5,5,0,0,1,3.47,1A3.54,3.54,0,0,1,348,59.29a3.68,3.68,0,0,1-1.13,2.79,4.9,4.9,0,0,1-3.49,1.08H322.36V77.41H346a5.18,5.18,0,0,1,3.61,1.11,3.82,3.82,0,0,1,1.21,3,3.73,3.73,0,0,1-1.21,2.89A5.18,5.18,0,0,1,346,85.47H318.43q-3.31,0-4.77-1.47t-1.45-4.75V41.59a8.44,8.44,0,0,1,.65-3.57,4,4,0,0,1,2-2,8.55,8.55,0,0,1,3.54-.63h26.8a5.21,5.21,0,0,1,3.61,1.08A3.64,3.64,0,0,1,350,39.26a3.68,3.68,0,0,1-1.18,2.85A5.21,5.21,0,0,1,345.22,43.19Z"/><path class="cls-4" d="M372.54,64H369v16.1a6.69,6.69,0,0,1-1.4,4.68,4.77,4.77,0,0,1-3.66,1.5,4.66,4.66,0,0,1-3.76-1.57,7,7,0,0,1-1.33-4.61V41.59q0-3.28,1.47-4.75T365,35.37h16.51a50.21,50.21,0,0,1,5.84.29,14.7,14.7,0,0,1,4.38,1.18,12.67,12.67,0,0,1,4.17,2.84A12.43,12.43,0,0,1,398.7,44a14.29,14.29,0,0,1,.94,5.18,12.51,12.51,0,0,1-3.16,9q-3.16,3.35-9.59,4.75a18.58,18.58,0,0,1,5.16,4.24,43,43,0,0,1,4.39,6,44.26,44.26,0,0,1,3,5.71,11.27,11.27,0,0,1,1.08,3.5,3.58,3.58,0,0,1-.63,2,4.44,4.44,0,0,1-1.73,1.54,5.45,5.45,0,0,1-2.53.56,4.93,4.93,0,0,1-2.87-.8,7.71,7.71,0,0,1-2-2q-.84-1.23-2.27-3.62l-4.07-6.77a37.32,37.32,0,0,0-3.91-5.67,9.65,9.65,0,0,0-3.5-2.67A12,12,0,0,0,372.54,64ZM378.35,43H369V56.76h9.09a25.46,25.46,0,0,0,6.15-.63A7.22,7.22,0,0,0,388,54a6.19,6.19,0,0,0,1.32-4.19,6.47,6.47,0,0,0-1.06-3.67,6.4,6.4,0,0,0-2.94-2.38Q383.57,43,378.35,43Z"/><path class="cls-4" d="M469.43,69.65a13.36,13.36,0,0,1-1.18,5.18,18.68,18.68,0,0,1-3.71,5.47,18.92,18.92,0,0,1-6.46,4.36,23.23,23.23,0,0,1-9.16,1.67,32,32,0,0,1-7.21-.75,20.23,20.23,0,0,1-5.9-2.34A19.9,19.9,0,0,1,430.95,79a24.87,24.87,0,0,1-3.38-5.28,27.45,27.45,0,0,1-2.1-6.24,34,34,0,0,1-.7-7,31.23,31.23,0,0,1,1.76-10.83,23.12,23.12,0,0,1,5-8.19,22,22,0,0,1,7.69-5.18,24.91,24.91,0,0,1,9.4-1.78,23.49,23.49,0,0,1,10.84,2.43,19.62,19.62,0,0,1,7.28,6,11.84,11.84,0,0,1,2.53,6.75,4.4,4.4,0,0,1-1.23,3.08,3.9,3.9,0,0,1-3,1.33,4.11,4.11,0,0,1-2.92-.92A12.79,12.79,0,0,1,460,50a15.29,15.29,0,0,0-4.67-5.57,11.39,11.39,0,0,0-6.61-1.85,12,12,0,0,0-10,4.75Q435,52.08,435,60.83a25.07,25.07,0,0,0,1.64,9.72,12.28,12.28,0,0,0,4.65,5.79,12.83,12.83,0,0,0,7,1.91,12.36,12.36,0,0,0,7.4-2.17,13.11,13.11,0,0,0,4.56-6.37,10.82,10.82,0,0,1,1.61-3.23A3.63,3.63,0,0,1,465,65.24a4.3,4.3,0,0,1,3.11,1.26A4.21,4.21,0,0,1,469.43,69.65Z"/><path class="cls-4" d="M500.61,34.51A26.76,26.76,0,0,1,514,37.67a20.5,20.5,0,0,1,8.46,9,30.64,30.64,0,0,1,2.87,13.69,33.52,33.52,0,0,1-1.57,10.56A22.87,22.87,0,0,1,519,79.15a20.62,20.62,0,0,1-7.72,5.33,30.45,30.45,0,0,1-21-.05,20.87,20.87,0,0,1-7.76-5.35,22.84,22.84,0,0,1-4.7-8.31,33.53,33.53,0,0,1-1.59-10.49,32.39,32.39,0,0,1,1.66-10.6,22.73,22.73,0,0,1,4.8-8.2,20.77,20.77,0,0,1,7.66-5.18A27.57,27.57,0,0,1,500.61,34.51ZM515,60.28a23.5,23.5,0,0,0-1.78-9.54,13.27,13.27,0,0,0-5.08-6.1,14,14,0,0,0-7.57-2.07A13.71,13.71,0,0,0,495,43.72a12.35,12.35,0,0,0-4.44,3.33,15.92,15.92,0,0,0-2.94,5.59,25.26,25.26,0,0,0-1.08,7.64A25.88,25.88,0,0,0,487.6,68a15.83,15.83,0,0,0,3,5.73,12.78,12.78,0,0,0,4.51,3.4,14.25,14.25,0,0,0,12.75-.82,13.47,13.47,0,0,0,5.2-6A23.26,23.26,0,0,0,515,60.28Z"/><path class="cls-4" d="M547.23,40.59l19.52,29.53V40.32A6.54,6.54,0,0,1,568,36a4.21,4.21,0,0,1,3.37-1.45A4.34,4.34,0,0,1,574.81,36a6.49,6.49,0,0,1,1.26,4.36V79.73q0,6.6-5.47,6.6a7.25,7.25,0,0,1-2.46-.39,6.26,6.26,0,0,1-2.05-1.25,12.14,12.14,0,0,1-1.78-2q-.82-1.14-1.64-2.34l-19-29.19V80.52a6.26,6.26,0,0,1-1.33,4.34,4.41,4.41,0,0,1-3.42,1.47,4.35,4.35,0,0,1-3.45-1.49,6.38,6.38,0,0,1-1.3-4.32V41.86a10.93,10.93,0,0,1,.55-3.86,5.51,5.51,0,0,1,2.15-2.51,5.86,5.86,0,0,1,3.25-1,5.32,5.32,0,0,1,4,1.64,12.4,12.4,0,0,1,1.5,1.95Z"/><path class="cls-4" d="M625.26,70.43a14.73,14.73,0,0,1-2.34,8.17,15.55,15.55,0,0,1-6.85,5.67,25.68,25.68,0,0,1-10.7,2.05q-7.42,0-12.24-2.8a16.29,16.29,0,0,1-5.55-5.38,12.22,12.22,0,0,1-2.14-6.55A4.44,4.44,0,0,1,590,67.12a3.86,3.86,0,0,1,2.72,1,8.06,8.06,0,0,1,1.9,3,20.37,20.37,0,0,0,2.07,4,8.38,8.38,0,0,0,3.13,2.65,11.56,11.56,0,0,0,5.3,1,12,12,0,0,0,7.33-2.1,6.32,6.32,0,0,0,2.82-5.25,5.55,5.55,0,0,0-1.52-4.05,9.81,9.81,0,0,0-3.93-2.38q-2.41-.82-6.44-1.74a47.25,47.25,0,0,1-9-3,14.61,14.61,0,0,1-5.78-4.61,12,12,0,0,1-2.14-7.26,12.47,12.47,0,0,1,2.26-7.35,14.22,14.22,0,0,1,6.53-4.94,26.73,26.73,0,0,1,10-1.73,24.86,24.86,0,0,1,8,1.15,16.87,16.87,0,0,1,5.59,3,12.71,12.71,0,0,1,3.25,4,9.18,9.18,0,0,1,1,4.07A4.81,4.81,0,0,1,621.79,50a4.09,4.09,0,0,1-3.2,1.45,3.67,3.67,0,0,1-2.65-.87,11.71,11.71,0,0,1-2-2.85,13,13,0,0,0-3.28-4.43q-1.92-1.59-6.15-1.59a10.66,10.66,0,0,0-6.34,1.73,5,5,0,0,0-2.41,4.15,4.21,4.21,0,0,0,.82,2.6,6.9,6.9,0,0,0,2.26,1.88,15.17,15.17,0,0,0,2.9,1.23q1.47.44,4.85,1.3a76.25,76.25,0,0,1,7.67,2.19,23.33,23.33,0,0,1,5.84,2.91A12,12,0,0,1,623.91,64,13.86,13.86,0,0,1,625.26,70.43Z"/><path class="cls-4" d="M666.41,43.74H655.34v36.4a6.7,6.7,0,0,1-1.4,4.67,4.7,4.7,0,0,1-3.62,1.52,4.77,4.77,0,0,1-3.67-1.54,6.66,6.66,0,0,1-1.42-4.65V43.74H634.15a5.61,5.61,0,0,1-3.86-1.15,3.88,3.88,0,0,1-1.26-3,3.84,3.84,0,0,1,1.32-3.08,5.7,5.7,0,0,1,3.81-1.13h32.27a5.68,5.68,0,0,1,3.91,1.16,3.92,3.92,0,0,1,1.28,3,3.84,3.84,0,0,1-1.3,3A5.75,5.75,0,0,1,666.41,43.74Z"/><path class="cls-4" d="M691.26,64h-3.55v16.1a6.69,6.69,0,0,1-1.4,4.68,4.77,4.77,0,0,1-3.66,1.5,4.66,4.66,0,0,1-3.76-1.57,7,7,0,0,1-1.33-4.61V41.59q0-3.28,1.47-4.75t4.75-1.47h16.51a50.24,50.24,0,0,1,5.85.29,14.71,14.71,0,0,1,4.38,1.18,12.69,12.69,0,0,1,4.17,2.84A12.47,12.47,0,0,1,717.43,44a14.33,14.33,0,0,1,.94,5.18,12.51,12.51,0,0,1-3.16,9q-3.16,3.35-9.59,4.75a18.56,18.56,0,0,1,5.16,4.24,43.15,43.15,0,0,1,4.39,6,44.63,44.63,0,0,1,3,5.71,11.3,11.3,0,0,1,1.08,3.5,3.58,3.58,0,0,1-.63,2,4.44,4.44,0,0,1-1.73,1.54,5.44,5.44,0,0,1-2.53.56,4.93,4.93,0,0,1-2.87-.8,7.68,7.68,0,0,1-2-2q-.84-1.23-2.27-3.62l-4.07-6.77a37.47,37.47,0,0,0-3.91-5.67,9.68,9.68,0,0,0-3.5-2.67A12,12,0,0,0,691.26,64ZM697.07,43h-9.37V56.76h9.09a25.46,25.46,0,0,0,6.15-.63A7.22,7.22,0,0,0,706.76,54a6.2,6.2,0,0,0,1.31-4.19,6.32,6.32,0,0,0-4-6Q702.3,43,697.07,43Z"/><path class="cls-4" d="M726.3,64.76V40.66A6.7,6.7,0,0,1,727.68,36a4.66,4.66,0,0,1,3.64-1.54A4.79,4.79,0,0,1,735.06,36a6.71,6.71,0,0,1,1.38,4.61V65.31a22.41,22.41,0,0,0,.94,7,8.1,8.1,0,0,0,3.33,4.38,12.24,12.24,0,0,0,6.7,1.56q5.95,0,8.41-3.16t2.46-9.59V40.66A6.75,6.75,0,0,1,759.65,36a4.67,4.67,0,0,1,3.66-1.52A4.84,4.84,0,0,1,767,36a6.59,6.59,0,0,1,1.42,4.63v24.1a35.64,35.64,0,0,1-1.14,9.81,15.15,15.15,0,0,1-4.32,6.9,16.78,16.78,0,0,1-6.36,3.69,27.83,27.83,0,0,1-8.48,1.16,34.94,34.94,0,0,1-9.95-1.25,15.91,15.91,0,0,1-6.8-3.86,15.57,15.57,0,0,1-3.86-6.7A34.07,34.07,0,0,1,726.3,64.76Z"/><path class="cls-4" d="M822.1,69.65a13.37,13.37,0,0,1-1.18,5.18,18.71,18.71,0,0,1-3.71,5.47,18.92,18.92,0,0,1-6.46,4.36,23.23,23.23,0,0,1-9.16,1.67,32,32,0,0,1-7.21-.75,20.23,20.23,0,0,1-5.9-2.34A19.88,19.88,0,0,1,783.61,79a24.83,24.83,0,0,1-3.38-5.28,27.36,27.36,0,0,1-2.1-6.24,33.89,33.89,0,0,1-.7-7,31.23,31.23,0,0,1,1.76-10.83,23.12,23.12,0,0,1,5-8.19,22,22,0,0,1,7.69-5.18,24.91,24.91,0,0,1,9.4-1.78,23.49,23.49,0,0,1,10.84,2.43,19.62,19.62,0,0,1,7.28,6A11.85,11.85,0,0,1,822,49.69a4.4,4.4,0,0,1-1.23,3.08,3.9,3.9,0,0,1-3,1.33,4.1,4.1,0,0,1-2.92-.92A12.73,12.73,0,0,1,812.67,50,15.31,15.31,0,0,0,808,44.42a11.4,11.4,0,0,0-6.62-1.85,12,12,0,0,0-10,4.75q-3.71,4.75-3.71,13.5a25.07,25.07,0,0,0,1.64,9.72A12.27,12.27,0,0,0,794,76.35a12.83,12.83,0,0,0,7,1.91,12.36,12.36,0,0,0,7.4-2.17A13.1,13.1,0,0,0,813,69.72a10.82,10.82,0,0,1,1.61-3.23,3.63,3.63,0,0,1,3.08-1.25,4.3,4.3,0,0,1,3.11,1.26A4.21,4.21,0,0,1,822.1,69.65Z"/><path class="cls-4" d="M863.77,43.74H852.69v36.4a6.7,6.7,0,0,1-1.4,4.67,4.7,4.7,0,0,1-3.62,1.52A4.77,4.77,0,0,1,844,84.79a6.66,6.66,0,0,1-1.42-4.65V43.74H831.5a5.61,5.61,0,0,1-3.86-1.15,3.88,3.88,0,0,1-1.26-3,3.84,3.84,0,0,1,1.32-3.08,5.69,5.69,0,0,1,3.81-1.13h32.27a5.68,5.68,0,0,1,3.91,1.16,3.92,3.92,0,0,1,1.28,3,3.84,3.84,0,0,1-1.3,3A5.75,5.75,0,0,1,863.77,43.74Z"/><path class="cls-4" d="M875.39,80.14V40.66a6.66,6.66,0,0,1,1.4-4.61,4.68,4.68,0,0,1,3.62-1.54A4.84,4.84,0,0,1,884.12,36a6.59,6.59,0,0,1,1.42,4.63V80.14a6.66,6.66,0,0,1-1.42,4.65,4.81,4.81,0,0,1-3.71,1.54,4.66,4.66,0,0,1-3.61-1.56A6.67,6.67,0,0,1,875.39,80.14Z"/><path class="cls-4" d="M918.93,34.51a26.76,26.76,0,0,1,13.38,3.16,20.5,20.5,0,0,1,8.46,9,30.64,30.64,0,0,1,2.87,13.69,33.46,33.46,0,0,1-1.57,10.56,22.87,22.87,0,0,1-4.72,8.24,20.61,20.61,0,0,1-7.72,5.33,30.45,30.45,0,0,1-21-.05,20.88,20.88,0,0,1-7.76-5.35,22.82,22.82,0,0,1-4.7-8.31,33.5,33.5,0,0,1-1.59-10.49,32.39,32.39,0,0,1,1.66-10.6,22.72,22.72,0,0,1,4.8-8.2,20.76,20.76,0,0,1,7.66-5.18A27.57,27.57,0,0,1,918.93,34.51Zm14.42,25.77a23.53,23.53,0,0,0-1.78-9.54,13.28,13.28,0,0,0-5.08-6.1,14,14,0,0,0-7.57-2.07,13.71,13.71,0,0,0-5.62,1.15,12.36,12.36,0,0,0-4.44,3.33,15.9,15.9,0,0,0-2.94,5.59,25.23,25.23,0,0,0-1.08,7.64A25.85,25.85,0,0,0,905.93,68a15.81,15.81,0,0,0,3,5.73,12.78,12.78,0,0,0,4.51,3.4,14.25,14.25,0,0,0,12.75-.82,13.47,13.47,0,0,0,5.2-6A23.26,23.26,0,0,0,933.36,60.28Z"/><path class="cls-4" d="M965.55,40.59l19.52,29.53V40.32A6.54,6.54,0,0,1,986.32,36a4.21,4.21,0,0,1,3.37-1.45A4.34,4.34,0,0,1,993.13,36a6.48,6.48,0,0,1,1.27,4.36V79.73q0,6.6-5.47,6.6a7.24,7.24,0,0,1-2.46-.39,6.22,6.22,0,0,1-2.05-1.25,12.1,12.1,0,0,1-1.78-2q-.82-1.14-1.64-2.34L962,51.16V80.52a6.26,6.26,0,0,1-1.33,4.34,4.41,4.41,0,0,1-3.42,1.47,4.36,4.36,0,0,1-3.45-1.49,6.39,6.39,0,0,1-1.3-4.32V41.86A10.93,10.93,0,0,1,953,38a5.51,5.51,0,0,1,2.15-2.51,5.86,5.86,0,0,1,3.25-1,5.32,5.32,0,0,1,4.05,1.64A12.4,12.4,0,0,1,964,38.1Z"/><path class="cls-4" d="M147,118.6h-5.54v18.2a3.35,3.35,0,0,1-.7,2.33,2.36,2.36,0,0,1-1.81.76,2.38,2.38,0,0,1-1.84-.77,3.33,3.33,0,0,1-.71-2.32V118.6h-5.54A2.8,2.8,0,0,1,129,118a1.94,1.94,0,0,1-.63-1.51A1.92,1.92,0,0,1,129,115a2.85,2.85,0,0,1,1.91-.56H147a2.84,2.84,0,0,1,2,.58,2,2,0,0,1,.64,1.52A1.92,1.92,0,0,1,149,118,2.87,2.87,0,0,1,147,118.6Z"/><path class="cls-4" d="M156.4,116.82v6.92a10,10,0,0,1,1.73-1.62,6.26,6.26,0,0,1,1.87-.9,7.85,7.85,0,0,1,2.2-.3,6.48,6.48,0,0,1,3.15.75,5.84,5.84,0,0,1,2.83,4.06,14.84,14.84,0,0,1,.17,2.38v8.94a3.09,3.09,0,0,1-.64,2.12,2.17,2.17,0,0,1-1.7.72q-2.31,0-2.31-2.84v-7.88a7.22,7.22,0,0,0-.67-3.44,2.63,2.63,0,0,0-2.53-1.21,3.8,3.8,0,0,0-2.25.71,4.27,4.27,0,0,0-1.49,1.94,12.36,12.36,0,0,0-.38,3.71v6.17a3.15,3.15,0,0,1-.62,2.11,2.17,2.17,0,0,1-1.73.73q-2.31,0-2.31-2.84V116.82a3.2,3.2,0,0,1,.61-2.13A2.12,2.12,0,0,1,154,114a2.18,2.18,0,0,1,1.73.72A3.15,3.15,0,0,1,156.4,116.82Z"/><path class="cls-4" d="M175.33,118.75a2.46,2.46,0,0,1-1.67-.6,2.32,2.32,0,0,1,0-3.32,2.38,2.38,0,0,1,1.65-.64,2.45,2.45,0,0,1,1.61.58,2.07,2.07,0,0,1,.7,1.69,2.13,2.13,0,0,1-.68,1.68A2.37,2.37,0,0,1,175.33,118.75Zm2.31,4.82v13.48a3,3,0,0,1-.67,2.12,2.21,2.21,0,0,1-1.69.72,2.11,2.11,0,0,1-1.67-.73,3.1,3.1,0,0,1-.64-2.1V123.71a3,3,0,0,1,.64-2.08,2.15,2.15,0,0,1,1.67-.7,2.23,2.23,0,0,1,1.69.7A2.71,2.71,0,0,1,177.64,123.57Z"/><path class="cls-4" d="M197.48,133.79a5.41,5.41,0,0,1-3.72,5.39,12.45,12.45,0,0,1-4.47.71,10.9,10.9,0,0,1-4.31-.77,6.26,6.26,0,0,1-2.65-1.92,3.87,3.87,0,0,1-.86-2.32,1.8,1.8,0,0,1,.55-1.32,1.88,1.88,0,0,1,1.38-.55,1.62,1.62,0,0,1,1.13.36,3.94,3.94,0,0,1,.75,1,5.11,5.11,0,0,0,1.72,1.86,5.18,5.18,0,0,0,2.73.62,3.93,3.93,0,0,0,2.3-.62,1.75,1.75,0,0,0,.9-1.43A1.94,1.94,0,0,0,192,133a11.54,11.54,0,0,0-3.07-1.08,25.43,25.43,0,0,1-3.92-1.26A6.46,6.46,0,0,1,182.6,129a4,4,0,0,1-.91-2.65,4.67,4.67,0,0,1,.84-2.65,5.74,5.74,0,0,1,2.47-2,9.45,9.45,0,0,1,3.94-.74,13,13,0,0,1,3.26.38,8.14,8.14,0,0,1,2.41,1,5,5,0,0,1,1.47,1.4,2.74,2.74,0,0,1,.5,1.5,1.73,1.73,0,0,1-.54,1.32,2.13,2.13,0,0,1-1.53.51,1.88,1.88,0,0,1-1.22-.41,8,8,0,0,1-1.15-1.23,4.22,4.22,0,0,0-1.25-1.09,3.94,3.94,0,0,0-1.95-.41,3.81,3.81,0,0,0-2.1.54,1.57,1.57,0,0,0-.84,1.34,1.45,1.45,0,0,0,.62,1.2,5.09,5.09,0,0,0,1.66.78q1,.31,2.87.75a15.37,15.37,0,0,1,3.55,1.26,5.9,5.9,0,0,1,2.08,1.73A3.84,3.84,0,0,1,197.48,133.79Z"/><path class="cls-4" d="M214.49,123.54v.56a9.21,9.21,0,0,1,2.73-2.38,6.7,6.7,0,0,1,3.21-.76,7.44,7.44,0,0,1,4,1.11,7.66,7.66,0,0,1,2.86,3.25,11.34,11.34,0,0,1,1.05,5.06,12.37,12.37,0,0,1-.61,4,8.89,8.89,0,0,1-1.67,3,7.27,7.27,0,0,1-2.5,1.88,7.41,7.41,0,0,1-3.1.66,6.5,6.5,0,0,1-3.36-.8,9.58,9.58,0,0,1-2.59-2.36v7q0,3.08-2.24,3.08a1.79,1.79,0,0,1-1.74-.79,5,5,0,0,1-.43-2.32V123.57a2.94,2.94,0,0,1,.58-2,2,2,0,0,1,1.59-.66,2.1,2.1,0,0,1,1.62.68A2.76,2.76,0,0,1,214.49,123.54Zm9.14,6.78a8.07,8.07,0,0,0-.56-3.17,4.64,4.64,0,0,0-1.56-2,3.74,3.74,0,0,0-2.21-.71,4.15,4.15,0,0,0-3.26,1.52,6.64,6.64,0,0,0-1.32,4.48,6.49,6.49,0,0,0,1.32,4.33,4.11,4.11,0,0,0,3.26,1.55,3.75,3.75,0,0,0,2.15-.67,4.65,4.65,0,0,0,1.59-2A8,8,0,0,0,223.63,130.32Z"/><path class="cls-4" d="M243.85,137.26a14.42,14.42,0,0,1-3.27,2,9.15,9.15,0,0,1-3.54.66,6.72,6.72,0,0,1-3.15-.71,5.19,5.19,0,0,1-2.09-1.92,5,5,0,0,1-.74-2.63,4.71,4.71,0,0,1,1.21-3.26,6.06,6.06,0,0,1,3.33-1.81l2.2-.46q1.76-.36,3-.66t2.73-.73a4.88,4.88,0,0,0-.74-2.71q-.66-.86-2.73-.86a5.68,5.68,0,0,0-2.67.5,4.36,4.36,0,0,0-1.54,1.49,15.61,15.61,0,0,1-.9,1.31,1.49,1.49,0,0,1-1.14.32,2,2,0,0,1-1.36-.5,1.64,1.64,0,0,1-.57-1.29,4,4,0,0,1,.87-2.39,6.24,6.24,0,0,1,2.72-1.91,12.25,12.25,0,0,1,4.6-.75,13,13,0,0,1,4.84.73,4.51,4.51,0,0,1,2.49,2.3,10.07,10.07,0,0,1,.73,4.17q0,1.64,0,2.79t0,2.55a9.36,9.36,0,0,0,.44,2.74A8.62,8.62,0,0,1,249,138a1.72,1.72,0,0,1-.67,1.31,2.27,2.27,0,0,1-1.53.59,2.06,2.06,0,0,1-1.42-.68A10,10,0,0,1,243.85,137.26Zm-.31-6.75a23.48,23.48,0,0,1-3,.79q-2,.42-2.71.62a3.68,3.68,0,0,0-1.44.77,2,2,0,0,0-.68,1.6,2.37,2.37,0,0,0,.8,1.8,3,3,0,0,0,2.1.74,5.46,5.46,0,0,0,2.55-.61,4,4,0,0,0,1.72-1.56,7.15,7.15,0,0,0,.63-3.49Z"/><path class="cls-4" d="M269.55,124.34v13.55a14.21,14.21,0,0,1-.5,4,6.4,6.4,0,0,1-1.59,2.77,6.67,6.67,0,0,1-2.86,1.62,15.58,15.58,0,0,1-4.4.53,12.8,12.8,0,0,1-4.31-.67A7.45,7.45,0,0,1,253,144.4a3.18,3.18,0,0,1-1-2.2,1.81,1.81,0,0,1,.58-1.39,2,2,0,0,1,1.4-.54,2.29,2.29,0,0,1,1.79.91l.78.93a4.54,4.54,0,0,0,.89.8,3.49,3.49,0,0,0,1.17.5,6.85,6.85,0,0,0,1.57.16,6.37,6.37,0,0,0,2.81-.5,2.89,2.89,0,0,0,1.4-1.41,5.68,5.68,0,0,0,.47-1.94q.07-1,.1-3.32a7.67,7.67,0,0,1-2.49,2.29,6.8,6.8,0,0,1-3.36.79,7.07,7.07,0,0,1-4.09-1.2,7.63,7.63,0,0,1-2.69-3.35,12.33,12.33,0,0,1-.94-5,11.82,11.82,0,0,1,.57-3.79,8,8,0,0,1,1.63-2.85,7,7,0,0,1,2.44-1.75,7.7,7.7,0,0,1,3-.59,7.32,7.32,0,0,1,3.43.76,8.38,8.38,0,0,1,2.7,2.38v-.63a2.72,2.72,0,0,1,.6-1.88,2,2,0,0,1,1.54-.67,1.81,1.81,0,0,1,1.79.88A5.78,5.78,0,0,1,269.55,124.34ZM256,130.25a6.45,6.45,0,0,0,1.24,4.29,4,4,0,0,0,3.21,1.45,4.18,4.18,0,0,0,2.2-.62,4.58,4.58,0,0,0,1.68-1.88,6.58,6.58,0,0,0,.65-3.05,7,7,0,0,0-1.26-4.44,4,4,0,0,0-3.31-1.59,3.88,3.88,0,0,0-3.2,1.52A6.81,6.81,0,0,0,256,130.25Z"/><path class="cls-4" d="M286.42,131.55h-9.12a6.18,6.18,0,0,0,.64,2.8,4.29,4.29,0,0,0,3.94,2.44,5.6,5.6,0,0,0,1.53-.2,5,5,0,0,0,1.34-.62,10.29,10.29,0,0,0,1.2-.9q.55-.48,1.42-1.3a1.53,1.53,0,0,1,1-.31,1.69,1.69,0,0,1,1.16.39A1.41,1.41,0,0,1,290,135a3,3,0,0,1-.5,1.48,5.85,5.85,0,0,1-1.5,1.62,8.5,8.5,0,0,1-2.51,1.29,10.82,10.82,0,0,1-3.48.51,9.3,9.3,0,0,1-7-2.56,9.54,9.54,0,0,1-2.5-7,11.61,11.61,0,0,1,.62-3.84,8.48,8.48,0,0,1,1.79-3,7.79,7.79,0,0,1,2.91-1.94,10.42,10.42,0,0,1,3.83-.68,9.07,9.07,0,0,1,4.69,1.15,7.58,7.58,0,0,1,2.93,3,7.83,7.83,0,0,1,1,3.73q0,1.76-1,2.28A6.29,6.29,0,0,1,286.42,131.55Zm-9.12-2.65h8.46a5.68,5.68,0,0,0-1.29-3.58,3.86,3.86,0,0,0-2.95-1.19,3.73,3.73,0,0,0-2.86,1.2A6,6,0,0,0,277.29,128.9Z"/><path class="cls-4" d="M305.3,118.75a2.46,2.46,0,0,1-1.67-.6,2.32,2.32,0,0,1,0-3.32,2.38,2.38,0,0,1,1.65-.64,2.45,2.45,0,0,1,1.61.58,2.07,2.07,0,0,1,.7,1.69,2.13,2.13,0,0,1-.68,1.68A2.36,2.36,0,0,1,305.3,118.75Zm2.31,4.82v13.48a3,3,0,0,1-.67,2.12,2.21,2.21,0,0,1-1.69.72,2.1,2.1,0,0,1-1.67-.73,3.1,3.1,0,0,1-.64-2.1V123.71a3,3,0,0,1,.64-2.08,2.15,2.15,0,0,1,1.67-.7,2.23,2.23,0,0,1,1.69.7A2.71,2.71,0,0,1,307.61,123.57Z"/><path class="cls-4" d="M327.45,133.79a5.41,5.41,0,0,1-3.72,5.39,12.45,12.45,0,0,1-4.47.71,10.89,10.89,0,0,1-4.31-.77,6.26,6.26,0,0,1-2.65-1.92,3.87,3.87,0,0,1-.85-2.32,1.79,1.79,0,0,1,.55-1.32,1.88,1.88,0,0,1,1.38-.55,1.61,1.61,0,0,1,1.13.36,3.92,3.92,0,0,1,.75,1,5.11,5.11,0,0,0,1.72,1.86,5.18,5.18,0,0,0,2.73.62,3.93,3.93,0,0,0,2.3-.62,1.75,1.75,0,0,0,.9-1.43A1.94,1.94,0,0,0,322,133a11.53,11.53,0,0,0-3.07-1.08,25.39,25.39,0,0,1-3.92-1.26,6.45,6.45,0,0,1-2.42-1.73,4,4,0,0,1-.91-2.65,4.67,4.67,0,0,1,.84-2.65,5.74,5.74,0,0,1,2.47-2,9.45,9.45,0,0,1,3.94-.74,13,13,0,0,1,3.26.38,8.12,8.12,0,0,1,2.41,1,5,5,0,0,1,1.47,1.4,2.74,2.74,0,0,1,.5,1.5,1.73,1.73,0,0,1-.54,1.32,2.13,2.13,0,0,1-1.53.51,1.87,1.87,0,0,1-1.22-.41,8.1,8.1,0,0,1-1.15-1.23,4.22,4.22,0,0,0-1.25-1.09,3.93,3.93,0,0,0-1.95-.41,3.81,3.81,0,0,0-2.1.54,1.57,1.57,0,0,0-.84,1.34,1.45,1.45,0,0,0,.62,1.2,5.09,5.09,0,0,0,1.66.78q1,.31,2.87.75a15.37,15.37,0,0,1,3.55,1.26,5.89,5.89,0,0,1,2.08,1.73A3.84,3.84,0,0,1,327.45,133.79Z"/><path class="cls-4" d="M351.94,137.26a14.47,14.47,0,0,1-3.27,2,9.16,9.16,0,0,1-3.55.66,6.72,6.72,0,0,1-3.15-.71,5.19,5.19,0,0,1-2.09-1.92,5,5,0,0,1-.73-2.63,4.71,4.71,0,0,1,1.21-3.26,6.07,6.07,0,0,1,3.33-1.81l2.2-.46q1.76-.36,3-.66t2.73-.73a4.87,4.87,0,0,0-.74-2.71q-.66-.86-2.73-.86a5.68,5.68,0,0,0-2.67.5,4.35,4.35,0,0,0-1.54,1.49,15.54,15.54,0,0,1-.91,1.31,1.48,1.48,0,0,1-1.14.32,2,2,0,0,1-1.36-.5,1.64,1.64,0,0,1-.57-1.29,4,4,0,0,1,.87-2.39,6.23,6.23,0,0,1,2.72-1.91,12.25,12.25,0,0,1,4.6-.75,13,13,0,0,1,4.84.73,4.5,4.5,0,0,1,2.49,2.3,10.07,10.07,0,0,1,.73,4.17q0,1.64,0,2.79t0,2.55a9.36,9.36,0,0,0,.44,2.74,8.68,8.68,0,0,1,.44,1.84,1.72,1.72,0,0,1-.67,1.31,2.27,2.27,0,0,1-1.53.59,2.06,2.06,0,0,1-1.42-.68A10,10,0,0,1,351.94,137.26Zm-.31-6.75a23.48,23.48,0,0,1-3,.79q-2,.42-2.71.62a3.69,3.69,0,0,0-1.44.77,2,2,0,0,0-.68,1.6,2.37,2.37,0,0,0,.8,1.8,3,3,0,0,0,2.1.74,5.47,5.47,0,0,0,2.55-.61,4,4,0,0,0,1.72-1.56,7.15,7.15,0,0,0,.63-3.49Z"/><path class="cls-4" d="M374,123.54v.56a9.23,9.23,0,0,1,2.73-2.38A6.7,6.7,0,0,1,380,121a7.44,7.44,0,0,1,4,1.11,7.66,7.66,0,0,1,2.86,3.25,11.36,11.36,0,0,1,1.05,5.06,12.34,12.34,0,0,1-.61,4,8.87,8.87,0,0,1-1.67,3,7.28,7.28,0,0,1-2.5,1.88,7.4,7.4,0,0,1-3.1.66,6.5,6.5,0,0,1-3.36-.8,9.58,9.58,0,0,1-2.59-2.36v7q0,3.08-2.24,3.08A1.8,1.8,0,0,1,370,146a5,5,0,0,1-.43-2.32V123.57a2.94,2.94,0,0,1,.58-2,2,2,0,0,1,1.59-.66,2.1,2.1,0,0,1,1.62.68A2.76,2.76,0,0,1,374,123.54Zm9.14,6.78a8.07,8.07,0,0,0-.56-3.17,4.65,4.65,0,0,0-1.56-2,3.74,3.74,0,0,0-2.21-.71,4.15,4.15,0,0,0-3.26,1.52,6.64,6.64,0,0,0-1.32,4.48,6.48,6.48,0,0,0,1.32,4.33,4.12,4.12,0,0,0,3.26,1.55,3.75,3.75,0,0,0,2.15-.67,4.64,4.64,0,0,0,1.59-2A8,8,0,0,0,383.15,130.32Z"/><path class="cls-4" d="M391.57,137.06V116.82a3.15,3.15,0,0,1,.62-2.12,2.12,2.12,0,0,1,1.68-.72,2.21,2.21,0,0,1,1.71.71,3.05,3.05,0,0,1,.65,2.13v20.23a3,3,0,0,1-.66,2.13,2.22,2.22,0,0,1-1.7.71,2.11,2.11,0,0,1-1.67-.73A3.1,3.1,0,0,1,391.57,137.06Z"/><path class="cls-4" d="M412.85,137.26a14.47,14.47,0,0,1-3.27,2,9.16,9.16,0,0,1-3.55.66,6.72,6.72,0,0,1-3.15-.71,5.19,5.19,0,0,1-2.09-1.92,5,5,0,0,1-.73-2.63,4.71,4.71,0,0,1,1.21-3.26,6.07,6.07,0,0,1,3.33-1.81l2.2-.46q1.76-.36,3-.66t2.73-.73a4.87,4.87,0,0,0-.74-2.71q-.66-.86-2.73-.86a5.68,5.68,0,0,0-2.67.5,4.35,4.35,0,0,0-1.54,1.49,15.54,15.54,0,0,1-.91,1.31,1.48,1.48,0,0,1-1.14.32,2,2,0,0,1-1.36-.5,1.64,1.64,0,0,1-.57-1.29,4,4,0,0,1,.87-2.39,6.23,6.23,0,0,1,2.72-1.91,12.25,12.25,0,0,1,4.6-.75,13,13,0,0,1,4.84.73,4.5,4.5,0,0,1,2.49,2.3,10.07,10.07,0,0,1,.73,4.17q0,1.64,0,2.79t0,2.55a9.36,9.36,0,0,0,.44,2.74A8.68,8.68,0,0,1,418,138a1.72,1.72,0,0,1-.67,1.31,2.27,2.27,0,0,1-1.53.59,2.06,2.06,0,0,1-1.42-.68A10,10,0,0,1,412.85,137.26Zm-.31-6.75a23.48,23.48,0,0,1-3,.79q-2,.42-2.71.62a3.69,3.69,0,0,0-1.44.77,2,2,0,0,0-.68,1.6,2.37,2.37,0,0,0,.8,1.8,3,3,0,0,0,2.1.74,5.47,5.47,0,0,0,2.55-.61,4,4,0,0,0,1.72-1.56,7.15,7.15,0,0,0,.63-3.49Z"/><path class="cls-4" d="M438.59,134.12a4,4,0,0,1-.52,1.86,6.42,6.42,0,0,1-1.59,1.89,8.23,8.23,0,0,1-2.69,1.44,11.43,11.43,0,0,1-3.66.55,8.93,8.93,0,0,1-6.75-2.52,9.33,9.33,0,0,1-2.43-6.76,11.14,11.14,0,0,1,1.11-5.08,8,8,0,0,1,3.21-3.41,10.92,10.92,0,0,1,8.35-.67,8.69,8.69,0,0,1,2.56,1.37,6.52,6.52,0,0,1,1.61,1.79,3.53,3.53,0,0,1,.56,1.77,1.86,1.86,0,0,1-.62,1.42,2.14,2.14,0,0,1-1.51.58,1.52,1.52,0,0,1-1-.3,4.66,4.66,0,0,1-.86-1,7.08,7.08,0,0,0-1.79-1.95,4.39,4.39,0,0,0-5.7,1,7,7,0,0,0-1.26,4.42,8.52,8.52,0,0,0,.32,2.42,5.49,5.49,0,0,0,.94,1.88,4,4,0,0,0,1.49,1.18,4.52,4.52,0,0,0,1.91.4,4.31,4.31,0,0,0,2.4-.65,5.68,5.68,0,0,0,1.77-2,4.56,4.56,0,0,1,.92-1.23,1.75,1.75,0,0,1,1.21-.44,1.8,1.8,0,0,1,1.42.65A2.08,2.08,0,0,1,438.59,134.12Z"/><path class="cls-4" d="M455.68,131.55h-9.12a6.18,6.18,0,0,0,.64,2.8,4.29,4.29,0,0,0,3.94,2.44,5.6,5.6,0,0,0,1.53-.2A5,5,0,0,0,454,136a10.29,10.29,0,0,0,1.2-.9q.55-.48,1.42-1.3a1.53,1.53,0,0,1,1-.31,1.69,1.69,0,0,1,1.16.39,1.41,1.41,0,0,1,.44,1.11,3,3,0,0,1-.5,1.48,5.85,5.85,0,0,1-1.5,1.62,8.5,8.5,0,0,1-2.51,1.29,10.82,10.82,0,0,1-3.48.51,9.3,9.3,0,0,1-7-2.56,9.54,9.54,0,0,1-2.5-7,11.61,11.61,0,0,1,.62-3.84,8.48,8.48,0,0,1,1.79-3,7.79,7.79,0,0,1,2.91-1.94,10.42,10.42,0,0,1,3.83-.68,9.07,9.07,0,0,1,4.69,1.15,7.58,7.58,0,0,1,2.93,3,7.83,7.83,0,0,1,1,3.73q0,1.76-1,2.28A6.29,6.29,0,0,1,455.68,131.55Zm-9.12-2.65H455a5.68,5.68,0,0,0-1.29-3.58,3.86,3.86,0,0,0-2.95-1.19,3.73,3.73,0,0,0-2.86,1.2A6,6,0,0,0,446.55,128.9Z"/><path class="cls-4" d="M468,116.82v6.92a9.94,9.94,0,0,1,1.73-1.62,6.25,6.25,0,0,1,1.87-.9,7.85,7.85,0,0,1,2.21-.3,6.47,6.47,0,0,1,3.15.75,5.84,5.84,0,0,1,2.83,4.06,14.71,14.71,0,0,1,.17,2.38v8.94a3.1,3.1,0,0,1-.64,2.12,2.17,2.17,0,0,1-1.7.72q-2.31,0-2.31-2.84v-7.88a7.22,7.22,0,0,0-.67-3.44,2.63,2.63,0,0,0-2.53-1.21,3.79,3.79,0,0,0-2.25.71,4.27,4.27,0,0,0-1.5,1.94,12.44,12.44,0,0,0-.37,3.71v6.17a3.15,3.15,0,0,1-.62,2.11,2.17,2.17,0,0,1-1.73.73q-2.31,0-2.31-2.84V116.82a3.2,3.2,0,0,1,.61-2.13,2.11,2.11,0,0,1,1.7-.71,2.18,2.18,0,0,1,1.73.72A3.15,3.15,0,0,1,468,116.82Z"/><path class="cls-4" d="M502.06,130.41a11,11,0,0,1-.65,3.85,8.48,8.48,0,0,1-1.88,3,8.3,8.3,0,0,1-2.94,1.94,10.4,10.4,0,0,1-3.85.68,10.09,10.09,0,0,1-3.81-.68,8.41,8.41,0,0,1-4.81-5,11.86,11.86,0,0,1,0-7.72,8.43,8.43,0,0,1,1.86-3,8.21,8.21,0,0,1,2.94-1.92,11.12,11.12,0,0,1,7.66,0,8.27,8.27,0,0,1,4.83,5A11.06,11.06,0,0,1,502.06,130.41Zm-4.68,0a7,7,0,0,0-1.26-4.44,4.08,4.08,0,0,0-3.37-1.59,4.18,4.18,0,0,0-2.41.71,4.48,4.48,0,0,0-1.61,2.09,9.5,9.5,0,0,0,0,6.43,4.58,4.58,0,0,0,1.59,2.09,4.12,4.12,0,0,0,2.44.73,4.07,4.07,0,0,0,3.38-1.6A7,7,0,0,0,497.38,130.41Z"/><path class="cls-4" d="M505.73,137.06V116.82a3.15,3.15,0,0,1,.62-2.12A2.12,2.12,0,0,1,508,114a2.21,2.21,0,0,1,1.71.71,3.05,3.05,0,0,1,.65,2.13v20.23a3,3,0,0,1-.66,2.13,2.22,2.22,0,0,1-1.7.71,2.11,2.11,0,0,1-1.67-.73A3.1,3.1,0,0,1,505.73,137.06Z"/><path class="cls-4" d="M528,137.23v-.46a11.88,11.88,0,0,1-1.85,1.75,7,7,0,0,1-2,1,7.47,7.47,0,0,1-2.33.35,6.87,6.87,0,0,1-3.1-.71,7.23,7.23,0,0,1-2.47-2,9.23,9.23,0,0,1-1.58-3.09,13.22,13.22,0,0,1-.54-3.85,10,10,0,0,1,2.14-6.82A7.11,7.11,0,0,1,521.9,121a7.56,7.56,0,0,1,3.4.69,9.5,9.5,0,0,1,2.7,2.13v-6.89a3.49,3.49,0,0,1,.57-2.17,2,2,0,0,1,1.63-.73,2,2,0,0,1,1.63.68,3,3,0,0,1,.57,2v20.58a2.86,2.86,0,0,1-.62,2,2.07,2.07,0,0,1-1.59.67,2,2,0,0,1-1.58-.69A2.85,2.85,0,0,1,528,137.23Zm-9.18-6.85a8,8,0,0,0,.59,3.23,4.5,4.5,0,0,0,1.61,2,4,4,0,0,0,2.24.67,4.13,4.13,0,0,0,2.25-.64,4.42,4.42,0,0,0,1.62-2,8,8,0,0,0,.61-3.31,7.75,7.75,0,0,0-.61-3.2,4.83,4.83,0,0,0-1.64-2.05,3.92,3.92,0,0,0-2.26-.71,3.82,3.82,0,0,0-2.29.73,4.66,4.66,0,0,0-1.56,2.08A8.28,8.28,0,0,0,518.82,130.37Z"/><path class="cls-4" d="M550.12,131.55H541a6.18,6.18,0,0,0,.64,2.8,4.29,4.29,0,0,0,3.94,2.44,5.6,5.6,0,0,0,1.53-.2,5,5,0,0,0,1.34-.62,10.23,10.23,0,0,0,1.2-.9q.54-.48,1.42-1.3a1.53,1.53,0,0,1,1-.31,1.69,1.69,0,0,1,1.16.39,1.41,1.41,0,0,1,.44,1.11,3,3,0,0,1-.5,1.48,5.87,5.87,0,0,1-1.5,1.62,8.5,8.5,0,0,1-2.51,1.29,10.83,10.83,0,0,1-3.48.51,9.3,9.3,0,0,1-7-2.56,9.55,9.55,0,0,1-2.5-7,11.61,11.61,0,0,1,.62-3.84,8.45,8.45,0,0,1,1.79-3,7.78,7.78,0,0,1,2.9-1.94,10.43,10.43,0,0,1,3.83-.68,9.07,9.07,0,0,1,4.69,1.15,7.59,7.59,0,0,1,2.93,3,7.85,7.85,0,0,1,1,3.73,2.33,2.33,0,0,1-1,2.28A6.28,6.28,0,0,1,550.12,131.55ZM541,128.9h8.46a5.67,5.67,0,0,0-1.29-3.58,3.86,3.86,0,0,0-2.95-1.19,3.73,3.73,0,0,0-2.86,1.2A6,6,0,0,0,541,128.9Z"/><path class="cls-4" d="M562.52,133.16v3.9a3,3,0,0,1-.67,2.13,2.22,2.22,0,0,1-1.69.71,2.14,2.14,0,0,1-1.66-.72,3.06,3.06,0,0,1-.65-2.12v-13q0-3.14,2.27-3.14a1.9,1.9,0,0,1,1.68.73,4.06,4.06,0,0,1,.56,2.17,8.14,8.14,0,0,1,1.72-2.17,3.55,3.55,0,0,1,2.35-.73,6,6,0,0,1,2.85.73,2.19,2.19,0,0,1,1.38,1.95,1.86,1.86,0,0,1-.59,1.41,1.83,1.83,0,0,1-1.27.56,5.85,5.85,0,0,1-1.24-.32,5.77,5.77,0,0,0-1.73-.32,2.54,2.54,0,0,0-1.68.54,3.46,3.46,0,0,0-1,1.6,11.19,11.19,0,0,0-.5,2.52Q562.52,131.06,562.52,133.16Z"/><path class="cls-4" d="M593.76,137.26a14.42,14.42,0,0,1-3.27,2,9.16,9.16,0,0,1-3.55.66,6.72,6.72,0,0,1-3.15-.71,5.18,5.18,0,0,1-2.09-1.92,5,5,0,0,1-.74-2.63,4.71,4.71,0,0,1,1.21-3.26,6.06,6.06,0,0,1,3.33-1.81l2.21-.46q1.76-.36,3-.66t2.73-.73a4.87,4.87,0,0,0-.74-2.71q-.66-.86-2.73-.86a5.69,5.69,0,0,0-2.67.5,4.35,4.35,0,0,0-1.54,1.49,15.79,15.79,0,0,1-.91,1.31,1.49,1.49,0,0,1-1.14.32,2,2,0,0,1-1.36-.5,1.64,1.64,0,0,1-.57-1.29,4,4,0,0,1,.87-2.39,6.24,6.24,0,0,1,2.72-1.91,12.24,12.24,0,0,1,4.6-.75,13,13,0,0,1,4.84.73,4.5,4.5,0,0,1,2.49,2.3,10.05,10.05,0,0,1,.73,4.17q0,1.64,0,2.79t0,2.55a9.37,9.37,0,0,0,.44,2.74,8.68,8.68,0,0,1,.44,1.84,1.72,1.72,0,0,1-.67,1.31,2.27,2.27,0,0,1-1.53.59,2.06,2.06,0,0,1-1.42-.68A10,10,0,0,1,593.76,137.26Zm-.31-6.75a23.45,23.45,0,0,1-3,.79q-2,.42-2.71.62a3.68,3.68,0,0,0-1.44.77,2,2,0,0,0-.68,1.6,2.37,2.37,0,0,0,.8,1.8,3,3,0,0,0,2.1.74,5.47,5.47,0,0,0,2.55-.61,4.05,4.05,0,0,0,1.72-1.56,7.14,7.14,0,0,0,.63-3.49Z"/><path class="cls-4" d="M607,123.5v.56a8.17,8.17,0,0,1,2.69-2.38,7.17,7.17,0,0,1,3.36-.76,6.71,6.71,0,0,1,3.3.8,5.11,5.11,0,0,1,2.17,2.27,5.4,5.4,0,0,1,.6,1.85,19,19,0,0,1,.14,2.53v8.68a3.09,3.09,0,0,1-.64,2.12,2.3,2.3,0,0,1-3.36,0,3.07,3.07,0,0,1-.65-2.1v-7.78a7.77,7.77,0,0,0-.64-3.53,2.61,2.61,0,0,0-2.55-1.22,3.79,3.79,0,0,0-2.27.74,4.28,4.28,0,0,0-1.5,2,14.63,14.63,0,0,0-.34,3.9v5.84a3,3,0,0,1-.66,2.13,2.21,2.21,0,0,1-1.7.71,2.11,2.11,0,0,1-1.66-.73,3.07,3.07,0,0,1-.65-2.1V123.57a2.94,2.94,0,0,1,.58-2,2,2,0,0,1,1.59-.66,2.16,2.16,0,0,1,1.11.29,2.08,2.08,0,0,1,.79.87A3.07,3.07,0,0,1,607,123.5Z"/><path class="cls-4" d="M636.69,137.23v-.46a11.88,11.88,0,0,1-1.85,1.75,7,7,0,0,1-2,1,7.47,7.47,0,0,1-2.33.35,6.87,6.87,0,0,1-3.1-.71,7.23,7.23,0,0,1-2.47-2,9.23,9.23,0,0,1-1.58-3.09,13.22,13.22,0,0,1-.54-3.85A10,10,0,0,1,625,123.4a7.11,7.11,0,0,1,5.62-2.44,7.56,7.56,0,0,1,3.4.69,9.5,9.5,0,0,1,2.7,2.13v-6.89a3.49,3.49,0,0,1,.57-2.17,2,2,0,0,1,1.63-.73,2,2,0,0,1,1.63.68,3,3,0,0,1,.57,2v20.58a2.86,2.86,0,0,1-.62,2,2.07,2.07,0,0,1-1.59.67,2,2,0,0,1-1.58-.69A2.85,2.85,0,0,1,636.69,137.23Zm-9.18-6.85a8,8,0,0,0,.59,3.23,4.5,4.5,0,0,0,1.61,2,4,4,0,0,0,2.24.67,4.13,4.13,0,0,0,2.25-.64,4.42,4.42,0,0,0,1.62-2,8,8,0,0,0,.61-3.31,7.75,7.75,0,0,0-.61-3.2,4.83,4.83,0,0,0-1.64-2.05,3.92,3.92,0,0,0-2.26-.71,3.82,3.82,0,0,0-2.29.73,4.66,4.66,0,0,0-1.56,2.08A8.28,8.28,0,0,0,627.51,130.37Z"/><path class="cls-4" d="M652.4,117.45l-4.79,19.7q-.24,1-.42,1.54a1.88,1.88,0,0,1-.55.88,1.59,1.59,0,0,1-1.07.32q-1.74,0-1.74-1.5a13.33,13.33,0,0,1,.34-2l4.77-19.7a8.76,8.76,0,0,1,.72-2.15A1.42,1.42,0,0,1,651,114a1.89,1.89,0,0,1,1.31.41,1.45,1.45,0,0,1,.45,1.13A9.45,9.45,0,0,1,652.4,117.45Z"/><path class="cls-4" d="M673.08,130.41a11,11,0,0,1-.65,3.85,8.5,8.5,0,0,1-1.88,3,8.29,8.29,0,0,1-2.94,1.94,10.39,10.39,0,0,1-3.84.68,10.1,10.1,0,0,1-3.81-.68,8.41,8.41,0,0,1-4.81-5,11.86,11.86,0,0,1,0-7.72,8.44,8.44,0,0,1,1.86-3A8.22,8.22,0,0,1,660,121.6a11.12,11.12,0,0,1,7.66,0,8.27,8.27,0,0,1,4.83,5A11.06,11.06,0,0,1,673.08,130.41Zm-4.68,0a7,7,0,0,0-1.26-4.44,4.08,4.08,0,0,0-3.37-1.59,4.18,4.18,0,0,0-2.41.71,4.5,4.5,0,0,0-1.61,2.09,8.54,8.54,0,0,0-.56,3.23,8.44,8.44,0,0,0,.56,3.2,4.58,4.58,0,0,0,1.59,2.09,4.12,4.12,0,0,0,2.44.73,4.07,4.07,0,0,0,3.38-1.6A7,7,0,0,0,668.39,130.41Z"/><path class="cls-4" d="M681.38,133.16v3.9a3,3,0,0,1-.67,2.13,2.22,2.22,0,0,1-1.69.71,2.13,2.13,0,0,1-1.66-.72,3.06,3.06,0,0,1-.65-2.12v-13q0-3.14,2.27-3.14a1.9,1.9,0,0,1,1.67.73,4,4,0,0,1,.56,2.17,8.17,8.17,0,0,1,1.72-2.17,3.55,3.55,0,0,1,2.35-.73,6,6,0,0,1,2.85.73,2.2,2.2,0,0,1,1.38,1.95,1.86,1.86,0,0,1-.59,1.41,1.83,1.83,0,0,1-1.27.56,5.85,5.85,0,0,1-1.24-.32,5.76,5.76,0,0,0-1.73-.32,2.54,2.54,0,0,0-1.67.54,3.45,3.45,0,0,0-1,1.6,11.08,11.08,0,0,0-.5,2.52Q681.38,131.06,681.38,133.16Z"/><path class="cls-4" d="M712.62,137.26a14.42,14.42,0,0,1-3.27,2,9.16,9.16,0,0,1-3.55.66,6.72,6.72,0,0,1-3.15-.71,5.18,5.18,0,0,1-2.09-1.92,5,5,0,0,1-.74-2.63,4.71,4.71,0,0,1,1.21-3.26,6.06,6.06,0,0,1,3.33-1.81l2.21-.46q1.76-.36,3-.66t2.73-.73a4.87,4.87,0,0,0-.74-2.71q-.66-.86-2.73-.86a5.68,5.68,0,0,0-2.67.5,4.35,4.35,0,0,0-1.54,1.49,15.79,15.79,0,0,1-.91,1.31,1.48,1.48,0,0,1-1.14.32,2,2,0,0,1-1.36-.5,1.64,1.64,0,0,1-.57-1.29,4,4,0,0,1,.87-2.39,6.24,6.24,0,0,1,2.72-1.91,12.24,12.24,0,0,1,4.6-.75,13,13,0,0,1,4.84.73,4.5,4.5,0,0,1,2.49,2.3,10.07,10.07,0,0,1,.73,4.17q0,1.64,0,2.79t0,2.55a9.37,9.37,0,0,0,.44,2.74,8.68,8.68,0,0,1,.44,1.84,1.72,1.72,0,0,1-.67,1.31,2.26,2.26,0,0,1-1.53.59,2.06,2.06,0,0,1-1.42-.68A10,10,0,0,1,712.62,137.26Zm-.31-6.75a23.5,23.5,0,0,1-3,.79q-2,.42-2.71.62a3.68,3.68,0,0,0-1.44.77,2,2,0,0,0-.68,1.6,2.37,2.37,0,0,0,.8,1.8,3,3,0,0,0,2.1.74,5.47,5.47,0,0,0,2.55-.61,4.05,4.05,0,0,0,1.72-1.56,7.15,7.15,0,0,0,.63-3.49Z"/><path class="cls-4" d="M733.28,123.83l3,10.42,2.77-9.69q.45-1.52.66-2.08a2.7,2.7,0,0,1,.8-1.06,2.4,2.4,0,0,1,1.61-.5,2.44,2.44,0,0,1,1.63.5,2.87,2.87,0,0,1,.83,1.09q.24.59.67,2l2.77,9.69,3.08-10.42q.31-1.13.5-1.63a2.17,2.17,0,0,1,.63-.89,1.91,1.91,0,0,1,1.28-.38,2,2,0,0,1,1.45.58,1.82,1.82,0,0,1,.62,1.37,7.11,7.11,0,0,1-.53,2.17l-3.81,11.18q-.5,1.42-.77,2.05a3,3,0,0,1-.86,1.13,2.88,2.88,0,0,1-3.28,0,3.18,3.18,0,0,1-.9-1.3q-.29-.77-.63-2L742.17,127l-2.58,9.09a11.13,11.13,0,0,1-1.11,2.86,2.27,2.27,0,0,1-2.1,1,2.66,2.66,0,0,1-1.31-.3,2.52,2.52,0,0,1-.9-.85,6.43,6.43,0,0,1-.63-1.32l-.43-1.21L729.34,125a7.91,7.91,0,0,1-.56-2.17,1.86,1.86,0,0,1,.6-1.35,2,2,0,0,1,1.47-.6,1.71,1.71,0,0,1,1.57.66A9.72,9.72,0,0,1,733.28,123.83Z"/><path class="cls-4" d="M775.84,130.41a11,11,0,0,1-.65,3.85,8.5,8.5,0,0,1-1.88,3,8.29,8.29,0,0,1-2.94,1.94,10.39,10.39,0,0,1-3.84.68,10.1,10.1,0,0,1-3.81-.68,8.41,8.41,0,0,1-4.81-5,11.86,11.86,0,0,1,0-7.72,8.44,8.44,0,0,1,1.86-3,8.22,8.22,0,0,1,2.94-1.92,11.12,11.12,0,0,1,7.66,0,8.27,8.27,0,0,1,4.83,5A11.06,11.06,0,0,1,775.84,130.41Zm-4.68,0A7,7,0,0,0,769.9,126a4.08,4.08,0,0,0-3.37-1.59,4.18,4.18,0,0,0-2.41.71,4.5,4.5,0,0,0-1.61,2.09,8.54,8.54,0,0,0-.56,3.23,8.44,8.44,0,0,0,.56,3.2,4.58,4.58,0,0,0,1.59,2.09,4.12,4.12,0,0,0,2.44.73,4.07,4.07,0,0,0,3.38-1.6A7,7,0,0,0,771.16,130.41Z"/><path class="cls-4" d="M784.14,133.16v3.9a3,3,0,0,1-.67,2.13,2.22,2.22,0,0,1-1.69.71,2.13,2.13,0,0,1-1.66-.72,3.06,3.06,0,0,1-.65-2.12v-13q0-3.14,2.27-3.14a1.9,1.9,0,0,1,1.67.73,4,4,0,0,1,.56,2.17,8.17,8.17,0,0,1,1.72-2.17,3.55,3.55,0,0,1,2.35-.73,6,6,0,0,1,2.85.73,2.2,2.2,0,0,1,1.38,1.95,1.86,1.86,0,0,1-.59,1.41,1.83,1.83,0,0,1-1.27.56,5.85,5.85,0,0,1-1.24-.32,5.76,5.76,0,0,0-1.73-.32,2.54,2.54,0,0,0-1.67.54,3.45,3.45,0,0,0-1,1.6,11.08,11.08,0,0,0-.5,2.52Q784.14,131.06,784.14,133.16Z"/><path class="cls-4" d="M805.59,137.76,801.47,131l-2.53,2.39v3.71a2.85,2.85,0,0,1-.71,2.08,2.22,2.22,0,0,1-1.63.73,2.11,2.11,0,0,1-1.69-.72,3.18,3.18,0,0,1-.62-2.12V117.16a4,4,0,0,1,.6-2.37,2,2,0,0,1,1.71-.81,2.14,2.14,0,0,1,1.71.73,3.25,3.25,0,0,1,.63,2.17V128.2l5.25-5.5a13,13,0,0,1,1.49-1.4,2.05,2.05,0,0,1,1.25-.38,2,2,0,0,1,1.45.56,1.85,1.85,0,0,1,.58,1.39q0,1-1.9,2.73l-2.48,2.27,4.79,7.52q.53.84.76,1.27a1.78,1.78,0,0,1,.23.83,2.44,2.44,0,0,1-.61,1.75,2.1,2.1,0,0,1-1.6.64,1.78,1.78,0,0,1-1.32-.46A11.11,11.11,0,0,1,805.59,137.76Z"/><path class="cls-4" d="M825.14,118.75a2.46,2.46,0,0,1-1.67-.6,2.32,2.32,0,0,1,0-3.32,2.38,2.38,0,0,1,1.65-.64,2.45,2.45,0,0,1,1.61.58,2.07,2.07,0,0,1,.7,1.69,2.14,2.14,0,0,1-.68,1.68A2.37,2.37,0,0,1,825.14,118.75Zm2.31,4.82v13.48a3,3,0,0,1-.67,2.12,2.21,2.21,0,0,1-1.69.72,2.11,2.11,0,0,1-1.67-.73,3.1,3.1,0,0,1-.64-2.1V123.71a3,3,0,0,1,.64-2.08,2.15,2.15,0,0,1,1.67-.7,2.23,2.23,0,0,1,1.69.7A2.71,2.71,0,0,1,827.45,123.57Z"/><path class="cls-4" d="M836.51,123.5v.56a8.17,8.17,0,0,1,2.69-2.38,7.18,7.18,0,0,1,3.36-.76,6.71,6.71,0,0,1,3.3.8A5.11,5.11,0,0,1,848,124a5.4,5.4,0,0,1,.6,1.85,19.18,19.18,0,0,1,.14,2.53v8.68a3.09,3.09,0,0,1-.64,2.12,2.3,2.3,0,0,1-3.36,0,3.07,3.07,0,0,1-.65-2.1v-7.78a7.78,7.78,0,0,0-.64-3.53,2.61,2.61,0,0,0-2.56-1.22,3.79,3.79,0,0,0-2.27.74,4.27,4.27,0,0,0-1.5,2,14.59,14.59,0,0,0-.34,3.9v5.84a3,3,0,0,1-.66,2.13,2.22,2.22,0,0,1-1.7.71,2.12,2.12,0,0,1-1.66-.73,3.08,3.08,0,0,1-.65-2.1V123.57a2.94,2.94,0,0,1,.58-2,2,2,0,0,1,1.59-.66,2.16,2.16,0,0,1,1.11.29,2.08,2.08,0,0,1,.79.87A3.07,3.07,0,0,1,836.51,123.5Z"/><path class="cls-4" d="M866.47,123.54v.56a9.21,9.21,0,0,1,2.73-2.38,6.7,6.7,0,0,1,3.21-.76,7.44,7.44,0,0,1,4,1.11,7.66,7.66,0,0,1,2.86,3.25,11.35,11.35,0,0,1,1.05,5.06,12.34,12.34,0,0,1-.61,4,8.89,8.89,0,0,1-1.67,3,7.29,7.29,0,0,1-2.5,1.88,7.4,7.4,0,0,1-3.1.66,6.5,6.5,0,0,1-3.36-.8,9.58,9.58,0,0,1-2.59-2.36v7q0,3.08-2.24,3.08a1.79,1.79,0,0,1-1.74-.79,5,5,0,0,1-.43-2.32V123.57a2.94,2.94,0,0,1,.58-2,2,2,0,0,1,1.59-.66,2.1,2.1,0,0,1,1.62.68A2.76,2.76,0,0,1,866.47,123.54Zm9.14,6.78a8.05,8.05,0,0,0-.56-3.17,4.64,4.64,0,0,0-1.56-2,3.74,3.74,0,0,0-2.21-.71,4.15,4.15,0,0,0-3.26,1.52,6.64,6.64,0,0,0-1.32,4.48,6.49,6.49,0,0,0,1.32,4.33,4.12,4.12,0,0,0,3.26,1.55,3.75,3.75,0,0,0,2.15-.67,4.65,4.65,0,0,0,1.59-2A8,8,0,0,0,875.61,130.32Z"/><path class="cls-4" d="M888.66,133.16v3.9a3,3,0,0,1-.67,2.13,2.22,2.22,0,0,1-1.69.71,2.13,2.13,0,0,1-1.66-.72,3.06,3.06,0,0,1-.65-2.12v-13q0-3.14,2.27-3.14a1.9,1.9,0,0,1,1.67.73,4,4,0,0,1,.56,2.17,8.17,8.17,0,0,1,1.72-2.17,3.55,3.55,0,0,1,2.35-.73,6,6,0,0,1,2.85.73,2.2,2.2,0,0,1,1.38,1.95,1.86,1.86,0,0,1-.59,1.41,1.83,1.83,0,0,1-1.27.56,5.85,5.85,0,0,1-1.24-.32,5.76,5.76,0,0,0-1.73-.32,2.54,2.54,0,0,0-1.67.54,3.45,3.45,0,0,0-1,1.6,11.08,11.08,0,0,0-.5,2.52Q888.66,131.06,888.66,133.16Z"/><path class="cls-4" d="M915.5,130.41a11,11,0,0,1-.65,3.85,8.5,8.5,0,0,1-1.88,3,8.29,8.29,0,0,1-2.94,1.94,10.39,10.39,0,0,1-3.84.68,10.1,10.1,0,0,1-3.81-.68,8.41,8.41,0,0,1-4.81-5,11.86,11.86,0,0,1,0-7.72,8.44,8.44,0,0,1,1.86-3,8.22,8.22,0,0,1,2.94-1.92,11.12,11.12,0,0,1,7.66,0,8.27,8.27,0,0,1,4.83,5A11.06,11.06,0,0,1,915.5,130.41Zm-4.68,0a7,7,0,0,0-1.26-4.44,4.08,4.08,0,0,0-3.37-1.59,4.18,4.18,0,0,0-2.41.71,4.5,4.5,0,0,0-1.61,2.09,8.54,8.54,0,0,0-.56,3.23,8.44,8.44,0,0,0,.56,3.2,4.58,4.58,0,0,0,1.59,2.09,4.12,4.12,0,0,0,2.44.73,4.07,4.07,0,0,0,3.38-1.6A7,7,0,0,0,910.81,130.41Z"/><path class="cls-4" d="M936.33,124.34v13.55a14.21,14.21,0,0,1-.5,4,6.41,6.41,0,0,1-1.59,2.77,6.66,6.66,0,0,1-2.86,1.62,15.57,15.57,0,0,1-4.4.53,12.81,12.81,0,0,1-4.31-.67,7.45,7.45,0,0,1-2.92-1.74,3.18,3.18,0,0,1-1-2.2,1.81,1.81,0,0,1,.58-1.39,2,2,0,0,1,1.4-.54,2.3,2.3,0,0,1,1.79.91l.78.93a4.54,4.54,0,0,0,.89.8,3.48,3.48,0,0,0,1.17.5,6.85,6.85,0,0,0,1.57.16,6.38,6.38,0,0,0,2.81-.5,2.89,2.89,0,0,0,1.4-1.41,5.68,5.68,0,0,0,.47-1.94q.07-1,.1-3.32a7.66,7.66,0,0,1-2.49,2.29,6.79,6.79,0,0,1-3.36.79,7.07,7.07,0,0,1-4.09-1.2,7.64,7.64,0,0,1-2.69-3.35,12.34,12.34,0,0,1-.94-5,11.79,11.79,0,0,1,.57-3.79,8,8,0,0,1,1.63-2.85,7,7,0,0,1,2.44-1.75,7.69,7.69,0,0,1,3-.59,7.32,7.32,0,0,1,3.43.76,8.37,8.37,0,0,1,2.7,2.38v-.63a2.72,2.72,0,0,1,.6-1.88,2,2,0,0,1,1.54-.67,1.81,1.81,0,0,1,1.79.88A5.76,5.76,0,0,1,936.33,124.34Zm-13.52,5.91a6.45,6.45,0,0,0,1.24,4.29,4,4,0,0,0,3.2,1.45,4.18,4.18,0,0,0,2.2-.62,4.59,4.59,0,0,0,1.68-1.88,6.58,6.58,0,0,0,.65-3.05,7,7,0,0,0-1.26-4.44,4,4,0,0,0-3.31-1.59,3.88,3.88,0,0,0-3.2,1.52A6.82,6.82,0,0,0,922.81,130.25Z"/><path class="cls-4" d="M945.22,133.16v3.9a3,3,0,0,1-.67,2.13,2.22,2.22,0,0,1-1.69.71,2.13,2.13,0,0,1-1.66-.72,3.06,3.06,0,0,1-.65-2.12v-13q0-3.14,2.27-3.14a1.9,1.9,0,0,1,1.67.73,4,4,0,0,1,.56,2.17,8.17,8.17,0,0,1,1.72-2.17,3.55,3.55,0,0,1,2.35-.73,6,6,0,0,1,2.85.73,2.2,2.2,0,0,1,1.38,1.95,1.86,1.86,0,0,1-.59,1.41,1.83,1.83,0,0,1-1.27.56,5.85,5.85,0,0,1-1.24-.32,5.76,5.76,0,0,0-1.73-.32,2.54,2.54,0,0,0-1.67.54,3.45,3.45,0,0,0-1,1.6,11.08,11.08,0,0,0-.5,2.52Q945.21,131.06,945.22,133.16Z"/><path class="cls-4" d="M968.06,131.55h-9.12a6.18,6.18,0,0,0,.64,2.8,4.29,4.29,0,0,0,3.94,2.44,5.6,5.6,0,0,0,1.53-.2,5,5,0,0,0,1.34-.62,10.2,10.2,0,0,0,1.2-.9q.55-.48,1.42-1.3a1.53,1.53,0,0,1,1-.31,1.69,1.69,0,0,1,1.16.39,1.41,1.41,0,0,1,.44,1.11,3,3,0,0,1-.5,1.48,5.85,5.85,0,0,1-1.5,1.62,8.5,8.5,0,0,1-2.51,1.29,10.82,10.82,0,0,1-3.48.51,9.3,9.3,0,0,1-7-2.56,9.54,9.54,0,0,1-2.5-7,11.61,11.61,0,0,1,.62-3.84,8.48,8.48,0,0,1,1.79-3,7.79,7.79,0,0,1,2.91-1.94,10.42,10.42,0,0,1,3.83-.68A9.07,9.07,0,0,1,968,122a7.58,7.58,0,0,1,2.93,3,7.83,7.83,0,0,1,1,3.73q0,1.76-1,2.28A6.29,6.29,0,0,1,968.06,131.55Zm-9.12-2.65h8.46a5.67,5.67,0,0,0-1.29-3.58,3.86,3.86,0,0,0-2.95-1.19,3.73,3.73,0,0,0-2.86,1.2A6,6,0,0,0,958.94,128.9Z"/><path class="cls-4" d="M990.86,133.79a5.41,5.41,0,0,1-3.72,5.39,12.45,12.45,0,0,1-4.47.71,10.89,10.89,0,0,1-4.31-.77,6.26,6.26,0,0,1-2.65-1.92,3.87,3.87,0,0,1-.85-2.32,1.79,1.79,0,0,1,.55-1.32,1.88,1.88,0,0,1,1.38-.55,1.61,1.61,0,0,1,1.13.36,3.9,3.9,0,0,1,.75,1,5.11,5.11,0,0,0,1.72,1.86,5.18,5.18,0,0,0,2.73.62,3.93,3.93,0,0,0,2.3-.62,1.75,1.75,0,0,0,.9-1.43,1.94,1.94,0,0,0-.93-1.79,11.53,11.53,0,0,0-3.07-1.08,25.39,25.39,0,0,1-3.92-1.26A6.45,6.45,0,0,1,976,129a4,4,0,0,1-.91-2.65,4.67,4.67,0,0,1,.84-2.65,5.74,5.74,0,0,1,2.47-2,9.45,9.45,0,0,1,3.94-.74,13,13,0,0,1,3.26.38,8.14,8.14,0,0,1,2.41,1,5,5,0,0,1,1.47,1.4,2.74,2.74,0,0,1,.5,1.5,1.73,1.73,0,0,1-.54,1.32,2.13,2.13,0,0,1-1.53.51,1.87,1.87,0,0,1-1.22-.41,8,8,0,0,1-1.15-1.23,4.21,4.21,0,0,0-1.25-1.09,3.93,3.93,0,0,0-1.95-.41,3.81,3.81,0,0,0-2.1.54,1.57,1.57,0,0,0-.84,1.34A1.45,1.45,0,0,0,980,127a5.09,5.09,0,0,0,1.66.78q1,.31,2.87.75a15.38,15.38,0,0,1,3.55,1.26,5.9,5.9,0,0,1,2.08,1.73A3.84,3.84,0,0,1,990.86,133.79Z"/><path class="cls-4" d="M1009.83,133.79a5.41,5.41,0,0,1-3.72,5.39,12.45,12.45,0,0,1-4.47.71,10.89,10.89,0,0,1-4.31-.77,6.26,6.26,0,0,1-2.65-1.92,3.87,3.87,0,0,1-.85-2.32,1.79,1.79,0,0,1,.55-1.32,1.88,1.88,0,0,1,1.38-.55,1.61,1.61,0,0,1,1.13.36,3.9,3.9,0,0,1,.75,1,5.11,5.11,0,0,0,1.72,1.86,5.18,5.18,0,0,0,2.73.62,3.93,3.93,0,0,0,2.3-.62,1.75,1.75,0,0,0,.9-1.43,1.94,1.94,0,0,0-.93-1.79,11.53,11.53,0,0,0-3.07-1.08,25.39,25.39,0,0,1-3.92-1.26,6.45,6.45,0,0,1-2.42-1.73,4,4,0,0,1-.91-2.65,4.67,4.67,0,0,1,.84-2.65,5.74,5.74,0,0,1,2.47-2,9.45,9.45,0,0,1,3.94-.74,13,13,0,0,1,3.26.38,8.14,8.14,0,0,1,2.41,1,5,5,0,0,1,1.47,1.4,2.74,2.74,0,0,1,.5,1.5,1.73,1.73,0,0,1-.54,1.32,2.13,2.13,0,0,1-1.53.51,1.87,1.87,0,0,1-1.22-.41,8,8,0,0,1-1.15-1.23,4.21,4.21,0,0,0-1.25-1.09,3.93,3.93,0,0,0-1.95-.41,3.81,3.81,0,0,0-2.1.54,1.57,1.57,0,0,0-.84,1.34A1.45,1.45,0,0,0,999,127a5.09,5.09,0,0,0,1.66.78q1,.31,2.87.75a15.38,15.38,0,0,1,3.55,1.26,5.9,5.9,0,0,1,2.08,1.73A3.84,3.84,0,0,1,1009.83,133.79Z"/><path class="cls-4" d="M1015.13,139.89a2.66,2.66,0,0,1-1.83-.68,2.43,2.43,0,0,1-.77-1.91,2.48,2.48,0,0,1,.74-1.79,2.43,2.43,0,0,1,1.81-.75,2.54,2.54,0,0,1,1.84.74,2.64,2.64,0,0,1,0,3.71A2.57,2.57,0,0,1,1015.13,139.89Z"/><path class="cls-4" d="M141.51,178.8V159.06a3.32,3.32,0,0,1,.7-2.31A2.34,2.34,0,0,1,144,156a2.42,2.42,0,0,1,1.85.76,3.3,3.3,0,0,1,.71,2.32V178.8a3.33,3.33,0,0,1-.71,2.32,2.4,2.4,0,0,1-1.85.77,2.33,2.33,0,0,1-1.8-.78A3.33,3.33,0,0,1,141.51,178.8Z"/><path class="cls-4" d="M152.2,163.33h.51v-2.8q0-1.13.06-1.77a2.6,2.6,0,0,1,.33-1.1,2.11,2.11,0,0,1,.79-.78,2.23,2.23,0,0,1,1.14-.3,2.31,2.31,0,0,1,1.61.67,2,2,0,0,1,.61,1.09,9.8,9.8,0,0,1,.13,1.82v3.18h1.71a2.19,2.19,0,0,1,1.51.47,1.55,1.55,0,0,1,.52,1.2,1.35,1.35,0,0,1-.74,1.32,4.82,4.82,0,0,1-2.13.38h-.87v8.58a14.06,14.06,0,0,0,.08,1.68,1.74,1.74,0,0,0,.41,1,1.4,1.4,0,0,0,1.09.37,5.79,5.79,0,0,0,1.11-.15,5.81,5.81,0,0,1,1.09-.15,1.41,1.41,0,0,1,1,.45,1.52,1.52,0,0,1,.45,1.12,1.87,1.87,0,0,1-1.23,1.73,8.32,8.32,0,0,1-3.54.6,6.11,6.11,0,0,1-3.32-.73,3.4,3.4,0,0,1-1.48-2,13.75,13.75,0,0,1-.35-3.47v-9h-.62a2.22,2.22,0,0,1-1.54-.48A1.56,1.56,0,0,1,150,165a1.5,1.5,0,0,1,.56-1.2A2.43,2.43,0,0,1,152.2,163.33Z"/><path class="cls-4" d="M168.36,161.16h-.26a2.4,2.4,0,0,1-1.73-.78,2.51,2.51,0,0,1-.78-1.84,2.41,2.41,0,0,1,.78-1.83,2.69,2.69,0,0,1,1.92-.73,2.62,2.62,0,0,1,1.47.45,2.93,2.93,0,0,1,1.06,1.32,5.27,5.27,0,0,1,.38,2.11,7.16,7.16,0,0,1-.72,3.17,6.93,6.93,0,0,1-1.75,2.34,3.07,3.07,0,0,1-1.87.86,1.17,1.17,0,0,1-.86-.33,1.11,1.11,0,0,1-.33-.81,1.19,1.19,0,0,1,.7-1.13,5.14,5.14,0,0,0,1.42-1.16A2.84,2.84,0,0,0,168.36,161.16Z"/><path class="cls-4" d="M189.84,175.79a5.41,5.41,0,0,1-3.72,5.39,12.45,12.45,0,0,1-4.47.71,10.89,10.89,0,0,1-4.31-.77,6.26,6.26,0,0,1-2.65-1.92,3.87,3.87,0,0,1-.85-2.32,1.79,1.79,0,0,1,.55-1.32,1.88,1.88,0,0,1,1.38-.55,1.61,1.61,0,0,1,1.13.36,3.92,3.92,0,0,1,.75,1,5.11,5.11,0,0,0,1.72,1.86,5.18,5.18,0,0,0,2.73.62,3.93,3.93,0,0,0,2.3-.62,1.75,1.75,0,0,0,.9-1.43,1.94,1.94,0,0,0-.93-1.79,11.53,11.53,0,0,0-3.07-1.08,25.39,25.39,0,0,1-3.92-1.26A6.45,6.45,0,0,1,175,171a4,4,0,0,1-.91-2.65,4.67,4.67,0,0,1,.84-2.65,5.74,5.74,0,0,1,2.47-2,9.45,9.45,0,0,1,3.94-.74,13,13,0,0,1,3.26.38,8.12,8.12,0,0,1,2.41,1,5,5,0,0,1,1.47,1.4,2.74,2.74,0,0,1,.5,1.5,1.73,1.73,0,0,1-.54,1.32,2.13,2.13,0,0,1-1.53.51,1.87,1.87,0,0,1-1.22-.41,8.1,8.1,0,0,1-1.15-1.23,4.22,4.22,0,0,0-1.25-1.09,3.93,3.93,0,0,0-1.95-.41,3.81,3.81,0,0,0-2.1.54,1.57,1.57,0,0,0-.84,1.34A1.45,1.45,0,0,0,179,169a5.09,5.09,0,0,0,1.66.78q1,.31,2.87.75a15.37,15.37,0,0,1,3.55,1.26,5.89,5.89,0,0,1,2.08,1.73A3.84,3.84,0,0,1,189.84,175.79Z"/><path class="cls-4" d="M219.7,166.34v13.55a14.21,14.21,0,0,1-.5,4,6.42,6.42,0,0,1-1.59,2.77,6.68,6.68,0,0,1-2.86,1.62,15.57,15.57,0,0,1-4.4.53,12.81,12.81,0,0,1-4.31-.67,7.45,7.45,0,0,1-2.92-1.74,3.18,3.18,0,0,1-1-2.2,1.81,1.81,0,0,1,.58-1.39,2,2,0,0,1,1.4-.54,2.3,2.3,0,0,1,1.79.91l.78.93a4.54,4.54,0,0,0,.89.8,3.48,3.48,0,0,0,1.17.5,6.85,6.85,0,0,0,1.57.16,6.38,6.38,0,0,0,2.81-.5,2.88,2.88,0,0,0,1.4-1.41,5.68,5.68,0,0,0,.47-1.94q.07-1,.1-3.32a7.66,7.66,0,0,1-2.49,2.29,6.79,6.79,0,0,1-3.36.79,7.08,7.08,0,0,1-4.09-1.2,7.63,7.63,0,0,1-2.69-3.35,12.33,12.33,0,0,1-.94-5,11.79,11.79,0,0,1,.57-3.79,8,8,0,0,1,1.63-2.85,7,7,0,0,1,2.44-1.75,7.69,7.69,0,0,1,3-.59,7.32,7.32,0,0,1,3.44.76,8.38,8.38,0,0,1,2.7,2.38v-.63a2.72,2.72,0,0,1,.6-1.88,2,2,0,0,1,1.54-.67,1.81,1.81,0,0,1,1.79.88A5.8,5.8,0,0,1,219.7,166.34Zm-13.52,5.91a6.45,6.45,0,0,0,1.24,4.29,4,4,0,0,0,3.2,1.45,4.19,4.19,0,0,0,2.2-.62,4.58,4.58,0,0,0,1.68-1.88,6.57,6.57,0,0,0,.65-3.05A7,7,0,0,0,213.9,168a4,4,0,0,0-3.31-1.59,3.88,3.88,0,0,0-3.2,1.52A6.82,6.82,0,0,0,206.18,172.25Z"/><path class="cls-4" d="M241,172.41a11,11,0,0,1-.65,3.85,8.49,8.49,0,0,1-1.88,3,8.29,8.29,0,0,1-2.94,1.94,10.39,10.39,0,0,1-3.84.68,10.1,10.1,0,0,1-3.81-.68,8.42,8.42,0,0,1-4.81-5,11.85,11.85,0,0,1,0-7.72,8.42,8.42,0,0,1,1.86-3,8.21,8.21,0,0,1,2.94-1.92,11.12,11.12,0,0,1,7.66,0,8.27,8.27,0,0,1,4.83,5A11.06,11.06,0,0,1,241,172.41Zm-4.68,0a7,7,0,0,0-1.26-4.44,4.08,4.08,0,0,0-3.37-1.59,4.18,4.18,0,0,0-2.41.71,4.49,4.49,0,0,0-1.61,2.09,9.51,9.51,0,0,0,0,6.43,4.58,4.58,0,0,0,1.59,2.09,4.12,4.12,0,0,0,2.44.73,4.07,4.07,0,0,0,3.38-1.6A7,7,0,0,0,236.33,172.41Z"/><path class="cls-4" d="M256.48,179.26a14.42,14.42,0,0,1-3.27,2,9.16,9.16,0,0,1-3.55.66,6.72,6.72,0,0,1-3.15-.71,5.18,5.18,0,0,1-2.09-1.92,5,5,0,0,1-.74-2.63,4.71,4.71,0,0,1,1.21-3.26,6.06,6.06,0,0,1,3.33-1.81l2.21-.46q1.76-.36,3-.66t2.73-.73a4.87,4.87,0,0,0-.74-2.71q-.66-.86-2.73-.86a5.69,5.69,0,0,0-2.67.5,4.35,4.35,0,0,0-1.54,1.49,15.79,15.79,0,0,1-.91,1.31,1.49,1.49,0,0,1-1.14.32,2,2,0,0,1-1.36-.5,1.64,1.64,0,0,1-.57-1.29,4,4,0,0,1,.87-2.39,6.24,6.24,0,0,1,2.72-1.91,12.24,12.24,0,0,1,4.6-.75,13,13,0,0,1,4.84.73,4.5,4.5,0,0,1,2.49,2.3,10.05,10.05,0,0,1,.73,4.17q0,1.64,0,2.79t0,2.55a9.37,9.37,0,0,0,.44,2.74,8.68,8.68,0,0,1,.44,1.84,1.72,1.72,0,0,1-.67,1.31,2.27,2.27,0,0,1-1.53.59,2.06,2.06,0,0,1-1.42-.68A10,10,0,0,1,256.48,179.26Zm-.31-6.75a23.45,23.45,0,0,1-3,.79q-2,.42-2.71.62a3.68,3.68,0,0,0-1.44.77,2,2,0,0,0-.68,1.6,2.37,2.37,0,0,0,.8,1.8,3,3,0,0,0,2.1.74,5.47,5.47,0,0,0,2.55-.61,4.05,4.05,0,0,0,1.72-1.56,7.14,7.14,0,0,0,.63-3.49Z"/><path class="cls-4" d="M265.48,179.06V158.82a3.15,3.15,0,0,1,.62-2.12,2.12,2.12,0,0,1,1.68-.72,2.21,2.21,0,0,1,1.71.71,3.06,3.06,0,0,1,.65,2.13v20.23a3,3,0,0,1-.66,2.13,2.21,2.21,0,0,1-1.7.71,2.1,2.1,0,0,1-1.67-.73A3.1,3.1,0,0,1,265.48,179.06Z"/><path class="cls-4" d="M286.08,160.75a2.46,2.46,0,0,1-1.67-.6,2.32,2.32,0,0,1,0-3.32,2.38,2.38,0,0,1,1.65-.64,2.45,2.45,0,0,1,1.61.58,2.07,2.07,0,0,1,.7,1.69,2.13,2.13,0,0,1-.68,1.68A2.37,2.37,0,0,1,286.08,160.75Zm2.31,4.82v13.48a3,3,0,0,1-.67,2.12,2.21,2.21,0,0,1-1.69.72,2.11,2.11,0,0,1-1.67-.73,3.1,3.1,0,0,1-.64-2.1V165.71a3,3,0,0,1,.64-2.08,2.15,2.15,0,0,1,1.67-.7,2.23,2.23,0,0,1,1.69.7A2.71,2.71,0,0,1,288.38,165.57Z"/><path class="cls-4" d="M308.22,175.79a5.41,5.41,0,0,1-3.72,5.39,12.45,12.45,0,0,1-4.47.71,10.9,10.9,0,0,1-4.31-.77,6.26,6.26,0,0,1-2.65-1.92,3.87,3.87,0,0,1-.86-2.32,1.8,1.8,0,0,1,.55-1.32,1.88,1.88,0,0,1,1.38-.55,1.62,1.62,0,0,1,1.13.36,3.94,3.94,0,0,1,.75,1,5.11,5.11,0,0,0,1.72,1.86,5.18,5.18,0,0,0,2.73.62,3.93,3.93,0,0,0,2.3-.62,1.75,1.75,0,0,0,.9-1.43,1.94,1.94,0,0,0-.93-1.79,11.54,11.54,0,0,0-3.07-1.08,25.43,25.43,0,0,1-3.92-1.26,6.46,6.46,0,0,1-2.42-1.73,4,4,0,0,1-.91-2.65,4.67,4.67,0,0,1,.84-2.65,5.74,5.74,0,0,1,2.47-2,9.45,9.45,0,0,1,3.94-.74,13,13,0,0,1,3.26.38,8.14,8.14,0,0,1,2.41,1,5,5,0,0,1,1.47,1.4,2.74,2.74,0,0,1,.5,1.5,1.73,1.73,0,0,1-.54,1.32,2.13,2.13,0,0,1-1.53.51,1.88,1.88,0,0,1-1.22-.41,8,8,0,0,1-1.15-1.23,4.22,4.22,0,0,0-1.25-1.09,3.94,3.94,0,0,0-1.95-.41,3.81,3.81,0,0,0-2.1.54,1.57,1.57,0,0,0-.84,1.34,1.45,1.45,0,0,0,.62,1.2,5.09,5.09,0,0,0,1.66.78q1,.31,2.87.75a15.37,15.37,0,0,1,3.55,1.26,5.9,5.9,0,0,1,2.08,1.73A3.84,3.84,0,0,1,308.22,175.79Z"/><path class="cls-4" d="M321.18,163.33h.51v-2.8q0-1.13.06-1.77a2.6,2.6,0,0,1,.33-1.1,2.11,2.11,0,0,1,.79-.78,2.23,2.23,0,0,1,1.14-.3,2.31,2.31,0,0,1,1.61.67,2,2,0,0,1,.61,1.09,9.8,9.8,0,0,1,.13,1.82v3.18h1.71a2.19,2.19,0,0,1,1.51.47,1.55,1.55,0,0,1,.52,1.2,1.35,1.35,0,0,1-.74,1.32,4.82,4.82,0,0,1-2.13.38h-.87v8.58a14.06,14.06,0,0,0,.08,1.68,1.74,1.74,0,0,0,.41,1,1.4,1.4,0,0,0,1.09.37,5.79,5.79,0,0,0,1.11-.15,5.81,5.81,0,0,1,1.09-.15,1.41,1.41,0,0,1,1,.45,1.52,1.52,0,0,1,.45,1.12,1.87,1.87,0,0,1-1.23,1.73,8.32,8.32,0,0,1-3.54.6,6.11,6.11,0,0,1-3.32-.73,3.4,3.4,0,0,1-1.48-2,13.75,13.75,0,0,1-.35-3.47v-9h-.62a2.22,2.22,0,0,1-1.54-.48A1.56,1.56,0,0,1,319,165a1.5,1.5,0,0,1,.56-1.2A2.43,2.43,0,0,1,321.18,163.33Z"/><path class="cls-4" d="M350.78,172.41a11,11,0,0,1-.65,3.85,8.48,8.48,0,0,1-1.88,3,8.3,8.3,0,0,1-2.94,1.94,10.4,10.4,0,0,1-3.85.68,10.09,10.09,0,0,1-3.81-.68,8.41,8.41,0,0,1-4.81-5,11.86,11.86,0,0,1,0-7.72,8.43,8.43,0,0,1,1.86-3,8.21,8.21,0,0,1,2.94-1.92,11.12,11.12,0,0,1,7.66,0,8.27,8.27,0,0,1,4.83,5A11.06,11.06,0,0,1,350.78,172.41Zm-4.68,0a7,7,0,0,0-1.26-4.44,4.08,4.08,0,0,0-3.37-1.59,4.18,4.18,0,0,0-2.41.71,4.48,4.48,0,0,0-1.61,2.09,9.5,9.5,0,0,0,0,6.43A4.58,4.58,0,0,0,339,177.7a4.12,4.12,0,0,0,2.44.73,4.07,4.07,0,0,0,3.38-1.6A7,7,0,0,0,346.1,172.41Z"/><path class="cls-4" d="M363,172.41a24.92,24.92,0,0,1,.44-4.83,23.2,23.2,0,0,1,1.35-4.43,32,32,0,0,1,2.24-4.37,12.37,12.37,0,0,1,1.35-1.92,2.46,2.46,0,0,1,1-.74,4.51,4.51,0,0,1,1.26-.15q.84,0,.84.46a13.9,13.9,0,0,1-.79,1.85q-.79,1.7-1.48,3.56a33.58,33.58,0,0,0-1.28,4.65,28.46,28.46,0,0,0-.59,5.9,28.13,28.13,0,0,0,.58,5.83,34.54,34.54,0,0,0,1.33,4.77q.74,2,1.49,3.61a13.33,13.33,0,0,1,.74,1.73q0,.46-.84.46a4.12,4.12,0,0,1-1.27-.16,2.52,2.52,0,0,1-1-.76A15.19,15.19,0,0,1,367,186a34.7,34.7,0,0,1-2.23-4.35,23.22,23.22,0,0,1-1.34-4.35A24.37,24.37,0,0,1,363,172.41Z"/><path class="cls-4" d="M390.62,175.79a5.41,5.41,0,0,1-3.72,5.39,12.45,12.45,0,0,1-4.47.71,10.89,10.89,0,0,1-4.31-.77,6.26,6.26,0,0,1-2.65-1.92,3.87,3.87,0,0,1-.85-2.32,1.79,1.79,0,0,1,.55-1.32,1.88,1.88,0,0,1,1.38-.55,1.61,1.61,0,0,1,1.13.36,3.92,3.92,0,0,1,.75,1,5.11,5.11,0,0,0,1.72,1.86,5.18,5.18,0,0,0,2.73.62,3.93,3.93,0,0,0,2.3-.62,1.75,1.75,0,0,0,.9-1.43,1.94,1.94,0,0,0-.93-1.79,11.53,11.53,0,0,0-3.07-1.08,25.39,25.39,0,0,1-3.92-1.26,6.45,6.45,0,0,1-2.42-1.73,4,4,0,0,1-.91-2.65,4.67,4.67,0,0,1,.84-2.65,5.74,5.74,0,0,1,2.47-2,9.45,9.45,0,0,1,3.94-.74,13,13,0,0,1,3.26.38,8.12,8.12,0,0,1,2.41,1,5,5,0,0,1,1.47,1.4,2.74,2.74,0,0,1,.5,1.5,1.73,1.73,0,0,1-.54,1.32,2.13,2.13,0,0,1-1.53.51,1.87,1.87,0,0,1-1.22-.41,8.1,8.1,0,0,1-1.15-1.23,4.22,4.22,0,0,0-1.25-1.09,3.93,3.93,0,0,0-1.95-.41,3.81,3.81,0,0,0-2.1.54,1.57,1.57,0,0,0-.84,1.34,1.45,1.45,0,0,0,.62,1.2,5.09,5.09,0,0,0,1.66.78q1,.31,2.87.75a15.37,15.37,0,0,1,3.55,1.26,5.89,5.89,0,0,1,2.08,1.73A3.84,3.84,0,0,1,390.62,175.79Z"/><path class="cls-4" d="M412,172.41a11,11,0,0,1-.65,3.85,8.48,8.48,0,0,1-1.88,3,8.3,8.3,0,0,1-2.94,1.94,10.4,10.4,0,0,1-3.85.68,10.09,10.09,0,0,1-3.81-.68,8.41,8.41,0,0,1-4.81-5,11.86,11.86,0,0,1,0-7.72,8.43,8.43,0,0,1,1.86-3,8.21,8.21,0,0,1,2.94-1.92,11.12,11.12,0,0,1,7.66,0,8.27,8.27,0,0,1,4.83,5A11.06,11.06,0,0,1,412,172.41Zm-4.68,0a7,7,0,0,0-1.26-4.44,4.08,4.08,0,0,0-3.37-1.59,4.18,4.18,0,0,0-2.41.71,4.48,4.48,0,0,0-1.61,2.09,9.5,9.5,0,0,0,0,6.43,4.58,4.58,0,0,0,1.59,2.09,4.12,4.12,0,0,0,2.44.73,4.07,4.07,0,0,0,3.38-1.6A7,7,0,0,0,407.35,172.41Z"/><path class="cls-4" d="M431.22,172.75V179a3.19,3.19,0,0,1-.67,2.2,2.26,2.26,0,0,1-1.76.73,2.2,2.2,0,0,1-1.72-.73,3.22,3.22,0,0,1-.66-2.2v-7.43a23.81,23.81,0,0,0-.12-2.73,3,3,0,0,0-.65-1.6,2.08,2.08,0,0,0-1.67-.62,3,3,0,0,0-3,1.57,11.07,11.07,0,0,0-.73,4.51V179a3.23,3.23,0,0,1-.66,2.2,2.2,2.2,0,0,1-1.73.74,2.23,2.23,0,0,1-1.73-.74,3.16,3.16,0,0,1-.68-2.2V165.61a2.92,2.92,0,0,1,.61-2,2,2,0,0,1,1.6-.68,2.17,2.17,0,0,1,1.6.64,2.39,2.39,0,0,1,.64,1.77v.44a8.12,8.12,0,0,1,2.6-2.14,6.85,6.85,0,0,1,3.08-.68,6.16,6.16,0,0,1,3,.7,5.49,5.49,0,0,1,2.08,2.12,8.12,8.12,0,0,1,2.53-2.13,6.47,6.47,0,0,1,3-.69,6.81,6.81,0,0,1,3.3.75,4.78,4.78,0,0,1,2.07,2.15,9.88,9.88,0,0,1,.6,4V179a3.19,3.19,0,0,1-.67,2.2,2.26,2.26,0,0,1-1.76.73,2.23,2.23,0,0,1-1.73-.74,3.16,3.16,0,0,1-.68-2.2v-7.84a17.87,17.87,0,0,0-.13-2.41,2.75,2.75,0,0,0-.69-1.52,2.21,2.21,0,0,0-1.71-.62,3.13,3.13,0,0,0-1.75.55,3.71,3.71,0,0,0-1.29,1.47A11.68,11.68,0,0,0,431.22,172.75Z"/><path class="cls-4" d="M459.69,173.55h-9.13a6.2,6.2,0,0,0,.64,2.8,4.29,4.29,0,0,0,3.94,2.44,5.59,5.59,0,0,0,1.53-.2A5,5,0,0,0,458,178a10.22,10.22,0,0,0,1.2-.9q.55-.48,1.42-1.3a1.53,1.53,0,0,1,1-.31,1.69,1.69,0,0,1,1.16.39,1.41,1.41,0,0,1,.44,1.11,3,3,0,0,1-.5,1.48,5.88,5.88,0,0,1-1.5,1.62,8.5,8.5,0,0,1-2.51,1.29,10.83,10.83,0,0,1-3.48.51,9.31,9.31,0,0,1-7-2.56,9.55,9.55,0,0,1-2.49-7,11.61,11.61,0,0,1,.62-3.84,8.46,8.46,0,0,1,1.79-3,7.79,7.79,0,0,1,2.91-1.94,10.42,10.42,0,0,1,3.83-.68,9.08,9.08,0,0,1,4.69,1.15,7.59,7.59,0,0,1,2.93,3,7.84,7.84,0,0,1,1,3.73q0,1.76-1,2.28A6.28,6.28,0,0,1,459.69,173.55Zm-9.13-2.65H459a5.67,5.67,0,0,0-1.29-3.58,3.87,3.87,0,0,0-2.95-1.19,3.73,3.73,0,0,0-2.86,1.2A6,6,0,0,0,450.57,170.9Z"/><path class="cls-4" d="M480.25,179.23v-.46a11.93,11.93,0,0,1-1.85,1.75,7,7,0,0,1-2,1,7.47,7.47,0,0,1-2.33.35,6.87,6.87,0,0,1-3.1-.71,7.23,7.23,0,0,1-2.47-2,9.23,9.23,0,0,1-1.58-3.09,13.22,13.22,0,0,1-.54-3.85,10,10,0,0,1,2.14-6.82,7.11,7.11,0,0,1,5.62-2.44,7.56,7.56,0,0,1,3.4.69,9.49,9.49,0,0,1,2.7,2.13v-6.89a3.48,3.48,0,0,1,.57-2.17,2,2,0,0,1,1.63-.73,2,2,0,0,1,1.63.68,3,3,0,0,1,.57,2v20.58a2.86,2.86,0,0,1-.62,2,2.06,2.06,0,0,1-1.59.67,2,2,0,0,1-1.58-.69A2.85,2.85,0,0,1,480.25,179.23Zm-9.18-6.85a8,8,0,0,0,.59,3.23,4.5,4.5,0,0,0,1.62,2,4,4,0,0,0,2.24.67,4.13,4.13,0,0,0,2.25-.64,4.41,4.41,0,0,0,1.62-2,7.94,7.94,0,0,0,.61-3.31,7.73,7.73,0,0,0-.61-3.2,4.81,4.81,0,0,0-1.64-2.05,3.92,3.92,0,0,0-2.26-.71,3.82,3.82,0,0,0-2.29.73,4.67,4.67,0,0,0-1.56,2.08A8.29,8.29,0,0,0,471.07,172.37Z"/><path class="cls-4" d="M501.13,179.26a14.42,14.42,0,0,1-3.27,2,9.16,9.16,0,0,1-3.55.66,6.72,6.72,0,0,1-3.15-.71,5.18,5.18,0,0,1-2.09-1.92,5,5,0,0,1-.74-2.63,4.71,4.71,0,0,1,1.21-3.26,6.06,6.06,0,0,1,3.33-1.81l2.21-.46q1.76-.36,3-.66t2.73-.73a4.87,4.87,0,0,0-.74-2.71q-.66-.86-2.73-.86a5.69,5.69,0,0,0-2.67.5,4.35,4.35,0,0,0-1.54,1.49,15.79,15.79,0,0,1-.91,1.31,1.49,1.49,0,0,1-1.14.32,2,2,0,0,1-1.36-.5,1.64,1.64,0,0,1-.57-1.29,4,4,0,0,1,.87-2.39,6.24,6.24,0,0,1,2.72-1.91,12.24,12.24,0,0,1,4.6-.75,13,13,0,0,1,4.84.73,4.5,4.5,0,0,1,2.49,2.3,10.05,10.05,0,0,1,.73,4.17q0,1.64,0,2.79t0,2.55a9.37,9.37,0,0,0,.44,2.74,8.68,8.68,0,0,1,.44,1.84,1.72,1.72,0,0,1-.67,1.31,2.27,2.27,0,0,1-1.53.59,2.06,2.06,0,0,1-1.42-.68A10,10,0,0,1,501.13,179.26Zm-.31-6.75a23.45,23.45,0,0,1-3,.79q-2,.42-2.71.62a3.68,3.68,0,0,0-1.44.77,2,2,0,0,0-.68,1.6,2.37,2.37,0,0,0,.8,1.8,3,3,0,0,0,2.1.74,5.47,5.47,0,0,0,2.55-.61,4.05,4.05,0,0,0,1.72-1.56,7.14,7.14,0,0,0,.63-3.49Z"/><path class="cls-4" d="M514,182.47l.43-1L508.67,167a5.4,5.4,0,0,1-.53-1.81,2.12,2.12,0,0,1,.31-1.11,2.29,2.29,0,0,1,.85-.82,2.22,2.22,0,0,1,1.12-.31,1.83,1.83,0,0,1,1.52.64,5.91,5.91,0,0,1,.91,1.84l3.95,11.48,3.74-10.68a18.2,18.2,0,0,1,.8-2,2.39,2.39,0,0,1,.76-1,2.11,2.11,0,0,1,1.14-.26,2,2,0,0,1,1,.28,2,2,0,0,1,.75.76,2.05,2.05,0,0,1,.26,1q-.07.33-.22.92t-.38,1.21L518.58,183a18.68,18.68,0,0,1-1.54,3.3,5.06,5.06,0,0,1-2,1.84,7.33,7.33,0,0,1-3.34.64,8.13,8.13,0,0,1-3.08-.44,1.62,1.62,0,0,1-1-1.62,1.57,1.57,0,0,1,.49-1.24,2.1,2.1,0,0,1,1.44-.44,2.66,2.66,0,0,1,.74.1,3.48,3.48,0,0,0,.77.1,2.79,2.79,0,0,0,1.27-.24,2.22,2.22,0,0,0,.83-.83A12.68,12.68,0,0,0,514,182.47Z"/><path class="cls-4" d="M536.46,172.41a23.51,23.51,0,0,1-1,7,29.6,29.6,0,0,1-3,6.58,8.89,8.89,0,0,1-1.81,2.36,3.05,3.05,0,0,1-1.81.48q-.85,0-.85-.46a10.84,10.84,0,0,1,.72-1.65q.72-1.5,1.5-3.56a32.39,32.39,0,0,0,1.35-4.86,30.3,30.3,0,0,0,0-11.77,33.24,33.24,0,0,0-1.35-4.85q-.77-2.05-1.49-3.56a12.11,12.11,0,0,1-.72-1.65q0-.46.85-.46a3.2,3.2,0,0,1,1.85.45,8.42,8.42,0,0,1,1.78,2.35,34.89,34.89,0,0,1,1.76,3.3,26.46,26.46,0,0,1,1.26,3.25,22.07,22.07,0,0,1,.76,3.38A25.48,25.48,0,0,1,536.46,172.41Z"/><path class="cls-4" d="M554.1,158.65v7.13a10.85,10.85,0,0,1,2.68-2.09,7.15,7.15,0,0,1,3.38-.73,7.5,7.5,0,0,1,4.08,1.1,7.25,7.25,0,0,1,2.72,3.2,11.78,11.78,0,0,1,1,5,13.36,13.36,0,0,1-.54,3.89,9.24,9.24,0,0,1-1.56,3.07,7,7,0,0,1-2.49,2,7.29,7.29,0,0,1-3.22.71,7.72,7.72,0,0,1-2-.26,5.92,5.92,0,0,1-1.62-.67,7.23,7.23,0,0,1-1.14-.86q-.47-.44-1.24-1.33v.46a2.81,2.81,0,0,1-.63,2,2.11,2.11,0,0,1-1.61.68,2,2,0,0,1-1.58-.68,3,3,0,0,1-.59-2V158.86a3.42,3.42,0,0,1,.57-2.15,1.92,1.92,0,0,1,1.6-.73,2,2,0,0,1,1.66.69A3,3,0,0,1,554.1,158.65Zm.22,13.86a6.42,6.42,0,0,0,1.27,4.28,4.18,4.18,0,0,0,3.34,1.5,3.84,3.84,0,0,0,3-1.53,6.69,6.69,0,0,0,1.27-4.38,8.61,8.61,0,0,0-.53-3.18,4.62,4.62,0,0,0-1.5-2.06,3.7,3.7,0,0,0-2.27-.73,4.06,4.06,0,0,0-2.38.73,4.83,4.83,0,0,0-1.64,2.1A8.16,8.16,0,0,0,554.32,172.51Z"/><path class="cls-4" d="M584.69,173.55h-9.13a6.17,6.17,0,0,0,.64,2.8,4.28,4.28,0,0,0,3.94,2.44,5.61,5.61,0,0,0,1.53-.2A5,5,0,0,0,583,178a10.3,10.3,0,0,0,1.2-.9q.55-.48,1.42-1.3a1.53,1.53,0,0,1,1-.31,1.69,1.69,0,0,1,1.16.39,1.4,1.4,0,0,1,.45,1.11,3,3,0,0,1-.5,1.48,5.84,5.84,0,0,1-1.5,1.62,8.5,8.5,0,0,1-2.51,1.29,10.82,10.82,0,0,1-3.48.51,9.3,9.3,0,0,1-7-2.56,9.54,9.54,0,0,1-2.5-7,11.61,11.61,0,0,1,.62-3.84,8.46,8.46,0,0,1,1.79-3,7.78,7.78,0,0,1,2.91-1.94,10.42,10.42,0,0,1,3.83-.68,9.07,9.07,0,0,1,4.69,1.15,7.59,7.59,0,0,1,2.93,3,7.84,7.84,0,0,1,1,3.73,2.33,2.33,0,0,1-1,2.28A6.28,6.28,0,0,1,584.69,173.55Zm-9.13-2.65H584a5.68,5.68,0,0,0-1.29-3.58,3.86,3.86,0,0,0-2.95-1.19,3.74,3.74,0,0,0-2.86,1.2A6,6,0,0,0,575.56,170.9Z"/><path class="cls-4" d="M613,179.26a14.47,14.47,0,0,1-3.27,2,9.16,9.16,0,0,1-3.55.66,6.72,6.72,0,0,1-3.15-.71,5.19,5.19,0,0,1-2.09-1.92,5,5,0,0,1-.73-2.63,4.71,4.71,0,0,1,1.21-3.26,6.07,6.07,0,0,1,3.33-1.81l2.2-.46q1.76-.36,3-.66t2.73-.73A4.87,4.87,0,0,0,612,167q-.66-.86-2.73-.86a5.68,5.68,0,0,0-2.67.5,4.35,4.35,0,0,0-1.54,1.49,15.54,15.54,0,0,1-.91,1.31,1.48,1.48,0,0,1-1.14.32,2,2,0,0,1-1.36-.5,1.64,1.64,0,0,1-.57-1.29,4,4,0,0,1,.87-2.39,6.23,6.23,0,0,1,2.72-1.91,12.25,12.25,0,0,1,4.6-.75,13,13,0,0,1,4.84.73,4.5,4.5,0,0,1,2.49,2.3,10.07,10.07,0,0,1,.73,4.17q0,1.64,0,2.79t0,2.55a9.36,9.36,0,0,0,.44,2.74,8.68,8.68,0,0,1,.44,1.84,1.72,1.72,0,0,1-.67,1.31,2.27,2.27,0,0,1-1.53.59,2.06,2.06,0,0,1-1.42-.68A10,10,0,0,1,613,179.26Zm-.31-6.75a23.48,23.48,0,0,1-3,.79q-2,.42-2.71.62a3.69,3.69,0,0,0-1.44.77,2,2,0,0,0-.68,1.6,2.37,2.37,0,0,0,.8,1.8,3,3,0,0,0,2.1.74,5.47,5.47,0,0,0,2.55-.61,4,4,0,0,0,1.72-1.56,7.15,7.15,0,0,0,.63-3.49Z"/><path class="cls-4" d="M647.49,176.12A4,4,0,0,1,647,178a6.42,6.42,0,0,1-1.59,1.89,8.23,8.23,0,0,1-2.69,1.44,11.43,11.43,0,0,1-3.66.55,8.93,8.93,0,0,1-6.75-2.52,9.33,9.33,0,0,1-2.43-6.76A11.14,11.14,0,0,1,631,167.5a8,8,0,0,1,3.21-3.41,10.92,10.92,0,0,1,8.35-.67,8.69,8.69,0,0,1,2.56,1.37,6.52,6.52,0,0,1,1.61,1.79,3.53,3.53,0,0,1,.56,1.77,1.86,1.86,0,0,1-.62,1.42,2.14,2.14,0,0,1-1.51.58,1.52,1.52,0,0,1-1-.3,4.66,4.66,0,0,1-.86-1,7.08,7.08,0,0,0-1.79-1.95,4.39,4.39,0,0,0-5.7,1,7,7,0,0,0-1.26,4.42,8.52,8.52,0,0,0,.32,2.42,5.49,5.49,0,0,0,.94,1.88,4,4,0,0,0,1.49,1.18,4.52,4.52,0,0,0,1.91.4,4.31,4.31,0,0,0,2.4-.65,5.68,5.68,0,0,0,1.77-2,4.56,4.56,0,0,1,.92-1.23,1.75,1.75,0,0,1,1.21-.44,1.8,1.8,0,0,1,1.42.65A2.08,2.08,0,0,1,647.49,176.12Z"/><path class="cls-4" d="M663.68,179.26v-.6a10.42,10.42,0,0,1-1.76,1.78,6.48,6.48,0,0,1-2,1.07,8.2,8.2,0,0,1-2.5.35,6.46,6.46,0,0,1-3-.7,5.11,5.11,0,0,1-2.08-1.93,8.54,8.54,0,0,1-.87-4.27v-9.25a3,3,0,0,1,.63-2.09,2.16,2.16,0,0,1,1.67-.69,2.22,2.22,0,0,1,1.71.7,3,3,0,0,1,.65,2.08v7.47a11.51,11.51,0,0,0,.27,2.73,3.27,3.27,0,0,0,1,1.73,2.8,2.8,0,0,0,1.92.62,3.91,3.91,0,0,0,2.22-.7,4.09,4.09,0,0,0,1.52-1.83,14.67,14.67,0,0,0,.39-4.34v-5.67a3,3,0,0,1,.65-2.08,2.2,2.2,0,0,1,1.69-.7,2.16,2.16,0,0,1,1.68.69,3,3,0,0,1,.63,2.09v13.52a2.89,2.89,0,0,1-.61,2,2.16,2.16,0,0,1-3.14,0A2.8,2.8,0,0,1,663.68,179.26Z"/><path class="cls-4" d="M687.72,175.79a5.41,5.41,0,0,1-3.72,5.39,12.45,12.45,0,0,1-4.47.71,10.89,10.89,0,0,1-4.31-.77,6.26,6.26,0,0,1-2.65-1.92,3.87,3.87,0,0,1-.85-2.32,1.79,1.79,0,0,1,.55-1.32,1.88,1.88,0,0,1,1.38-.55,1.61,1.61,0,0,1,1.13.36,3.9,3.9,0,0,1,.75,1,5.11,5.11,0,0,0,1.72,1.86,5.18,5.18,0,0,0,2.73.62,3.93,3.93,0,0,0,2.3-.62,1.75,1.75,0,0,0,.9-1.43,1.94,1.94,0,0,0-.93-1.79,11.53,11.53,0,0,0-3.07-1.08,25.39,25.39,0,0,1-3.92-1.26,6.45,6.45,0,0,1-2.42-1.73,4,4,0,0,1-.91-2.65,4.67,4.67,0,0,1,.84-2.65,5.74,5.74,0,0,1,2.47-2,9.45,9.45,0,0,1,3.94-.74,13,13,0,0,1,3.26.38,8.14,8.14,0,0,1,2.41,1,5,5,0,0,1,1.47,1.4,2.74,2.74,0,0,1,.5,1.5,1.73,1.73,0,0,1-.54,1.32,2.13,2.13,0,0,1-1.53.51,1.87,1.87,0,0,1-1.22-.41,8,8,0,0,1-1.15-1.23,4.21,4.21,0,0,0-1.25-1.09,3.93,3.93,0,0,0-1.95-.41,3.81,3.81,0,0,0-2.1.54,1.57,1.57,0,0,0-.84,1.34,1.45,1.45,0,0,0,.62,1.2,5.09,5.09,0,0,0,1.66.78q1,.31,2.87.75a15.38,15.38,0,0,1,3.55,1.26,5.9,5.9,0,0,1,2.08,1.73A3.84,3.84,0,0,1,687.72,175.79Z"/><path class="cls-4" d="M691.93,163.33h.51v-2.8q0-1.13.06-1.77a2.61,2.61,0,0,1,.33-1.1,2.1,2.1,0,0,1,.79-.78,2.24,2.24,0,0,1,1.15-.3,2.31,2.31,0,0,1,1.61.67,2,2,0,0,1,.61,1.09,9.81,9.81,0,0,1,.13,1.82v3.18h1.71a2.19,2.19,0,0,1,1.51.47,1.55,1.55,0,0,1,.52,1.2,1.35,1.35,0,0,1-.74,1.32,4.82,4.82,0,0,1-2.13.38h-.87v8.58a14,14,0,0,0,.08,1.68,1.72,1.72,0,0,0,.41,1,1.4,1.4,0,0,0,1.08.37,5.79,5.79,0,0,0,1.11-.15,5.81,5.81,0,0,1,1.09-.15,1.41,1.41,0,0,1,1,.45,1.52,1.52,0,0,1,.45,1.12,1.87,1.87,0,0,1-1.23,1.73,8.32,8.32,0,0,1-3.54.6,6.11,6.11,0,0,1-3.31-.73,3.41,3.41,0,0,1-1.48-2,13.75,13.75,0,0,1-.35-3.47v-9h-.62a2.22,2.22,0,0,1-1.54-.48,1.56,1.56,0,0,1-.53-1.21,1.51,1.51,0,0,1,.55-1.2A2.44,2.44,0,0,1,691.93,163.33Z"/><path class="cls-4" d="M721.53,172.41a11,11,0,0,1-.65,3.85,8.5,8.5,0,0,1-1.88,3,8.29,8.29,0,0,1-2.94,1.94,10.39,10.39,0,0,1-3.84.68,10.1,10.1,0,0,1-3.81-.68,8.41,8.41,0,0,1-4.81-5,11.86,11.86,0,0,1,0-7.72,8.44,8.44,0,0,1,1.86-3,8.22,8.22,0,0,1,2.94-1.92,11.12,11.12,0,0,1,7.66,0,8.27,8.27,0,0,1,4.83,5A11.06,11.06,0,0,1,721.53,172.41Zm-4.68,0a7,7,0,0,0-1.26-4.44,4.08,4.08,0,0,0-3.37-1.59,4.18,4.18,0,0,0-2.41.71,4.5,4.5,0,0,0-1.61,2.09,8.54,8.54,0,0,0-.56,3.23,8.44,8.44,0,0,0,.56,3.2,4.58,4.58,0,0,0,1.59,2.09,4.12,4.12,0,0,0,2.44.73,4.07,4.07,0,0,0,3.38-1.6A7,7,0,0,0,716.84,172.41Z"/><path class="cls-4" d="M740.72,172.75V179a3.19,3.19,0,0,1-.67,2.2,2.26,2.26,0,0,1-1.76.73,2.2,2.2,0,0,1-1.72-.73,3.21,3.21,0,0,1-.66-2.2v-7.43a24,24,0,0,0-.12-2.73,3,3,0,0,0-.65-1.6,2.08,2.08,0,0,0-1.67-.62,3,3,0,0,0-3,1.57,11.09,11.09,0,0,0-.73,4.51V179a3.22,3.22,0,0,1-.66,2.2,2.2,2.2,0,0,1-1.73.74,2.23,2.23,0,0,1-1.73-.74,3.16,3.16,0,0,1-.67-2.2V165.61a2.92,2.92,0,0,1,.61-2,2,2,0,0,1,1.6-.68,2.17,2.17,0,0,1,1.6.64,2.39,2.39,0,0,1,.64,1.77v.44a8.11,8.11,0,0,1,2.6-2.14A6.85,6.85,0,0,1,735,163a6.16,6.16,0,0,1,3,.7,5.49,5.49,0,0,1,2.08,2.12,8.11,8.11,0,0,1,2.53-2.13,6.46,6.46,0,0,1,3-.69,6.82,6.82,0,0,1,3.3.75,4.79,4.79,0,0,1,2.07,2.15,9.88,9.88,0,0,1,.6,4V179a3.19,3.19,0,0,1-.67,2.2,2.27,2.27,0,0,1-1.76.73,2.23,2.23,0,0,1-1.73-.74,3.16,3.16,0,0,1-.67-2.2v-7.84a17.87,17.87,0,0,0-.13-2.41,2.77,2.77,0,0,0-.69-1.52,2.21,2.21,0,0,0-1.71-.62,3.13,3.13,0,0,0-1.75.55,3.72,3.72,0,0,0-1.29,1.47A11.68,11.68,0,0,0,740.72,172.75Z"/><path class="cls-4" d="M769.19,173.55h-9.12a6.18,6.18,0,0,0,.64,2.8,4.29,4.29,0,0,0,3.94,2.44,5.6,5.6,0,0,0,1.53-.2,5,5,0,0,0,1.34-.62,10.2,10.2,0,0,0,1.2-.9q.55-.48,1.42-1.3a1.53,1.53,0,0,1,1-.31,1.69,1.69,0,0,1,1.16.39,1.41,1.41,0,0,1,.44,1.11,3,3,0,0,1-.5,1.48,5.85,5.85,0,0,1-1.5,1.62,8.5,8.5,0,0,1-2.51,1.29,10.82,10.82,0,0,1-3.48.51,9.3,9.3,0,0,1-7-2.56,9.54,9.54,0,0,1-2.5-7,11.61,11.61,0,0,1,.62-3.84,8.48,8.48,0,0,1,1.79-3,7.79,7.79,0,0,1,2.91-1.94,10.42,10.42,0,0,1,3.83-.68,9.07,9.07,0,0,1,4.69,1.15,7.58,7.58,0,0,1,2.93,3,7.83,7.83,0,0,1,1,3.73q0,1.76-1,2.28A6.29,6.29,0,0,1,769.19,173.55Zm-9.12-2.65h8.46a5.67,5.67,0,0,0-1.29-3.58,3.86,3.86,0,0,0-2.95-1.19,3.73,3.73,0,0,0-2.86,1.2A6,6,0,0,0,760.06,170.9Z"/><path class="cls-4" d="M781.6,175.16v3.9a3,3,0,0,1-.67,2.13,2.22,2.22,0,0,1-1.69.71,2.13,2.13,0,0,1-1.66-.72,3.06,3.06,0,0,1-.65-2.12v-13q0-3.14,2.27-3.14a1.9,1.9,0,0,1,1.67.73,4,4,0,0,1,.56,2.17,8.17,8.17,0,0,1,1.72-2.17,3.55,3.55,0,0,1,2.35-.73,6,6,0,0,1,2.85.73,2.2,2.2,0,0,1,1.38,1.95,1.86,1.86,0,0,1-.59,1.41,1.83,1.83,0,0,1-1.27.56,5.85,5.85,0,0,1-1.24-.32,5.76,5.76,0,0,0-1.73-.32,2.54,2.54,0,0,0-1.67.54,3.45,3.45,0,0,0-1,1.6,11.08,11.08,0,0,0-.5,2.52Q781.6,173.06,781.6,175.16Z"/><path class="cls-4" d="M798,174.43h-5.4a2.72,2.72,0,0,1-1.87-.57,1.89,1.89,0,0,1-.64-1.48,1.93,1.93,0,0,1,.62-1.5,2.71,2.71,0,0,1,1.89-.57H798a2.71,2.71,0,0,1,1.89.57,2.09,2.09,0,0,1,0,3A2.71,2.71,0,0,1,798,174.43Z"/><path class="cls-4" d="M803.11,163.33h1.11v-1.4a9,9,0,0,1,.56-3.48,3.53,3.53,0,0,1,1.88-1.88,9.13,9.13,0,0,1,3.63-.59q4.09,0,4.08,2a1.58,1.58,0,0,1-.43,1.11,1.33,1.33,0,0,1-1,.46,7.22,7.22,0,0,1-.94-.1,7.61,7.61,0,0,0-1.13-.1q-1.27,0-1.62.74a5,5,0,0,0-.36,2.13v1.11H810q2.67,0,2.67,1.61,0,1.15-.71,1.45a5,5,0,0,1-2,.31h-1.14v12.36a3,3,0,0,1-.66,2.11,2.19,2.19,0,0,1-1.7.73,2.13,2.13,0,0,1-1.65-.73,3,3,0,0,1-.66-2.11V166.7h-1.28a2.45,2.45,0,0,1-1.61-.47,1.52,1.52,0,0,1-.56-1.22Q800.77,163.33,803.11,163.33Z"/><path class="cls-4" d="M826.47,179.26a14.42,14.42,0,0,1-3.27,2,9.16,9.16,0,0,1-3.55.66,6.72,6.72,0,0,1-3.15-.71,5.18,5.18,0,0,1-2.09-1.92,5,5,0,0,1-.74-2.63,4.71,4.71,0,0,1,1.21-3.26,6.06,6.06,0,0,1,3.33-1.81l2.21-.46q1.76-.36,3-.66t2.73-.73a4.87,4.87,0,0,0-.74-2.71q-.66-.86-2.73-.86a5.68,5.68,0,0,0-2.67.5,4.35,4.35,0,0,0-1.54,1.49,15.79,15.79,0,0,1-.91,1.31,1.48,1.48,0,0,1-1.14.32,2,2,0,0,1-1.36-.5,1.64,1.64,0,0,1-.57-1.29,4,4,0,0,1,.87-2.39,6.24,6.24,0,0,1,2.72-1.91,12.24,12.24,0,0,1,4.6-.75,13,13,0,0,1,4.84.73,4.5,4.5,0,0,1,2.49,2.3,10.07,10.07,0,0,1,.73,4.17q0,1.64,0,2.79t0,2.55a9.37,9.37,0,0,0,.44,2.74,8.68,8.68,0,0,1,.44,1.84,1.72,1.72,0,0,1-.67,1.31,2.26,2.26,0,0,1-1.53.59,2.06,2.06,0,0,1-1.42-.68A10,10,0,0,1,826.47,179.26Zm-.31-6.75a23.5,23.5,0,0,1-3,.79q-2,.42-2.71.62a3.68,3.68,0,0,0-1.44.77,2,2,0,0,0-.68,1.6,2.37,2.37,0,0,0,.8,1.8,3,3,0,0,0,2.1.74,5.47,5.47,0,0,0,2.55-.61,4.05,4.05,0,0,0,1.72-1.56,7.15,7.15,0,0,0,.63-3.49Z"/><path class="cls-4" d="M852.21,176.12a4,4,0,0,1-.52,1.86,6.41,6.41,0,0,1-1.59,1.89,8.22,8.22,0,0,1-2.69,1.44,11.42,11.42,0,0,1-3.66.55,8.93,8.93,0,0,1-6.75-2.52,9.33,9.33,0,0,1-2.43-6.76,11.12,11.12,0,0,1,1.11-5.08,8,8,0,0,1,3.21-3.41,10.92,10.92,0,0,1,8.35-.67,8.68,8.68,0,0,1,2.56,1.37,6.54,6.54,0,0,1,1.61,1.79,3.54,3.54,0,0,1,.56,1.77,1.86,1.86,0,0,1-.62,1.42,2.14,2.14,0,0,1-1.51.58,1.52,1.52,0,0,1-1-.3,4.69,4.69,0,0,1-.86-1,7.08,7.08,0,0,0-1.79-1.95,4.39,4.39,0,0,0-5.7,1,7,7,0,0,0-1.26,4.42,8.52,8.52,0,0,0,.33,2.42,5.48,5.48,0,0,0,.94,1.88A4,4,0,0,0,842,178a4.53,4.53,0,0,0,1.91.4,4.31,4.31,0,0,0,2.4-.65,5.66,5.66,0,0,0,1.77-2,4.56,4.56,0,0,1,.92-1.23,1.75,1.75,0,0,1,1.21-.44,1.8,1.8,0,0,1,1.42.65A2.08,2.08,0,0,1,852.21,176.12Z"/><path class="cls-4" d="M858.64,160.75a2.46,2.46,0,0,1-1.67-.6,2.32,2.32,0,0,1,0-3.32,2.38,2.38,0,0,1,1.65-.64,2.45,2.45,0,0,1,1.61.58,2.07,2.07,0,0,1,.7,1.69,2.14,2.14,0,0,1-.68,1.68A2.37,2.37,0,0,1,858.64,160.75Zm2.31,4.82v13.48a3,3,0,0,1-.67,2.12,2.21,2.21,0,0,1-1.69.72,2.11,2.11,0,0,1-1.67-.73,3.1,3.1,0,0,1-.64-2.1V165.71a3,3,0,0,1,.64-2.08,2.15,2.15,0,0,1,1.67-.7,2.23,2.23,0,0,1,1.69.7A2.71,2.71,0,0,1,860.94,165.57Z"/><path class="cls-4" d="M870,165.5v.56a8.17,8.17,0,0,1,2.69-2.38,7.18,7.18,0,0,1,3.36-.76,6.71,6.71,0,0,1,3.3.8,5.11,5.11,0,0,1,2.17,2.27,5.4,5.4,0,0,1,.6,1.85,19.18,19.18,0,0,1,.14,2.53v8.68a3.09,3.09,0,0,1-.64,2.12,2.3,2.3,0,0,1-3.36,0,3.07,3.07,0,0,1-.65-2.1v-7.78a7.78,7.78,0,0,0-.64-3.53,2.61,2.61,0,0,0-2.56-1.22,3.79,3.79,0,0,0-2.27.74,4.27,4.27,0,0,0-1.5,2,14.59,14.59,0,0,0-.34,3.9v5.84a3,3,0,0,1-.66,2.13,2.22,2.22,0,0,1-1.7.71,2.12,2.12,0,0,1-1.66-.73,3.08,3.08,0,0,1-.65-2.1V165.57a2.94,2.94,0,0,1,.58-2,2,2,0,0,1,1.59-.66,2.16,2.16,0,0,1,1.11.29,2.08,2.08,0,0,1,.79.87A3.07,3.07,0,0,1,870,165.5Z"/><path class="cls-4" d="M904.06,166.34v13.55a14.21,14.21,0,0,1-.5,4,6.41,6.41,0,0,1-1.59,2.77,6.66,6.66,0,0,1-2.86,1.62,15.57,15.57,0,0,1-4.4.53,12.81,12.81,0,0,1-4.31-.67,7.45,7.45,0,0,1-2.92-1.74,3.18,3.18,0,0,1-1-2.2,1.81,1.81,0,0,1,.58-1.39,2,2,0,0,1,1.4-.54,2.3,2.3,0,0,1,1.79.91l.78.93a4.54,4.54,0,0,0,.89.8,3.48,3.48,0,0,0,1.17.5,6.85,6.85,0,0,0,1.57.16,6.38,6.38,0,0,0,2.81-.5,2.89,2.89,0,0,0,1.4-1.41,5.68,5.68,0,0,0,.47-1.94q.07-1,.1-3.32a7.66,7.66,0,0,1-2.49,2.29,6.79,6.79,0,0,1-3.36.79,7.07,7.07,0,0,1-4.09-1.2,7.64,7.64,0,0,1-2.69-3.35,12.34,12.34,0,0,1-.94-5,11.79,11.79,0,0,1,.57-3.79,8,8,0,0,1,1.63-2.85,7,7,0,0,1,2.44-1.75,7.69,7.69,0,0,1,3-.59,7.32,7.32,0,0,1,3.43.76,8.37,8.37,0,0,1,2.7,2.38v-.63a2.72,2.72,0,0,1,.6-1.88,2,2,0,0,1,1.54-.67,1.81,1.81,0,0,1,1.79.88A5.76,5.76,0,0,1,904.06,166.34Zm-13.52,5.91a6.45,6.45,0,0,0,1.24,4.29A4,4,0,0,0,895,178a4.18,4.18,0,0,0,2.2-.62,4.59,4.59,0,0,0,1.68-1.88,6.58,6.58,0,0,0,.65-3.05,7,7,0,0,0-1.26-4.44,4,4,0,0,0-3.31-1.59,3.88,3.88,0,0,0-3.2,1.52A6.82,6.82,0,0,0,890.54,172.25Z"/><path class="cls-4" d="M917.79,163.33h.51v-2.8q0-1.13.06-1.77a2.61,2.61,0,0,1,.33-1.1,2.1,2.1,0,0,1,.79-.78,2.24,2.24,0,0,1,1.15-.3,2.31,2.31,0,0,1,1.61.67,2,2,0,0,1,.61,1.09,9.81,9.81,0,0,1,.13,1.82v3.18h1.71a2.19,2.19,0,0,1,1.51.47,1.55,1.55,0,0,1,.52,1.2,1.35,1.35,0,0,1-.74,1.32,4.82,4.82,0,0,1-2.13.38H923v8.58A14,14,0,0,0,923,177a1.72,1.72,0,0,0,.41,1,1.4,1.4,0,0,0,1.08.37,5.79,5.79,0,0,0,1.11-.15,5.81,5.81,0,0,1,1.09-.15,1.41,1.41,0,0,1,1,.45,1.52,1.52,0,0,1,.45,1.12A1.87,1.87,0,0,1,927,181.3a8.32,8.32,0,0,1-3.54.6,6.11,6.11,0,0,1-3.31-.73,3.41,3.41,0,0,1-1.48-2,13.75,13.75,0,0,1-.35-3.47v-9h-.62a2.22,2.22,0,0,1-1.54-.48,1.56,1.56,0,0,1-.53-1.21,1.51,1.51,0,0,1,.55-1.2A2.44,2.44,0,0,1,917.79,163.33Z"/><path class="cls-4" d="M947.38,172.41a11,11,0,0,1-.65,3.85,8.5,8.5,0,0,1-1.88,3,8.29,8.29,0,0,1-2.94,1.94,10.39,10.39,0,0,1-3.84.68,10.1,10.1,0,0,1-3.81-.68,8.41,8.41,0,0,1-4.81-5,11.86,11.86,0,0,1,0-7.72,8.44,8.44,0,0,1,1.86-3,8.22,8.22,0,0,1,2.94-1.92,11.12,11.12,0,0,1,7.66,0,8.27,8.27,0,0,1,4.83,5A11.06,11.06,0,0,1,947.38,172.41Zm-4.68,0a7,7,0,0,0-1.26-4.44,4.08,4.08,0,0,0-3.37-1.59,4.18,4.18,0,0,0-2.41.71,4.5,4.5,0,0,0-1.61,2.09,8.54,8.54,0,0,0-.56,3.23,8.44,8.44,0,0,0,.56,3.2,4.58,4.58,0,0,0,1.59,2.09,4.12,4.12,0,0,0,2.44.73,4.07,4.07,0,0,0,3.38-1.6A7,7,0,0,0,942.7,172.41Z"/><path class="cls-4" d="M955.37,165.54v.56a9.21,9.21,0,0,1,2.73-2.38,6.7,6.7,0,0,1,3.21-.76,7.44,7.44,0,0,1,4,1.11,7.66,7.66,0,0,1,2.86,3.25,11.35,11.35,0,0,1,1.05,5.06,12.34,12.34,0,0,1-.61,4,8.89,8.89,0,0,1-1.67,3,7.29,7.29,0,0,1-2.5,1.88,7.4,7.4,0,0,1-3.1.66,6.5,6.5,0,0,1-3.36-.8,9.58,9.58,0,0,1-2.59-2.36v7q0,3.08-2.24,3.08a1.79,1.79,0,0,1-1.74-.79,5,5,0,0,1-.43-2.32V165.57a2.94,2.94,0,0,1,.58-2,2,2,0,0,1,1.59-.66,2.1,2.1,0,0,1,1.62.68A2.76,2.76,0,0,1,955.37,165.54Zm9.14,6.78a8.05,8.05,0,0,0-.56-3.17,4.64,4.64,0,0,0-1.56-2,3.74,3.74,0,0,0-2.21-.71,4.15,4.15,0,0,0-3.26,1.52,6.64,6.64,0,0,0-1.32,4.48,6.49,6.49,0,0,0,1.32,4.33,4.12,4.12,0,0,0,3.26,1.55,3.75,3.75,0,0,0,2.15-.67,4.65,4.65,0,0,0,1.59-2A8,8,0,0,0,964.51,172.32Z"/><path class="cls-4" d="M975.29,160.75a2.46,2.46,0,0,1-1.67-.6,2.32,2.32,0,0,1,0-3.32,2.38,2.38,0,0,1,1.65-.64,2.45,2.45,0,0,1,1.61.58,2.07,2.07,0,0,1,.7,1.69,2.14,2.14,0,0,1-.68,1.68A2.37,2.37,0,0,1,975.29,160.75Zm2.31,4.82v13.48a3,3,0,0,1-.67,2.12,2.21,2.21,0,0,1-1.69.72,2.11,2.11,0,0,1-1.67-.73,3.1,3.1,0,0,1-.64-2.1V165.71a3,3,0,0,1,.64-2.08,2.15,2.15,0,0,1,1.67-.7,2.23,2.23,0,0,1,1.69.7A2.71,2.71,0,0,1,977.6,165.57Z"/><path class="cls-4" d="M999.15,176.12a4,4,0,0,1-.52,1.86,6.41,6.41,0,0,1-1.59,1.89,8.22,8.22,0,0,1-2.69,1.44,11.42,11.42,0,0,1-3.66.55,8.93,8.93,0,0,1-6.75-2.52,9.33,9.33,0,0,1-2.43-6.76,11.12,11.12,0,0,1,1.11-5.08,8,8,0,0,1,3.21-3.41,10.92,10.92,0,0,1,8.35-.67,8.68,8.68,0,0,1,2.56,1.37,6.54,6.54,0,0,1,1.61,1.79,3.54,3.54,0,0,1,.56,1.77,1.86,1.86,0,0,1-.62,1.42,2.14,2.14,0,0,1-1.51.58,1.52,1.52,0,0,1-1-.3,4.69,4.69,0,0,1-.86-1,7.08,7.08,0,0,0-1.79-1.95,4.39,4.39,0,0,0-5.7,1,7,7,0,0,0-1.26,4.42,8.52,8.52,0,0,0,.33,2.42,5.48,5.48,0,0,0,.94,1.88,4,4,0,0,0,1.49,1.18,4.53,4.53,0,0,0,1.91.4,4.31,4.31,0,0,0,2.4-.65,5.66,5.66,0,0,0,1.77-2,4.56,4.56,0,0,1,.92-1.23,1.75,1.75,0,0,1,1.21-.44,1.8,1.8,0,0,1,1.42.65A2.08,2.08,0,0,1,999.15,176.12Z"/><path class="cls-4" d="M1004.57,181.89a2.66,2.66,0,0,1-1.83-.68,2.43,2.43,0,0,1-.77-1.91,2.48,2.48,0,0,1,.74-1.79,2.43,2.43,0,0,1,1.81-.75,2.54,2.54,0,0,1,1.84.74,2.64,2.64,0,0,1,0,3.71A2.57,2.57,0,0,1,1004.57,181.89Z"/><path class="cls-2" d="M1138.9,66.27a6.4,6.4,0,1,0-8.54,6v.39h-34.14v-.39a6.4,6.4,0,1,0-4.27,0v.39h-4.27V91.87H1092v19.21h4.27V91.87h34.14v19.21h4.27V91.87h4.27V72.67h-4.27v-.39A6.39,6.39,0,0,0,1138.9,66.27Zm-6.4-2.13a2.13,2.13,0,1,1-2.13,2.13A2.14,2.14,0,0,1,1132.5,64.13Zm-11.92,12.8h8.9l-10.67,10.67h-8.9Zm-16.71,10.67H1095l10.67-10.67h8.9Zm-9.78-23.47a2.13,2.13,0,1,1-2.13,2.13A2.14,2.14,0,0,1,1094.09,64.13Zm5.52,12.8L1092,84.59V76.94Zm25.24,10.67,9.79-9.79v9.79Z"/><path class="cls-2" d="M121.14,26.42a5.1,5.1,0,1,0-6.81,4.79v.31H87.11v-.31a5.11,5.11,0,1,0-3.4,0v.31H80.3V46.84h3.4V62.15h3.4V46.84h27.22V62.15h3.4V46.84h3.4V31.52h-3.4v-.31A5.1,5.1,0,0,0,121.14,26.42Zm-5.1-1.7a1.7,1.7,0,1,1-1.7,1.7A1.7,1.7,0,0,1,116,24.72Zm-9.51,10.21h7.1l-8.51,8.51H98ZM93.21,43.44h-7.1l8.51-8.51h7.1ZM85.4,24.72a1.7,1.7,0,1,1-1.7,1.7A1.7,1.7,0,0,1,85.4,24.72Zm4.4,10.21L83.7,41v-6.1Zm20.12,8.51,7.81-7.81v7.81Z"/><path class="cls-1" d="M55.62,39H40L25.73,87.37H19.32v5.69H76.27V87.37H69.86Zm3.28,31.32H36.69l2.51-8.54H56.38ZM51.36,44.66l2.51,8.54H41.72l2.51-8.54ZM31.67,87.37l2.51-8.54H61.41l2.51,8.54Z"/><path class="cls-1" d="M1060.15,39.39h-9.44l-8.59,29.19h-3.87V72h34.35V68.59h-3.87Zm2,18.89h-13.39l1.51-5.15h10.36Zm-4.54-15.46L1059.1,48h-7.33l1.52-5.15Zm-11.87,25.76,1.51-5.15h16.42l1.51,5.15Z"/></svg>