<svg id="Layer_1" data-name="Layer 1" xmlns="http://www.w3.org/2000/svg" viewBox="0 0 337.37 337.37"><defs><style>.cls-1{fill:none;}.cls-2{font-size:43.62px;font-family:ArialRoundedMTBold, Arial Rounded MT Bold;}.cls-2,.cls-6{fill:#59595b;}.cls-3{letter-spacing:-0.05em;}.cls-4{letter-spacing:0.01em;}.cls-5{letter-spacing:0em;}.cls-7{fill:#d8dde3;}</style></defs><title>pipeline</title><rect class="cls-1" width="337.37" height="337.37"/><text class="cls-2" transform="translate(60.69 318.17)">NETF<tspan class="cls-3" x="115.83" y="0">L</tspan><tspan class="cls-4" x="140.01" y="0">O</tspan><tspan class="cls-5" x="175.08" y="0">W</tspan></text><path class="cls-6" d="M168.58,129.85c2.73,0,4.77,1.44,4.77,3.35V244.12c0,1.92-2.27,3.35-4.77,3.35-2.73,0-4.77-1.44-4.77-3.35V133.21c0-1.76,2.27-3.35,4.77-3.35Z"/><path class="cls-7" d="M267.49,83.66c2.73,0,4.77,1.44,4.77,3.35V197.92c0,1.92-2.27,3.35-4.77,3.35-2.73,0-4.77-1.44-4.77-3.35V87c0-1.76,2.27-3.35,4.77-3.35Z"/><path class="cls-7" d="M69.88,83.66c2.73,0,4.77,1.44,4.77,3.35V197.92c0,1.92-2.27,3.35-4.77,3.35-2.73,0-4.77-1.44-4.77-3.35V87c0-1.76,2.27-3.35,4.77-3.35Z"/><path class="cls-6" d="M170.31,49.11c1.12,2.49.65,4.94-1.09,5.73L68.13,100.47c-1.75.79-4-.69-5-3C62,95,62.46,92.56,64.2,91.77L165.29,46.14c1.6-.72,4,.69,5,3Z"/><path class="cls-7" d="M273.65,91.36c1.12,2.49.65,4.94-1.09,5.73L171.47,142.72c-1.75.79-4-.69-5-3-1.12-2.49-.65-4.94,1.09-5.73L268.63,88.39c1.6-.72,4,.69,5,3Z"/><path class="cls-6" d="M273.65,185.69c1.12,2.49.65,4.94-1.09,5.73L171.47,237c-1.75.79-4-.69-5-3-1.12-2.49-.65-4.94,1.09-5.73l101.09-45.63c1.6-.72,4,.69,5,3Z"/><path class="cls-7" d="M170.31,234.1c-1,2.28-3.42,3.69-5,3L64.2,191.44c-1.75-.79-2.21-3.24-1.09-5.73,1-2.28,3.27-3.76,5-3l101.09,45.63c1.75.79,2.21,3.24,1.09,5.73Z"/><path class="cls-6" d="M170.31,139.77c-1,2.28-3.42,3.69-5,3L64.2,97.11c-1.75-.79-2.21-3.24-1.09-5.73,1-2.28,3.27-3.76,5-3L169.22,134c1.75.79,2.21,3.24,1.09,5.73Z"/><path class="cls-7" d="M273.65,97.52c-1,2.28-3.42,3.69-5,3L167.54,54.86c-1.75-.79-2.21-3.24-1.09-5.73,1-2.28,3.27-3.76,5-3L272.56,91.79c1.75.79,2.21,3.24,1.09,5.73Z"/><path class="cls-6" d="M168.58,28.38a21.16,21.16,0,1,0,21.16,21.16,21.13,21.13,0,0,0-21.16-21.16Z"/><path class="cls-6" d="M168.58,118.66a21.16,21.16,0,1,0,21.16,21.16,21.13,21.13,0,0,0-21.16-21.16Z"/><path class="cls-6" d="M267.49,165a21.16,21.16,0,1,0,21.16,21.16A21.13,21.13,0,0,0,267.49,165Z"/><path class="cls-6" d="M168.58,206.67a21.16,21.16,0,1,0,21.16,21.16,21.13,21.13,0,0,0-21.16-21.16Z"/><path class="cls-7" d="M69.88,165A21.16,21.16,0,1,0,91,186.12,21.13,21.13,0,0,0,69.88,165Z"/><path class="cls-6" d="M69.88,75.93A21.16,21.16,0,1,0,91,97.09,21.13,21.13,0,0,0,69.88,75.93Z"/><path class="cls-7" d="M267.49,75.93a21.16,21.16,0,1,0,21.16,21.16,21.13,21.13,0,0,0-21.16-21.16Z"/></svg>